<svg id="Layer_1" data-name="Layer 1" xmlns="http://www.w3.org/2000/svg" width="400" height="121.91" viewBox="0 0 400 121.91">
  <title>RosBank</title>
  <g id="g10">
    <g id="g12">
      <path id="path14" d="M.16,37.27H73.25V0H.16Z" style="fill: #ee293d"/>
      <path id="path16" d="M.16,73.08h73.1V36.54H.16Z" style="fill: #231f20"/>
      <path id="path18" d="M12.91,38.76H60.46V34.32H12.91Z" style="fill: #fff"/>
      <path id="path20" d="M119.89,18.25c8,0,12.94,5.2,12.94,12.38,0,7.48-5,11.78-12.94,11.78H104.07V54.64H97.33V18.25Zm.38,18.15A5.4,5.4,0,0,0,126,30.73c0-3.59-2.19-6.46-6.06-6.46H104.07V36.4h16.2" style="fill: #231f20"/>
      <path id="path22" d="M157.82,55.66c-11.59,0-21.2-7.71-21.2-19.26,0-11.4,9.61-19.26,21.2-19.26s21.1,7.86,21.1,19.26c0,11.55-9.45,19.26-21.1,19.26m0-32.31c-8.44,0-14.22,5.72-14.22,13,0,7.52,5.54,13.09,14.22,13.09s14.12-5.62,14.12-13.09-5.48-13-14.12-13" style="fill: #231f20"/>
      <path id="path24" d="M206.87,55.61c-12.18,0-21.35-7.71-21.35-19.26,0-11.35,9.31-19.21,21.35-19.21a27,27,0,0,1,16.94,5.43l-3.6,5.34a20.83,20.83,0,0,0-13.14-4.46c-8.89,0-14.42,5.62-14.42,12.9,0,7.52,5.59,12.95,14.51,12.95a21.49,21.49,0,0,0,13.34-4.36l3.59,5.34c-4.6,3.39-10,5.33-17.22,5.33" style="fill: #231f20"/>
      <path id="path26" d="M282.37,45.81l-4.17,8.83h-7.29l17.71-36.39h7.08l17.76,36.39h-7.28L302,45.81Zm2.81-5.92h14l-7-14.75-7,14.75" style="fill: #231f20"/>
      <path id="path28" d="M349.17,54.64V39.07H325.35V54.64H318.6V18.25h6.75V33.1h23.82V18.25h6.74V54.64h-6.74" style="fill: #231f20"/>
      <path id="path30" d="M365.9,54.64V18.25h6.75v17l18.29-17h8.28L380.41,35.77,400,54.64h-9.06L372.65,37V54.64H365.9" style="fill: #231f20"/>
      <path id="path32" d="M254.25,31.59h-15.8V23.92h26v-5.7H231.7V54.58h22.55c7.95,0,13.42-4.32,13.42-11.49,0-7.47-5.47-11.5-13.42-11.5m.39,17H238.45v-11h16.19c4.23,0,6.63,2.23,6.63,5.48,0,3.58-1.91,5.47-6.63,5.47" style="fill: #231f20"/>
      <path id="path34" d="M10.36,112.45a12.22,12.22,0,0,0-4.61-1.08c-2.12,0-3.19.46-3.19,1.29,0,2.34,9.48.46,9.48,5.47,0,2.07-1.95,3.67-5.85,3.67A12.12,12.12,0,0,1,0,120.2l.86-1.86a10.61,10.61,0,0,0,5.35,1.44c2.31,0,3.55-.66,3.55-1.65,0-2.57-9.48-.66-9.48-5.35,0-2,1.94-3.42,5.42-3.42a12,12,0,0,1,5.53,1.31l-.87,1.78" style="fill: #231f20"/>
      <path id="path36" d="M20.82,121.86c-3.79,0-6.93-2.52-6.93-6.29s3.14-6.29,6.93-6.29,6.88,2.56,6.88,6.29-3.08,6.29-6.88,6.29m0-10.55a4.33,4.33,0,0,0-4.65,4.26c0,2.46,1.81,4.28,4.65,4.28s4.61-1.83,4.61-4.28a4.27,4.27,0,0,0-4.61-4.26" style="fill: #231f20"/>
      <path id="path38" d="M36.72,121.85c-4,0-7-2.52-7-6.29s3-6.28,7-6.28a8.76,8.76,0,0,1,5.53,1.78l-1.17,1.74a6.81,6.81,0,0,0-4.29-1.46c-2.9,0-4.71,1.84-4.71,4.22s1.82,4.22,4.74,4.22a6.91,6.91,0,0,0,4.35-1.43l1.18,1.75a9.06,9.06,0,0,1-5.63,1.75" style="fill: #231f20"/>
      <path id="path40" d="M44.69,121.53H46.9V109.65H44.69Z" style="fill: #231f20"/>
      <path id="path42" d="M50,121.53V109.65H60.85v2H52.23v2.87h6.71v2H52.23v3.11h9v2H50" style="fill: #231f20"/>
      <path id="path44" d="M69.27,111.59v9.94H67.06v-9.94H62.22v-1.94H74.1v1.94H69.27" style="fill: #231f20"/>
      <path id="path46" d="M75.89,121.53V109.65H86.71v2H78.09v2.87h6.7v2h-6.7v3.11h9v2H75.89" style="fill: #231f20"/>
      <path id="path48" d="M100.88,119.77a8.34,8.34,0,0,0,3.39-.71v-3.45h2.13v4.6a10.32,10.32,0,0,1-5.63,1.64c-4,0-7-2.52-7-6.29s3-6.28,7-6.28a8.86,8.86,0,0,1,5.54,1.76l-1.17,1.74a6.88,6.88,0,0,0-4.3-1.41c-2.9-.06-4.7,1.81-4.7,4.19s1.82,4.21,4.74,4.21" style="fill: #231f20"/>
      <path id="path50" d="M109.38,121.53V109.65h10.83v2h-8.62v2.87h6.7v2h-6.7v3.11h9v2h-11.2" style="fill: #231f20"/>
      <path id="path52" d="M125.1,121.53h-2.16V109.65h2.26l7.74,8.95.05,0c-.13-2.26-.14-4.08-.14-5.83v-3.1H135v11.88h-2.23l-7.72-9h0c.08,1.76.08,4.83.08,5.84v3.1" style="fill: #231f20"/>
      <path id="path54" d="M138.15,121.53V109.65H149v2h-8.63v2.87h6.7v2h-6.7v3.11h9v2h-11.2" style="fill: #231f20"/>
      <path id="path56" d="M157.44,117.15h-3.55v4.38h-2.21V109.65h7.65c2.53,0,4.09,1.55,4.09,3.78a3.64,3.64,0,0,1-3.4,3.66l3.54,4.44h-2.77Zm1.65-2c1.37,0,2.15-.71,2.15-1.75a1.7,1.7,0,0,0-1.91-1.81h-5.44v3.56h5.2" style="fill: #231f20"/>
      <path id="path58" d="M168,118.64l-1.36,2.89H164.3l5.78-11.88h2.32l5.8,11.88h-2.38l-1.37-2.89Zm.91-1.93h4.58l-2.27-4.81L169,116.71" style="fill: #231f20"/>
      <path id="path60" d="M179.78,121.53V109.65H182v9.92h7.93v2H179.78" style="fill: #231f20"/>
      <path id="path62" d="M191.65,121.53V109.65h10.82v2h-8.62v2.87h6.7v2h-6.7v3.11h9v2H191.65" style="fill: #231f20"/>
      <path id="path64" d="M217.13,119.79a8.19,8.19,0,0,0,3.4-.71v-3.45h2.14v4.61a10.34,10.34,0,0,1-5.63,1.64c-4,0-7-2.53-7-6.31s3-6.28,7-6.28a9,9,0,0,1,5.55,1.76l-1.19,1.75a6.74,6.74,0,0,0-4.3-1.42c-2.9-.06-4.72,1.81-4.72,4.19s1.83,4.22,4.75,4.22" style="fill: #231f20"/>
      <path id="path66" d="M231.42,117.18h-3.56v4.39h-2.2V109.65h7.66c2.53,0,4.11,1.56,4.11,3.8a3.67,3.67,0,0,1-3.42,3.66l3.55,4.46h-2.77l-3.37-4.39Zm1.66-2c1.38,0,2.16-.72,2.16-1.75a1.72,1.72,0,0,0-1.92-1.83h-5.46v3.58h5.22" style="fill: #231f20"/>
      <path id="path68" d="M246.24,121.9c-3.79,0-6.94-2.53-6.94-6.31s3.15-6.3,6.94-6.3,6.91,2.57,6.91,6.3-3.1,6.31-6.91,6.31m0-10.58a4.33,4.33,0,0,0-4.65,4.27c0,2.46,1.81,4.28,4.65,4.28s4.62-1.83,4.62-4.28-1.79-4.27-4.62-4.27" style="fill: #231f20"/>
      <path id="path70" d="M267.69,116.71c0,3-2.25,5.2-6,5.2s-6-2.2-6-5.2v-7.06h2.21v6.83c0,2,1.2,3.38,3.79,3.38s3.8-1.39,3.8-3.38v-6.83h2.2v7.06" style="fill: #231f20"/>
      <path id="path72" d="M278.16,109.65a3.93,3.93,0,0,1,4.24,4c0,2.44-1.64,3.87-4.24,3.87H273v4h-2.2V109.65Zm.13,5.94a1.77,1.77,0,0,0,1.86-1.86,2,2,0,0,0-2-2.11H273v4h5.31" style="fill: #231f20"/>
    </g>
  </g>
</svg>
