<svg version="1.2" baseProfile="tiny-ps" xmlns="http://www.w3.org/2000/svg" viewBox="0 0 2304 1214" width="500" height="263">
	<title>dom_rf_bank_logo_gor_green-ai</title>
	<style>
		tspan { white-space:pre }
		.shp0 { fill: #29444e } 
		.shp1 { fill: #86c849 } 
	</style>
	<g id="Слой 1">
		<path id="&lt;Path&gt;" class="shp0" d="M891 312.98L891 650.48L853.49 650.48L853.49 350.48L778.5 425.49L778.5 650.48L741 650.48L741 350.48L666 425.49L666 650.48L628.5 650.48L628.5 406.73L722.25 312.98L722.25 312.99L722.25 312.98L778.5 312.98L778.5 369.36L834.74 313.1L834.74 312.98L891 312.98Z" />
		<path id="&lt;Compound Path&gt;" fill-rule="evenodd" class="shp0" d="M253.51 406.75L253.49 406.73L347.24 312.97L347.25 312.99L347.25 312.98L403.51 312.98L403.51 650.48L253.51 650.48L253.51 406.75ZM291.01 425.48L291.01 612.98L366.01 612.98L366.01 350.48L291.01 425.48Z" />
		<path id="&lt;Compound Path&gt;" fill-rule="evenodd" class="shp0" d="M591 650.48L441.01 650.48L441.01 312.98L591 312.98L591 650.48ZM478.51 612.98L553.5 612.98L553.5 350.48L478.51 350.48L478.51 612.98Z" />
		<path id="&lt;Path&gt;" class="shp0" d="M253.51 687.98L891 687.98L891 725.48L253.51 725.48L253.51 687.98Z" />
		<path id="&lt;Compound Path&gt;" fill-rule="evenodd" class="shp0" d="M516.01 762.98L516.01 912.97L291.01 912.97L291.01 950.47L253.51 950.47L253.51 762.98L516.01 762.98ZM478.5 800.48L291.01 800.48L291.01 875.47L478.5 875.47L478.5 800.48Z" />
		<path id="&lt;Compound Path&gt;" fill-rule="evenodd" class="shp0" d="M891 762.98L891 912.97L741 912.97L741 950.47L703.5 950.47L703.5 912.97L553.5 912.97L553.5 762.98L891 762.98ZM591 875.47L703.5 875.47L703.5 800.48L591 800.48L591 875.47ZM853.5 800.48L741 800.48L741 875.47L853.5 875.47L853.5 800.48Z" />
		<g id="&lt;Group&gt;">
			<path id="&lt;Compound Path&gt;" fill-rule="evenodd" class="shp0" d="M1483.51 734.83L1416.13 734.83L1416.13 566.12L1527.48 566.12L1527.48 595.5L1449 595.5L1449 629.61L1483.51 629.61C1517.32 629.61 1538.11 651.43 1538.11 682.22C1538.11 713.04 1517.55 734.83 1483.51 734.83ZM1481.86 659.01L1449 659.01L1449 705.46L1481.86 705.46C1496.51 705.46 1505.26 696.22 1505.26 682.22C1505.26 668.49 1496.51 659.01 1481.86 659.01Z" />
		</g>
		<path id="&lt;Compound Path&gt;" fill-rule="evenodd" class="shp0" d="M1678.6 734.83L1668.66 704.99L1608.86 704.99L1598.68 734.83L1564.42 734.83L1625.65 566.12L1651.41 566.12L1712.87 734.83L1678.6 734.83ZM1639.35 615.88L1618.08 677.25L1659.91 677.25L1639.35 615.88Z" />
		<path id="&lt;Path&gt;" class="shp0" d="M1837.17 734.83L1837.17 664.2L1780.2 664.2L1780.2 734.83L1747.35 734.83L1747.35 566.12L1780.2 566.12L1780.2 635.06L1837.17 635.06L1837.17 566.12L1870.04 566.12L1870.04 734.83L1837.17 734.83Z" />
		<path id="&lt;Path&gt;" class="shp0" d="M1921.5 734.83L1921.5 566.12L1954.35 566.12L1954.35 646.22L2008.73 566.12L2047.98 566.12L1991.48 645.28L2053.64 734.83L2013.47 734.83L1954.35 646.68L1954.35 734.83L1921.5 734.83Z" />
		<path id="&lt;Path&gt;" class="shp1" d="M1190.99 950.41L1153.5 950.41L1153.5 313.06L1190.99 313.06L1190.99 950.41Z" />
	</g>
</svg>