<svg id="Layer_1" data-name="Layer 1" xmlns="http://www.w3.org/2000/svg" width="500" height="103.25" viewBox="0 0 500 103.25">
  <title>GazpromBank</title>
  <g>
    <polygon points="99.82 51.6 99.63 55.96 99.1 60.28 98.21 64.4 97.04 68.46 95.56 72.28 93.71 75.99 91.65 79.55 89.34 82.89 86.73 85.98 83.89 88.89 80.88 91.57 77.62 93.92 74.18 96.06 70.51 97.94 66.79 99.45 62.83 100.66 58.8 101.58 54.6 102.12 50.34 102.3 46.08 102.12 41.94 101.58 37.84 100.66 33.94 99.45 30.17 97.94 26.54 96.06 23.1 93.92 19.86 91.57 16.84 88.89 14 85.98 11.39 82.89 9.02 79.55 6.96 75.99 5.18 72.28 3.63 68.46 2.46 64.4 1.57 60.28 1.04 55.96 0.85 51.6 1.04 47.22 1.57 42.97 2.46 38.8 3.63 34.79 5.18 30.91 6.96 27.22 9.02 23.69 11.39 20.36 14 17.26 16.84 14.35 19.86 11.67 23.1 9.26 26.54 7.13 30.17 5.31 33.94 3.73 37.84 2.52 41.94 1.62 46.08 1.06 50.34 0.88 54.6 1.06 58.8 1.62 62.83 2.52 66.79 3.73 70.51 5.31 74.18 7.13 77.62 9.26 80.88 11.67 83.89 14.35 86.73 17.26 89.34 20.36 91.65 23.69 93.71 27.22 95.56 30.91 97.04 34.79 98.21 38.8 99.1 42.97 99.63 47.22 99.82 51.6" style="fill: none;stroke: #fff;stroke-linejoin: round;stroke-width: 0.051070053130388px"/>
    <polyline points="99.52 51.29 99.33 55.65 98.8 59.96 97.9 64.09 96.74 68.14 95.25 71.96 93.41 75.67 91.35 79.24 89.04 82.58 86.43 85.67 83.58 88.58 80.57 91.26 77.31 93.61 73.87 95.75 70.2 97.62 66.49 99.13 62.52 100.34 58.5 101.27 54.3 101.81 50.03 101.98 45.76 101.81 41.63 101.27 37.54 100.34 33.63 99.13 29.86 97.62 26.23 95.75 22.8 93.61 19.55 91.26 16.54 88.58 13.7 85.67 11.09 82.58 8.71 79.24 6.65 75.67 4.87 71.96 3.32 68.14 2.16 64.09 1.27 59.96 0.74 55.65 0.55 51.29 0.74 46.91 1.27 42.66 2.16 38.49 3.32 34.48 4.87 30.59 6.65 26.9 8.71 23.39 11.09 20.04 13.7 16.95 16.54 14.04 19.55 11.37 22.8 8.95 26.23 6.81 29.86 5 33.63 3.43 37.54 2.22 41.63 1.31 45.76 0.75 50.03 0.57 54.3 0.75 58.5 1.31 62.52 2.22 66.49 3.43 70.2 5 73.87 6.81 77.31 8.95 80.57 11.37 83.58 14.04 86.43 16.95 89.04 20.04 91.35 23.39 93.41 26.9 95.25 30.59 96.74 34.48 97.9 38.49 98.8 42.66 99.33 46.91 99.52 51.29" style="fill: none;stroke: #bacfb8;stroke-linejoin: round;stroke-width: 0.374379932880402px"/>
    <path d="M1.74,51.6l.19-4.32.53-4.18L3.29,39l1.19-3.95,1.46-3.82,1.78-3.65L9.8,24.17l2.29-3.28,2.55-3L17.44,15l2.95-2.61L23.59,10,27,7.92l3.61-1.81,3.67-1.54,3.84-1.21,4-.84L46.21,2l4.13-.18,4.2.18,4.09.55,4,.84,3.85,1.21,3.73,1.54,3.54,1.81L77.08,10l3.2,2.37,3,2.61,2.79,2.85,2.54,3,2.31,3.28,2,3.45,1.78,3.65,1.46,3.82L97.38,39l.9,4.06.53,4.18L99,51.6l-.19,4.29-.53,4.19-.9,4.06-1.19,4-1.46,3.82L93,75.56l-2,3.45-2.31,3.28-2.54,3.09-2.79,2.84-3,2.62-3.2,2.37-3.37,2.05-3.54,1.83L66.44,98.6l-3.85,1.21-4,.91-4.09.56-4.2.17-4.13-.17-4.16-.56-4-.91L34.24,98.6l-3.67-1.51L27,95.26l-3.37-2.05-3.2-2.37-2.95-2.62-2.8-2.84-2.55-3.09L9.8,79,7.72,75.56,5.94,71.91,4.48,68.09l-1.19-4-.83-4.06-.53-4.19ZM0,51.6l.19,4.49.53,4.29.89,4.26,1.23,4,1.55,4L6.24,76.4,8.32,80l2.42,3.39,2.61,3.21,2.9,2.92,3.08,2.74,3.31,2.42,3.5,2.18,3.73,1.89,3.77,1.58,4,1.21,4.07,1L46,103l4.33.19L54.7,103l4.23-.54,4.13-1,4-1.21,3.84-1.58,3.67-1.89L78,94.66l3.32-2.42,3.13-2.74,2.85-2.92L90,83.37,92.36,80,94.5,76.4l1.82-3.76,1.55-4,1.23-4,.89-4.26.53-4.29.19-4.49-.19-4.44L100,42.8l-.89-4.19-1.23-4.12-1.55-4L94.5,26.78,92.36,23.2,90,19.82l-2.67-3.16-2.85-3L81.35,11,78,8.53,74.54,6.41l-3.67-1.9L67,2.94l-4-1.28L58.93.76,54.7.22,50.34,0,46,.22,41.74.76l-4.07.9-4,1.28L29.87,4.51l-3.73,1.9-3.5,2.12L19.33,11l-3.08,2.68-2.9,3-2.61,3.16L8.32,23.2,6.24,26.78,4.42,30.54l-1.55,4L1.64,38.61.75,42.8.22,47.16Z" style="fill: #004080;fill-rule: evenodd"/>
    <path d="M1.74,51.6l.19-4.32.53-4.18L3.29,39l1.19-3.95,1.46-3.82,1.78-3.65L9.8,24.17l2.29-3.28,2.55-3L17.44,15l2.95-2.61L23.59,10,27,7.92l3.61-1.81,3.67-1.54,3.84-1.21,4-.84L46.21,2l4.13-.18,4.2.18,4.09.55,4,.84,3.85,1.21,3.73,1.54,3.54,1.81L77.08,10l3.2,2.37,3,2.61,2.79,2.85,2.54,3,2.31,3.28,2,3.45,1.78,3.65,1.46,3.82L97.38,39l.9,4.06.53,4.18L99,51.6l-.19,4.29-.53,4.19-.9,4.06-1.19,4-1.46,3.82L93,75.56l-2,3.45-2.31,3.28-2.54,3.09-2.79,2.84-3,2.62-3.2,2.37-3.37,2.05-3.54,1.83L66.44,98.6l-3.85,1.21-4,.91-4.09.56-4.2.17-4.13-.17-4.16-.56-4-.91L34.24,98.6l-3.67-1.51L27,95.26l-3.37-2.05-3.2-2.37-2.95-2.62-2.8-2.84-2.55-3.09L9.8,79,7.72,75.56,5.94,71.91,4.48,68.09l-1.19-4-.83-4.06-.53-4.19ZM0,51.6l.19,4.49.53,4.29.89,4.26,1.23,4,1.55,4L6.24,76.4,8.32,80l2.42,3.39,2.61,3.21,2.9,2.92,3.08,2.74,3.31,2.42,3.5,2.18,3.73,1.89,3.77,1.58,4,1.21,4.07,1L46,103l4.33.19L54.7,103l4.23-.54,4.13-1,4-1.21,3.84-1.58,3.67-1.89L78,94.66l3.32-2.42,3.13-2.74,2.85-2.92L90,83.37,92.36,80,94.5,76.4l1.82-3.76,1.55-4,1.23-4,.89-4.26.53-4.29.19-4.49-.19-4.44L100,42.8l-.89-4.19-1.23-4.12-1.55-4L94.5,26.78,92.36,23.2,90,19.82l-2.67-3.16-2.85-3L81.35,11,78,8.53,74.54,6.41l-3.67-1.9L67,2.94l-4-1.28L58.93.76,54.7.22,50.34,0,46,.22,41.74.76l-4.07.9-4,1.28L29.87,4.51l-3.73,1.9-3.5,2.12L19.33,11l-3.08,2.68-2.9,3-2.61,3.16L8.32,23.2,6.24,26.78,4.42,30.54l-1.55,4L1.64,38.61.75,42.8.22,47.16Z" style="fill: none;stroke: #004080;stroke-linejoin: round;stroke-width: 0.051070053130388px"/>
    <path d="M82.41,46.38l-1.23,1-1.55,1.08-1.82,1-2,1-2.37.93-2.62.84L67.86,53l-4.1,1-3.83.9-3.74.73-3.54.68-3.43.53-3.38.61-3.38.6-3.36.74-3.5.8-3.08.9-3,1.08,3,1.47,3.2,1.34L37.21,64l1.36-.37,1.29-.37,1.35-.36,1.43-.31,1.54-.3L46,61.9l2.14-.35.94-.19,1.25-.24,1.48-.24,1.72-.3,1.82-.37,1.89-.37,2-.36,1.89-.43,1.79-.37,1.82-.41,1.84-.43,2-.54,1.89-.54,1.89-.67,1.85-.67,1.76-.74L77.57,54,79,53.11l1.29-.84,1.07-.86.82-1,.59-1,.24-1-.11-1.08ZM76.32,34.25l-2.14-.9-2.42-.87-2.61-.78-1.23.91-1.48.9-1.78.81,2.31.47,2.14.61,2.06.67,2.07.6h.24l.42-.18.4-.36.53-.37.5-.43.46-.47.36-.37Zm-46,12.86,5.33-1.4,5.32-1.21,5.45-1.1,5.45-1,5.56-1,5.56-1.23,5.57-1.38-2.07-.56-1.85-.41-1.76-.37-1.72-.19-1.78-.11-1.95.06-2.18.24-4.73.67-4.92.78-4.87,1L36,41.05,31.4,42.32l-.66.18-.83.3-1,.3-1.18.43-1.23.41-1.38.56-1.3.61-1.35.6-1.32.73L20,47.16,19,48l-.89.91-.64.9-.42.91-.13,1,.25,1,.53,1,.11-.06.19-.24.4-.37.6-.54.76-.62,1.08-.71,1.3-.74,1.54-.84,1.89-.87L27.73,48ZM21.81,68.39l.13.8.34.84.72.84.95.93.23-.56.3-.54.4-.6-1.59-.85Zm5.75-.6L29.08,67l1.79-.8L28.19,65l-2.65-1.27-1.19.78-1,.86,2.08,1.27ZM74.77,41.05l-1.59.71-1.89.74L69,43.23l-2.48.71-2.9.8-1.42.37-1.78.36-2,.37-2.31.41-2.59.49-2.73.48-2.89.57-3.08.6-3.2.67-3.27.64L37.21,50l-1.49.34-1.78.5-1.82.54-2,.67-2,.73-2,.84-1.84.91-1.76,1.09L21,56.8l.89.67.77.5.89.4.95.57,1.23-.73,1.42-.74,1.61-.71,1.89-.67,2.19-.67,3.2-.8,3-.73,2.9-.6,2.85-.48,2.84-.49,3-.48,1.88-.3,2.25-.43,2.38-.48,2.54-.56,2.56-.61,2.6-.6,2.54-.67,2.42-.67L72,46.85l2-.66,2-.85,1.79-1,1.53-1-.24-.23-.47-.3-.6-.3-.72-.38-.69-.36-.72-.3-.53-.24L75,41.05Zm3.63-2.31,1.16.6,1.13.6,1.12.67.3-.86V39l-.23-.74-.6-.73-.76-.78-1,1.1ZM21.21,61.49l-1-.57-.89-.54-.89-.6-.13.67.13.67.36.6.53.54.53.43.7-.6ZM73.48,26.72l-.24.67-.47.67-.54.67-.47.54,2.78.86,2.73,1-.36-1-.59-1-.89-.91-1-.83ZM15.72,37.46l2.42-1.57,2.48-1.47,2.48-1.37,2.61-1.3,2.74-1.15,2.78-1,2.84-.91,3-.74,3.14-.6,3.31-.47L47,26.61l3.54-.13,3.79.13,4,.24,4.2.47,4.38.74.88-.6.72-.68L69,26l.37-1.05-3.09-1-3.2-.73-3.31-.54-3.56-.37-3.77-.17h-4.1l-2.18.11-2.49.25L41,22.77l-2.78.5-2.84.6-2.84.73-2.84.78-2.78.93-2.61,1-2.35,1.1-2.15,1.21L22,26.72l1.61-.85,1.95-.9,2.25-.91,2.48-.86,2.67-.84,2.85-.8,3-.67,3-.61,2.95-.46,2.91-.31,2.78-.13,2-.07,1.89.07,1.78.07,1.66.13,1.71.17,1.72.23,1.83.38,1.94.43,2.15.54,2.35.6-.57-.78L68,20.48l-1-.6-1.19-.63-1.42-.64-2.18-.87L59.8,17l-2.66-.54L54.3,16.1l-3-.24H48.22L45,16l-3.28.36-3.3.56-3.25.84L32,18.85l-3.14,1.27,1.55-1.05,1.65-1,1.89-1,1.89-.78,2.2-.8,2.49-.73,2.78-.54,3-.48,3.26-.25,3.48-.07,2.25.13,2.31.3,2.38.5,2.31.6,2.25.84,2.24,1L68.85,18l1.91,1.34L72.48,21l.7,1,.47,1,.3.84L76.09,25l1.75,1.14,1.43,1.21,1.13,1.23.88,1.27L81.71,31l.17,1.21-.1,1.34,1,.74.83.64.66.74.59.79.53.91.41,1,.19,1,0,.74v.83l-.11.78-.3.93-.59,1,.7.48.66.73.53.78.42.73.17.61.13,1.47-.24,1.44-.59,1.41L86,52.57l-1,1.27-1.18,1.21-1.17,1-1.48,1-1.72,1-1.84,1-2,.84-2,.84-2,.67-2,.61-5,1.16-4.73,1-4.5.77-4.22.74-4,.67L43.65,67l1.43.36,1.59.35,1.84.3,2,.32,2.25.24,2.54.17,2.91.07,2.6-.07,2.62-.23,2.48-.31,2.48-.43,2.31-.47L73,66.69l2.12-.61,2-.67,1.85-.6,1.66-.67,1.48-.6L83.36,63l1.12-.48.9-.43.66-.37.34-.17.19-.06-.07.17-.17.43-.19.54-.17.6-2.31,1.34-2.48,1.15-2.55,1.1-2.73,1-2.66.84-2.73.73L67.86,70l-2.61.49-2.48.41-2.38.26-2.12.17-2,.13-1.62-.06-3.83-.24-3.68-.43-3.42-.6-3.38-.8-3.25-.91-2.48.73-2.44,1,3,1.27,2.84,1.08,2.8.86,2.58.61,2.61.54,2.55.36,2.61.24,2.6.26,2.3.11,2.5-.07,2.78-.17,2.9-.3,3-.43,3.15-.61,3.14-.67,3.17-.84,3.15-.91L83,70.33l-.4.54-.36.63-.43.47-1.53.8-1.78.71-2,.74-2.07.67-2.19.67-2.18.54-2.19.54-2.14.43-2,.36-1.82.24-1.6.13-3.42.07-3.57-.07-3.67-.19L46,77.26l-3.55-.56L39.56,76l-2.71-.84-2.61-.91-2.55-1-2.54-1.16-.66.67-.4.73-.24.8,4.5,2.24,4.5,1.75,4.43,1.4,4.39,1,4.43.61,4.5.24L59,81.49,63.59,81l4.63-.74,4.6-1.1,4.8-1.38L76,79.38,71.89,81l-4,1.21-3.86,1-3.72.61-3.61.43-3.42.13-3.4-.13-3.24-.31-3.14-.54-3-.66-2.91-.87-2.78-1-2.67-1.08-2.55-1.21-.63-.3-.53-.32.34.56.65.67.9.78,1.12.86,1.29.9,1.55,1,1.66.9,1.82.91,2,.84,2.05.73,2.18.61,2.25.5,2.27.3,2.65.11h2.78l2.74-.18,2.78-.3,2.59-.43,2.54-.54,2.32-.61,2-.73-3,1.51-1,.5-1.25.54-1.46.54-1.78.56L58.44,89l-2.25.43-2.48.3L51,89.8l-2.95-.11-2.84-.3L42.53,89l-2.44-.61-2.31-.73-2-.84-1.91-.86-1.72-1L30.7,84l-1.38-.91-1.13-.91-1-.84-.83-.8-1-1-.63-1.15-.55-1.2-.34-1.34L22,74.69l-1.53-1.14-1.29-1.4L18,70.64l-.4-1-.17-1v-1l.1-1,.37-1.17-1-.71L16,64l-.79-.8-.53-.78-.4-1-.19-1v-1l.23-.9.36-.78.36-.81L14.41,56l-.6-.8-.4-.85-.23-1-.07-1v-1l.3-1.31.53-1.34.76-1.23.83-1.08L16.78,45l1.42-1.21,1.66-1.17,1.89-1.07,2.24-1,2.51-1.1,2.82-1,2.2-.66,1.89-.61,1.72-.49,1.53-.44,1.48-.34,1.42-.3,1.49-.3,1.53-.37,1.67-.36L46.9,34l2.78-.5L52.52,33l2.84-.5,2.85-.54L61,31.27l2.67-.84-4.2-.61-4.33-.42-4.26-.13-4.27.13-4.2.36-4.2.67-4.09.9L30,32.54l-4,1.51-3.9,1.78-3.8,2.05L14.7,40.31Z" style="fill: #004080;fill-rule: evenodd"/>
    <path d="M82.41,46.38l-1.23,1-1.55,1.08-1.82,1-2,1-2.37.93-2.62.84L67.86,53l-4.1,1-3.83.9-3.74.73-3.54.68-3.43.53-3.38.61-3.38.6-3.36.74-3.5.8-3.08.9-3,1.08,3,1.47,3.2,1.34L37.21,64l1.36-.37,1.29-.37,1.35-.36,1.43-.31,1.54-.3L46,61.9l2.14-.35.94-.19,1.25-.24,1.48-.24,1.72-.3,1.82-.37,1.89-.37,2-.36,1.89-.43,1.79-.37,1.82-.41,1.84-.43,2-.54,1.89-.54,1.89-.67,1.85-.67,1.76-.74L77.57,54,79,53.11l1.29-.84,1.07-.86.82-1,.59-1,.24-1-.11-1.08ZM76.32,34.25l-2.14-.9-2.42-.87-2.61-.78-1.23.91-1.48.9-1.78.81,2.31.47,2.14.61,2.06.67,2.07.6h.24l.42-.18.4-.36.53-.37.5-.43.46-.47.36-.37Zm-46,12.86,5.33-1.4,5.32-1.21,5.45-1.1,5.45-1,5.56-1,5.56-1.23,5.57-1.38-2.07-.56-1.85-.41-1.76-.37-1.72-.19-1.78-.11-1.95.06-2.18.24-4.73.67-4.92.78-4.87,1L36,41.05,31.4,42.32l-.66.18-.83.3-1,.3-1.18.43-1.23.41-1.38.56-1.3.61-1.35.6-1.32.73L20,47.16,19,48l-.89.91-.64.9-.42.91-.13,1,.25,1,.53,1,.11-.06.19-.24.4-.37.6-.54.76-.62,1.08-.71,1.3-.74,1.54-.84,1.89-.87L27.73,48ZM21.81,68.39l.13.8.34.84.72.84.95.93.23-.56.3-.54.4-.6-1.59-.85Zm5.75-.6L29.08,67l1.79-.8L28.19,65l-2.65-1.27-1.19.78-1,.86,2.08,1.27ZM74.77,41.05l-1.59.71-1.89.74L69,43.23l-2.48.71-2.9.8-1.42.37-1.78.36-2,.37-2.31.41-2.59.49-2.73.48-2.89.57-3.08.6-3.2.67-3.27.64L37.21,50l-1.49.34-1.78.5-1.82.54-2,.67-2,.73-2,.84-1.84.91-1.76,1.09L21,56.8l.89.67.77.5.89.4.95.57,1.23-.73,1.42-.74,1.61-.71,1.89-.67,2.19-.67,3.2-.8,3-.73,2.9-.6,2.85-.48,2.84-.49,3-.48,1.88-.3,2.25-.43,2.38-.48,2.54-.56,2.56-.61,2.6-.6,2.54-.67,2.42-.67L72,46.85l2-.66,2-.85,1.79-1,1.53-1-.24-.23-.47-.3-.6-.3-.72-.38-.69-.36-.72-.3-.53-.24L75,41.05Zm3.63-2.31,1.16.6,1.13.6,1.12.67.3-.86V39l-.23-.74-.6-.73-.76-.78-1,1.1ZM21.21,61.49l-1-.57-.89-.54-.89-.6-.13.67.13.67.36.6.53.54.53.43.7-.6ZM73.48,26.72l-.24.67-.47.67-.54.67-.47.54,2.78.86,2.73,1-.36-1-.59-1-.89-.91-1-.83ZM15.72,37.46l2.42-1.57,2.48-1.47,2.48-1.37,2.61-1.3,2.74-1.15,2.78-1,2.84-.91,3-.74,3.14-.6,3.31-.47L47,26.61l3.54-.13,3.79.13,4,.24,4.2.47,4.38.74.88-.6.72-.68L69,26l.37-1.05-3.09-1-3.2-.73-3.31-.54-3.56-.37-3.77-.17h-4.1l-2.18.11-2.49.25L41,22.77l-2.78.5-2.84.6-2.84.73-2.84.78-2.78.93-2.61,1-2.35,1.1-2.15,1.21L22,26.72l1.61-.85,1.95-.9,2.25-.91,2.48-.86,2.67-.84,2.85-.8,3-.67,3-.61,2.95-.46,2.91-.31,2.78-.13,2-.07,1.89.07,1.78.07,1.66.13,1.71.17,1.72.23,1.83.38,1.94.43,2.15.54,2.35.6-.57-.78L68,20.48l-1-.6-1.19-.63-1.42-.64-2.18-.87L59.8,17l-2.66-.54L54.3,16.1l-3-.24H48.22L45,16l-3.28.36-3.3.56-3.25.84L32,18.85l-3.14,1.27,1.55-1.05,1.65-1,1.89-1,1.89-.78,2.2-.8,2.49-.73,2.78-.54,3-.48,3.26-.25,3.48-.07,2.25.13,2.31.3,2.38.5,2.31.6,2.25.84,2.24,1L68.85,18l1.91,1.34L72.48,21l.7,1,.47,1,.3.84L76.09,25l1.75,1.14,1.43,1.21,1.13,1.23.88,1.27L81.71,31l.17,1.21-.1,1.34,1,.74.83.64.66.74.59.79.53.91.41,1,.19,1,0,.74v.83l-.11.78-.3.93-.59,1,.7.48.66.73.53.78.42.73.17.61.13,1.47-.24,1.44-.59,1.41L86,52.57l-1,1.27-1.18,1.21-1.17,1-1.48,1-1.72,1-1.84,1-2,.84-2,.84-2,.67-2,.61-5,1.16-4.73,1-4.5.77-4.22.74-4,.67L43.65,67l1.43.36,1.59.35,1.84.3,2,.32,2.25.24,2.54.17,2.91.07,2.6-.07,2.62-.23,2.48-.31,2.48-.43,2.31-.47L73,66.69l2.12-.61,2-.67,1.85-.6,1.66-.67,1.48-.6L83.36,63l1.12-.48.9-.43.66-.37.34-.17.19-.06-.07.17-.17.43-.19.54-.17.6-2.31,1.34-2.48,1.15-2.55,1.1-2.73,1-2.66.84-2.73.73L67.86,70l-2.61.49-2.48.41-2.38.26-2.12.17-2,.13-1.62-.06-3.83-.24-3.68-.43-3.42-.6-3.38-.8-3.25-.91-2.48.73-2.44,1,3,1.27,2.84,1.08,2.8.86,2.58.61,2.61.54,2.55.36,2.61.24,2.6.26,2.3.11,2.5-.07,2.78-.17,2.9-.3,3-.43,3.15-.61,3.14-.67,3.17-.84,3.15-.91L83,70.33l-.4.54-.36.63-.43.47-1.53.8-1.78.71-2,.74-2.07.67-2.19.67-2.18.54-2.19.54-2.14.43-2,.36-1.82.24-1.6.13-3.42.07-3.57-.07-3.67-.19L46,77.26l-3.55-.56L39.56,76l-2.71-.84-2.61-.91-2.55-1-2.54-1.16-.66.67-.4.73-.24.8,4.5,2.24,4.5,1.75,4.43,1.4,4.39,1,4.43.61,4.5.24L59,81.49,63.59,81l4.63-.74,4.6-1.1,4.8-1.38L76,79.38,71.89,81l-4,1.21-3.86,1-3.72.61-3.61.43-3.42.13-3.4-.13-3.24-.31-3.14-.54-3-.66-2.91-.87-2.78-1-2.67-1.08-2.55-1.21-.63-.3-.53-.32.34.56.65.67.9.78,1.12.86,1.29.9,1.55,1,1.66.9,1.82.91,2,.84,2.05.73,2.18.61,2.25.5,2.27.3,2.65.11h2.78l2.74-.18,2.78-.3,2.59-.43,2.54-.54,2.32-.61,2-.73-3,1.51-1,.5-1.25.54-1.46.54-1.78.56L58.44,89l-2.25.43-2.48.3L51,89.8l-2.95-.11-2.84-.3L42.53,89l-2.44-.61-2.31-.73-2-.84-1.91-.86-1.72-1L30.7,84l-1.38-.91-1.13-.91-1-.84-.83-.8-1-1-.63-1.15-.55-1.2-.34-1.34L22,74.69l-1.53-1.14-1.29-1.4L18,70.64l-.4-1-.17-1v-1l.1-1,.37-1.17-1-.71L16,64l-.79-.8-.53-.78-.4-1-.19-1v-1l.23-.9.36-.78.36-.81L14.41,56l-.6-.8-.4-.85-.23-1-.07-1v-1l.3-1.31.53-1.34.76-1.23.83-1.08L16.78,45l1.42-1.21,1.66-1.17,1.89-1.07,2.24-1,2.51-1.1,2.82-1,2.2-.66,1.89-.61,1.72-.49,1.53-.44,1.48-.34,1.42-.3,1.49-.3,1.53-.37,1.67-.36L46.9,34l2.78-.5L52.52,33l2.84-.5,2.85-.54L61,31.27l2.67-.84-4.2-.61-4.33-.42-4.26-.13-4.27.13-4.2.36-4.2.67-4.09.9L30,32.54l-4,1.51-3.9,1.78-3.8,2.05L14.7,40.31Z" style="fill: none;stroke: #004080;stroke-linejoin: round;stroke-width: 0.051070053130388px"/>
    <path d="M165.09,42l2.14,15h-4.17ZM148.82,76.35H160l1.21-8.57h7.69l1.37,8.57h11L172,27.15H158.21Z" style="fill: #004080"/>
    <path d="M165.09,42l2.14,15h-4.17ZM148.82,76.35H160l1.21-8.57h7.69l1.37,8.57h11L172,27.15H158.21Z" style="fill: none;stroke: #004080;stroke-linejoin: round;stroke-width: 0.051070053130388px"/>
    <polygon points="191.83 46.13 192.76 46.13 193.65 45.88 194.54 45.43 195.47 44.73 196.24 43.94 196.69 42.79 196.93 41.39 196.69 39.87 196.24 38.84 195.68 38.02 194.91 37.44 194.1 37.11 193.33 36.86 192.64 36.74 192.08 36.74 190.5 36.86 188.35 37.32 186.09 38.14 185.97 27.52 188.6 26.94 190.94 26.45 193.21 26.32 195.47 26.24 198.31 26.45 200.78 27.15 202.8 28.18 204.62 29.58 206.08 31.22 207.09 32.95 207.9 35.01 208.34 36.99 208.46 39.17 208.34 41.72 207.78 43.94 206.89 45.8 205.75 47.4 204.5 48.8 203.12 49.83 201.67 50.66 201.67 51.11 202.92 51.56 204.26 52.26 205.51 53.29 206.64 54.57 207.66 56.09 208.46 58.07 209.03 60.25 209.23 62.93 209.03 65.81 208.34 68.48 207.33 70.79 205.96 72.77 204.26 74.37 202.23 75.65 200.09 76.55 197.62 77.13 195.03 77.25 192.08 77.13 189.49 76.68 187.1 75.98 184.75 74.7 184.83 64.53 186.98 65.36 188.92 65.81 190.62 66.06 192.2 66.06 193.78 65.81 195.03 65.23 195.92 64.41 196.61 63.5 196.93 62.35 197.05 61.28 196.93 60 196.49 58.85 195.8 57.94 194.67 57.24 193.33 56.87 191.63 56.67 187.22 56.67 187.22 46.13 191.83 46.13" style="fill: #004080"/>
    <polygon points="191.83 46.13 192.76 46.13 193.65 45.88 194.54 45.43 195.47 44.73 196.24 43.94 196.69 42.79 196.93 41.39 196.69 39.87 196.24 38.84 195.68 38.02 194.91 37.44 194.1 37.11 193.33 36.86 192.64 36.74 192.08 36.74 190.5 36.86 188.35 37.32 186.09 38.14 185.97 27.52 188.6 26.94 190.94 26.45 193.21 26.32 195.47 26.24 198.31 26.45 200.78 27.15 202.8 28.18 204.62 29.58 206.08 31.22 207.09 32.95 207.9 35.01 208.34 36.99 208.46 39.17 208.34 41.72 207.78 43.94 206.89 45.8 205.75 47.4 204.5 48.8 203.12 49.83 201.67 50.66 201.67 51.11 202.92 51.56 204.26 52.26 205.51 53.29 206.64 54.57 207.66 56.09 208.46 58.07 209.03 60.25 209.23 62.93 209.03 65.81 208.34 68.48 207.33 70.79 205.96 72.77 204.26 74.37 202.23 75.65 200.09 76.55 197.62 77.13 195.03 77.25 192.08 77.13 189.49 76.68 187.1 75.98 184.75 74.7 184.83 64.53 186.98 65.36 188.92 65.81 190.62 66.06 192.2 66.06 193.78 65.81 195.03 65.23 195.92 64.41 196.61 63.5 196.93 62.35 197.05 61.28 196.93 60 196.49 58.85 195.8 57.94 194.67 57.24 193.33 56.87 191.63 56.67 187.22 56.67 187.22 46.13 191.83 46.13" style="fill: none;stroke: #004080;stroke-linejoin: round;stroke-width: 0.051070053130388px"/>
    <polygon points="214.33 27.15 244.24 27.15 244.24 76.35 233.31 76.35 233.31 38.96 225.26 38.96 225.26 76.35 214.33 76.35 214.33 27.15" style="fill: #004080"/>
    <polygon points="214.33 27.15 244.24 27.15 244.24 76.35 233.31 76.35 233.31 38.96 225.26 38.96 225.26 76.35 214.33 76.35 214.33 27.15" style="fill: none;stroke: #004080;stroke-linejoin: round;stroke-width: 0.051070053130388px"/>
    <path d="M261.39,37.93H264l1.14.09,1,.49.81.66.68,1.19.33,1.36.12,1.86L268,45.3l-.33,1.4-.44,1-.57.7-.68.5-.69.2-.69.13h-3.16ZM250.47,76.35h10.92V60.13h3.73l2.71-.21,2.51-.7,2-1.07,1.82-1.36,1.46-1.65,1.13-1.85,1-1.93.69-2.1.45-2,.2-2,.12-1.85-.12-1.85-.2-1.81-.57-2-.69-2.1-1-1.85L275.39,32l-1.45-1.61-1.82-1.28-2-1-2.34-.7-2.63-.24H250.47Z" style="fill: #004080"/>
    <path d="M261.39,37.93H264l1.14.09,1,.49.81.66.68,1.19.33,1.36.12,1.86L268,45.3l-.33,1.4-.44,1-.57.7-.68.5-.69.2-.69.13h-3.16ZM250.47,76.35h10.92V60.13h3.73l2.71-.21,2.51-.7,2-1.07,1.82-1.36,1.46-1.65,1.13-1.85,1-1.93.69-2.1.45-2,.2-2,.12-1.85-.12-1.85-.2-1.81-.57-2-.69-2.1-1-1.85L275.39,32l-1.45-1.61-1.82-1.28-2-1-2.34-.7-2.63-.24H250.47Z" style="fill: none;stroke: #004080;stroke-linejoin: round;stroke-width: 0.051070053130388px"/>
    <path d="M299.55,65l-1.57-.2-1.22-1-1.13-1.4-.81-1.85-.7-2.51-.31-2.93-.12-3.45.12-3.46.31-3,.7-2.43.81-2,1.13-1.4,1.22-.83,1.57-.33,1.5.33,1.34.83,1.12,1.4.81,2,.57,2.43.44,3,.14,3.46-.14,3.45-.44,2.93-.57,2.51-.81,1.85-1.12,1.4-1.34,1Zm0,11.94,3.08-.24,2.7-.83,2.36-1.15,2.15-1.48,1.82-2,1.46-2.18,1.24-2.55.89-2.68.81-2.88.45-3,.32-3.12.13-3.13-.13-3.13-.32-3.13-.45-3-.81-2.88-.89-2.8-1.24-2.43L311.66,32l-1.82-1.86-2.15-1.6-2.36-1.16-2.7-.7-3.08-.37-3,.37-2.71.7-2.47,1.16-2,1.6L287.49,32,286,34.31l-1.26,2.43-1,2.8-.69,2.88-.44,3-.33,3.13-.12,3.13.12,3.13.33,3.12.44,3,.69,2.88,1,2.68L286,69.06l1.45,2.18,1.82,2,2,1.48,2.47,1.15,2.71.83Z" style="fill: #004080"/>
    <path d="M299.55,65l-1.57-.2-1.22-1-1.13-1.4-.81-1.85-.7-2.51-.31-2.93-.12-3.45.12-3.46.31-3,.7-2.43.81-2,1.13-1.4,1.22-.83,1.57-.33,1.5.33,1.34.83,1.12,1.4.81,2,.57,2.43.44,3,.14,3.46-.14,3.45-.44,2.93-.57,2.51-.81,1.85-1.12,1.4-1.34,1Zm0,11.94,3.08-.24,2.7-.83,2.36-1.15,2.15-1.48,1.82-2,1.46-2.18,1.24-2.55.89-2.68.81-2.88.45-3,.32-3.12.13-3.13-.13-3.13-.32-3.13-.45-3-.81-2.88-.89-2.8-1.24-2.43L311.66,32l-1.82-1.86-2.15-1.6-2.36-1.16-2.7-.7-3.08-.37-3,.37-2.71.7-2.47,1.16-2,1.6L287.49,32,286,34.31l-1.26,2.43-1,2.8-.69,2.88-.44,3-.33,3.13-.12,3.13.12,3.13.33,3.12.44,3,.69,2.88,1,2.68L286,69.06l1.45,2.18,1.82,2,2,1.48,2.47,1.15,2.71.83Z" style="fill: none;stroke: #004080;stroke-linejoin: round;stroke-width: 0.051070053130388px"/>
    <path d="M375.35,66.51V55.27h2.13l.65.12.81.25.81.33.78.57.56,1,.45,1.24.12,1.64-.12,1.86-.45,1.4-.56,1-.78.7-.81.58-.81.33-.65.12-.56.13Zm-10.73,9.84h13.87l1-.13,1.24-.24,1.46-.33,1.46-.58,1.59-.7,1.57-1,1.49-1.27,1.23-1.65,1.12-1.94.93-2.34.53-2.76.25-3.13-.25-3-.45-2.55-.89-2.1-1-1.81-1.38-1.52-1.32-1.16-1.59-.94-1.69-.66L382.1,46l-1.7-.32-1.57-.25h-3.48V39h14.44V27.15H364.62Z" style="fill: #004080"/>
    <path d="M375.35,66.51V55.27h2.13l.65.12.81.25.81.33.78.57.56,1,.45,1.24.12,1.64-.12,1.86-.45,1.4-.56,1-.78.7-.81.58-.81.33-.65.12-.56.13Zm-10.73,9.84h13.87l1-.13,1.24-.24,1.46-.33,1.46-.58,1.59-.7,1.57-1,1.49-1.27,1.23-1.65,1.12-1.94.93-2.34.53-2.76.25-3.13-.25-3-.45-2.55-.89-2.1-1-1.81-1.38-1.52-1.32-1.16-1.59-.94-1.69-.66L382.1,46l-1.7-.32-1.57-.25h-3.48V39h14.44V27.15H364.62Z" style="fill: none;stroke: #004080;stroke-linejoin: round;stroke-width: 0.051070053130388px"/>
    <polygon points="431.8 27.15 442.51 27.15 442.51 44.85 450.08 44.85 450.08 27.15 460.81 27.15 460.81 76.35 450.08 76.35 450.08 56.67 442.51 56.67 442.51 76.35 431.8 76.35 431.8 27.15" style="fill: #004080"/>
    <polygon points="431.8 27.15 442.51 27.15 442.51 44.85 450.08 44.85 450.08 27.15 460.81 27.15 460.81 76.35 450.08 76.35 450.08 56.67 442.51 56.67 442.51 76.35 431.8 76.35 431.8 27.15" style="fill: none;stroke: #004080;stroke-linejoin: round;stroke-width: 0.051070053130388px"/>
    <polygon points="468.05 27.15 478.78 27.15 478.78 44.85 481 44.85 487.24 27.15 498.85 27.15 490.52 50.41 499.97 76.35 487.47 76.35 481.25 56.54 478.78 56.54 478.78 76.35 468.05 76.35 468.05 27.15" style="fill: #004080"/>
    <polygon points="468.05 27.15 478.78 27.15 478.78 44.85 481 44.85 487.24 27.15 498.85 27.15 490.52 50.41 499.97 76.35 487.47 76.35 481.25 56.54 478.78 56.54 478.78 76.35 468.05 76.35 468.05 27.15" style="fill: none;stroke: #004080;stroke-linejoin: round;stroke-width: 0.051070053130388px"/>
    <polygon points="127.61 27.15 150.07 27.15 150.07 39.42 138.78 39.42 138.78 76.35 127.61 76.35 127.61 27.15" style="fill: #004080"/>
    <polygon points="127.61 27.15 150.07 27.15 150.07 39.42 138.78 39.42 138.78 76.35 127.61 76.35 127.61 27.15" style="fill: none;stroke: #004080;stroke-linejoin: round;stroke-width: 0.051070053130388px"/>
    <polygon points="322.13 27.15 331.4 27.15 339.66 38.72 347.91 27.15 357.13 27.15 357.13 76.35 346.33 76.35 346.33 46.37 339.66 54.94 333.11 46.37 333.11 76.35 322.13 76.35 322.13 27.15" style="fill: #004080"/>
    <polygon points="322.13 27.15 331.4 27.15 339.66 38.72 347.91 27.15 357.13 27.15 357.13 76.35 346.33 76.35 346.33 46.37 339.66 54.94 333.11 46.37 333.11 76.35 322.13 76.35 322.13 27.15" style="fill: none;stroke: #004080;stroke-linejoin: round;stroke-width: 0.051070053130388px"/>
    <path d="M410.79,42.09l2,15h-4.06ZM394.52,76.47h11.1l1.32-8.56h7.7L416,76.47h11.09l-9.39-49.32H403.91Z" style="fill: #004080"/>
    <path d="M410.79,42.09l2,15h-4.06ZM394.52,76.47h11.1l1.32-8.56h7.7L416,76.47h11.09l-9.39-49.32H403.91Z" style="fill: none;stroke: #004080;stroke-linejoin: round;stroke-width: 0.051070053130388px"/>
  </g>
</svg>
