<svg id="Layer_1" data-name="Layer 1" xmlns="http://www.w3.org/2000/svg" width="500" height="147.97" viewBox="0 0 500 147.97">
  <title>Alfa-Bank-horizontal</title>
  <path d="M47.5,0C57.58,0,60.74,7.22,63.39,14.44c1.12,3.06,27.29,74.72,28.07,76.87a1.5,1.5,0,0,1-.84,1.93c-.93.36-14.53,5.65-15.28,5.93a1.49,1.49,0,0,1-1.88-.88c-.28-.75-5.91-16.37-6.55-18.12H28.14l-6.6,18.12a1.45,1.45,0,0,1-1.87.88L4.41,93.24a1.52,1.52,0,0,1-.87-1.93c1-2.69,26.74-73.2,28.06-76.87C34.15,7.33,37.43,0,47.5,0Zm-46,128.22A1.49,1.49,0,0,0,0,129.73v16.74A1.49,1.49,0,0,0,1.47,148H93.53a1.48,1.48,0,0,0,1.46-1.5V129.73a1.49,1.49,0,0,0-1.46-1.51H1.47m46-104.82L34.31,62.77H60.74L47.59,23.4ZM390,81.18c0,4.45-2.47,7.38-7,7.38a18.47,18.47,0,0,1-5.61-.63V74.44a28.2,28.2,0,0,1,5.61-.41C387.56,74.2,390,76.36,390,81.18Zm9.32-.67c0-8.26-4.84-14-15-14a26.77,26.77,0,0,0-6.93.88l0-11.89a59.55,59.55,0,0,1,7.7-.45,87.48,87.48,0,0,1,10.11.57l.23-6.89a69,69,0,0,0-13.51-1.37A66,66,0,0,0,368,49.3v44a41.26,41.26,0,0,0,14.4,2.58C393.52,95.83,399.27,90,399.27,80.51ZM293.52,78.12c0,6.13-2.44,10.08-6.46,10.08a11.8,11.8,0,0,1-4.49-.71V69.08a9.38,9.38,0,0,1,4.91-1c4,0,6,3.33,6,10m-30.63.2c0-6.69,2-10.23,6-10.23a9.38,9.38,0,0,1,4.91,1V87.49a11.77,11.77,0,0,1-4.49.71c-4.58,0-6.46-3.74-6.46-9.88m19.68,27.59v-12a13.68,13.68,0,0,0,7.06,1.62c7.42,0,12.88-6.16,12.88-17.43,0-12.14-5.43-17.34-14.36-17.34a11.56,11.56,0,0,0-5.58,1.11V47.58h-8.73V61.89a11.56,11.56,0,0,0-5.58-1.11c-8.93,0-14.37,5.41-14.37,17.54,0,11.28,4.92,17.23,12.88,17.23a13.69,13.69,0,0,0,7.07-1.62v12h8.73M216.26,95V62.86a43.13,43.13,0,0,0-13.33-2.06,42.58,42.58,0,0,0-13.25,2.06V79.31c0,4.47-.08,5.81-.56,7.26a7.58,7.58,0,0,1-2.9,4l2.38,5.13c7-2,9.69-5,9.69-14.78V68.78a24.25,24.25,0,0,1,4.64-.42,23.58,23.58,0,0,1,4.57.42V95Zm107.94-7a13,13,0,0,1-4.72.82c-3.13,0-4.91-1.24-4.91-4.45s2.24-4.48,6.59-4.48a9.43,9.43,0,0,1,2.59.33v2.4A20.66,20.66,0,0,0,324.2,87.94Zm11.13,3.85c-2.31-3.52-2.91-5.6-2.91-10v-9c0-4.85-.56-6.63-1.85-8.41-1.77-2.5-4.74-3.58-10.21-3.58a45.76,45.76,0,0,0-11.27,1.34l1.3,6.44a54.27,54.27,0,0,1,6.89-.64c5.8,0,6.47.84,6.47,5.19v1.63a16.71,16.71,0,0,0-4.43-.6c-8.77,0-13.38,4.27-13.38,11.33,0,6.63,4.92,10.25,11,10.25a17.76,17.76,0,0,0,6.43-1.17,17.32,17.32,0,0,0,3.05-1.72,9.09,9.09,0,0,0,3.33,2.81Zm85.54-3.85a13,13,0,0,1-4.72.82c-3.14,0-4.91-1.24-4.91-4.45s2.25-4.48,6.59-4.48a9.12,9.12,0,0,1,2.58.33v2.4A21,21,0,0,0,420.87,87.94ZM432,91.79c-2.33-3.52-2.93-5.6-2.93-10v-9c0-4.85-.55-6.63-1.83-8.41-1.79-2.5-4.75-3.58-10.22-3.58a45.76,45.76,0,0,0-11.27,1.34l1.3,6.44a54.27,54.27,0,0,1,6.89-.64c5.79,0,6.46.84,6.46,5.19v1.63a16.57,16.57,0,0,0-4.42-.6c-8.76,0-13.38,4.27-13.38,11.33,0,6.63,4.93,10.25,11,10.25A17.76,17.76,0,0,0,420,94.57a17,17,0,0,0,3.05-1.72,9,9,0,0,0,3.34,2.81ZM241.17,83.44c0,3.29-1.16,5.55-5.37,5.55a10.85,10.85,0,0,1-3.83-.52V78.86a15,15,0,0,1,3.83-.52C239.83,78.34,241.17,80.29,241.17,83.44Zm-18-22.1,0,31.89A33.56,33.56,0,0,0,236,95.77c9.3,0,14.28-4.81,14.28-12.73,0-7.18-4.4-11.61-12.64-11.61a20.93,20.93,0,0,0-5.62.82V61.34ZM464,95V61.64h-8.76V74.25h-9.92V61.64H436.6V95h8.75V81.37h9.92V95Zm36,0s-4.78-10.2-5.95-12.51c-1.32-2.61-2.54-4.42-5.24-5.06v-.16c1.81-.34,3.25-1.43,4.8-4.77s1.95-4,2.82-4.72a2.42,2.42,0,0,1,2-.49l.44-6.07a22.67,22.67,0,0,0-4.07-.09,6.46,6.46,0,0,0-4.77,2,14.07,14.07,0,0,0-2.3,3.82c-.83,1.68-1.47,3-2.3,4.76s-1.25,2.54-3.52,2.54h-1.47V61.64h-8.8V95h8.8V81.36l1.19,0c2.51,0,2.93.62,4.26,3.26C487.5,87.76,490.45,95,490.45,95ZM173.39,95h10.1l-15.25-46.6a18.32,18.32,0,0,0-5.72-.88,13,13,0,0,0-5,.88L141.4,95h9.67s1.29-4.08,2.88-9.15h16.72Zm-17-17s2.79-9.34,3.21-10.8c1.13-3.8,2.82-9.78,2.82-9.78h.27s1.56,6.2,2.57,9.73c.4,1.37,3.06,10.85,3.06,10.85Zm193.81-5.31a5.6,5.6,0,1,0,5.59,5.59A5.6,5.6,0,0,0,350.22,72.71Z" style="fill: #e52713"/>
</svg>
