<?xml version="1.0" encoding="UTF-8"?>
<!DOCTYPE svg PUBLIC "-//W3C//DTD SVG 1.1//EN" "http://www.w3.org/Graphics/SVG/1.1/DTD/svg11.dtd">
<!-- Creator: CorelDRAW 2019 (64-Bit) -->
<svg xmlns="http://www.w3.org/2000/svg" xml:space="preserve"  version="1.1" style="shape-rendering:geometricPrecision; text-rendering:geometricPrecision; image-rendering:optimizeQuality; fill-rule:evenodd; clip-rule:evenodd"
viewBox="0 0 1000 600"
 xmlns:xlink="http://www.w3.org/1999/xlink">
 <defs>
  <style type="text/css">
   <![CDATA[
    .str1 {stroke:#2B2A29;stroke-miterlimit:22.9256}
    .str2 {stroke:#2B2A29;stroke-width:2;stroke-miterlimit:22.9256}
    .str0 {stroke:#2B2A29;stroke-width:3;stroke-miterlimit:22.9256}
    .fil0 {fill:none}
    .fil1 {fill:black;fill-rule:nonzero}
   ]]>
  </style>
 </defs>
 <g id="Слой_x0020_1">
  <metadata id="CorelCorpID_0Corel-Layer"/>
  <g id="секция_x0020_1">
   <g id="Контур_x0020_квартир">
    <line class="fil0 str0" x1="144" y1="80.76" x2="418.84" y2= "80.76" />
    <line class="fil0 str0" x1="144" y1="520.51" x2="858.58" y2= "520.51" />
    <line class="fil0 str0" x1="144" y1="80.76" x2="144" y2= "520.51" />
    <line class="fil0 str0" x1="858.58" y1="80.76" x2="858.58" y2= "520.51" />
    <line class="fil0 str0" x1="748.64" y1="520.51" x2="748.64" y2= "575.47" />
    <line class="fil0 str0" x1="528.78" y1="520.51" x2="528.78" y2= "575.47" />
    <line class="fil0 str0" x1="363.87" y1="520.51" x2="363.87" y2= "575.47" />
    <line class="fil0 str0" x1="583.75" y1="300.63" x2="748.64" y2= "300.63" />
    <line class="fil0 str0" x1="363.87" y1="520.51" x2="363.87" y2= "300.63" />
    <line class="fil0 str0" x1="748.64" y1="25.8" x2="748.64" y2= "80.76" />
    <line class="fil0 str0" x1="418.84" y1="25.8" x2="583.75" y2= "25.8" />
    <line class="fil0 str0" x1="418.84" y1="25.8" x2="418.84" y2= "80.76" />
    <line class="fil0 str0" x1="253.93" y1="25.8" x2="253.93" y2= "80.76" />
    <line class="fil0 str0" x1="583.75" y1="80.76" x2="858.58" y2= "80.76" />
    <line class="fil0 str0" x1="418.84" y1="80.76" x2="418.84" y2= "262.16" />
    <line class="fil0 str0" x1="583.75" y1="25.8" x2="583.75" y2= "262.16" />
    <line class="fil0 str0" x1="748.64" y1="520.51" x2="748.64" y2= "300.63" />
    <line class="fil0 str0" x1="528.78" y1="520.51" x2="528.78" y2= "300.63" />
    <line class="fil0 str0" x1="418.84" y1="295.13" x2="418.84" y2= "300.63" />
    <line class="fil0 str0" x1="363.87" y1="300.63" x2="418.84" y2= "300.63" />
    <line class="fil0 str0" x1="418.84" y1="300.63" x2="424.33" y2= "300.63" />
    <line class="fil0 str0" x1="457.31" y1="300.63" x2="528.78" y2= "300.63" />
    <line class="fil0 str0" x1="583.75" y1="295.13" x2="583.75" y2= "300.63" />
    <line class="fil0 str0" x1="583.75" y1="300.63" x2="578.24" y2= "300.63" />
    <line class="fil0 str0" x1="528.78" y1="300.63" x2="545.27" y2= "300.63" />
   </g>
   <g id="сантехника">
    <g id="стояк">
     <rect class="fil0 str1" x="145.44" y="247.3" width="11.78" height="37.71"/>
     <rect class="fil0 str1" x="146.12" y="248.08" width="10.4" height="7.13"/>
     <rect class="fil0 str1" x="146.1" y="277.15" width="10.4" height="7.13"/>
     <rect class="fil0 str1" x="146.12" y="256.62" width="10.36" height="19.36"/>
    </g>
    <g id="стояк_0">
     <rect class="fil0 str1" x="255.3" y="301.79" width="11.78" height="37.71"/>
     <rect class="fil0 str1" x="255.99" y="302.57" width="10.4" height="7.13"/>
     <rect class="fil0 str1" x="255.96" y="331.65" width="10.4" height="7.13"/>
     <rect class="fil0 str1" x="255.99" y="311.11" width="10.36" height="19.36"/>
    </g>
    <g id="стояк_1">
     <rect class="fil0 str1" x="735.37" y="302.66" width="11.78" height="37.71"/>
     <rect class="fil0 str1" x="736.05" y="303.44" width="10.4" height="7.13"/>
     <rect class="fil0 str1" x="736.03" y="332.51" width="10.4" height="7.13"/>
     <rect class="fil0 str1" x="736.05" y="311.97" width="10.36" height="19.36"/>
    </g>
    <g id="стояк_2">
     <rect class="fil0 str1" x="845.22" y="247.3" width="11.78" height="37.71"/>
     <rect class="fil0 str1" x="845.9" y="248.08" width="10.4" height="7.13"/>
     <rect class="fil0 str1" x="845.88" y="277.15" width="10.4" height="7.13"/>
     <rect class="fil0 str1" x="845.9" y="256.62" width="10.36" height="19.36"/>
    </g>
    <g id="унитаз">
     <path class="fil0 str1" d="M829.91 283.51c0,3.83 -1.53,7.16 -3.8,8.9l0.33 0c1.58,0 2.86,1.29 2.86,2.85l0 1.28c0,1.58 -1.28,2.86 -2.86,2.86l-7.77 0c-1.57,0 -2.86,-1.28 -2.86,-2.86l0 -1.28c0,-1.56 1.29,-2.85 2.86,-2.85l0.33 0c-2.27,-1.74 -3.79,-5.07 -3.79,-8.9 0,-5.61 3.29,-10.16 7.35,-10.16 4.06,0 7.34,4.55 7.34,10.16l0.01 0 0 0z"/>
     <circle class="fil0 str1" transform="matrix(5.31404E-16 0.0200647 -0.0200647 5.31404E-16 822.659 296.225)" r="22.84"/>
     <line class="fil0 str1" x1="826.11" y1="292.41" x2="819" y2= "292.41" />
    </g>
    <g id="унитаз_3">
     <path class="fil0 str1" d="M183.79 283.68c0,3.84 -1.53,7.17 -3.79,8.91l0.33 0c1.57,0 2.86,1.28 2.86,2.86l0 1.27c0,1.57 -1.29,2.86 -2.86,2.86l-7.77 0c-1.57,0 -2.86,-1.29 -2.86,-2.86l0 -1.27c0,-1.58 1.29,-2.86 2.86,-2.86l0.33 0c-2.26,-1.74 -3.79,-5.07 -3.79,-8.91 0,-5.6 3.29,-10.17 7.34,-10.17 4.06,0 7.35,4.57 7.35,10.17l0 0z"/>
     <circle class="fil0 str1" transform="matrix(5.31404E-16 0.0200647 -0.0200647 5.31404E-16 176.552 296.399)" r="22.84"/>
     <line class="fil0 str1" x1="180" y1="292.59" x2="172.89" y2= "292.59" />
    </g>
    <g id="стояк_4">
     <rect class="fil0 str1" transform="matrix(2.64845E-14 -1 1 2.64845E-14 372.099 409.876)" width="11.78" height="37.71"/>
     <rect class="fil0 str1" transform="matrix(2.64845E-14 -1 1 2.64845E-14 372.869 409.189)" width="10.39" height="7.13"/>
     <rect class="fil0 str1" transform="matrix(2.64845E-14 -1 1 2.64845E-14 401.95 409.216)" width="10.39" height="7.13"/>
     <rect class="fil0 str1" transform="matrix(2.64845E-14 -1 1 2.64845E-14 381.407 409.189)" width="10.37" height="19.37"/>
    </g>
    <g id="унитаз_5">
     <path class="fil0 str1" d="M381.33 388.74c-3.84,0 -7.17,-1.53 -8.91,-3.78l0 0.33c0,1.57 -1.28,2.86 -2.85,2.86l-1.27 0c-1.57,0 -2.87,-1.29 -2.87,-2.86l0 -7.78c0,-1.57 1.3,-2.86 2.87,-2.86l1.27 0c1.57,0 2.85,1.29 2.85,2.86l0 0.32c1.74,-2.26 5.07,-3.78 8.91,-3.78 5.61,0 10.17,3.29 10.17,7.35 0,4.06 -4.56,7.35 -10.17,7.35l0 0 0 -0.01z"/>
     <circle class="fil0 str1" cx="368.6" cy="381.5" r="0.46"/>
     <line class="fil0 str1" x1="372.42" y1="384.96" x2="372.42" y2= "377.84" />
    </g>
    <g id="унитаз_6">
     <path class="fil0 str1" d="M719.28 315.18c3.82,0 7.16,1.52 8.89,3.78l0 -0.33c0,-1.58 1.29,-2.86 2.87,-2.86l1.27 0c1.57,0 2.86,1.28 2.86,2.86l0 7.77c0,1.58 -1.29,2.85 -2.86,2.85l-1.27 0c-1.58,0 -2.87,-1.27 -2.87,-2.85l0 -0.33c-1.73,2.26 -5.07,3.79 -8.89,3.79 -5.62,0 -10.17,-3.28 -10.17,-7.34 0,-4.06 4.55,-7.34 10.17,-7.34l0 0 0 0z"/>
     <circle class="fil0 str1" cx="731.98" cy="322.4" r="0.46"/>
     <line class="fil0 str1" x1="728.17" y1="318.96" x2="728.17" y2= "326.07" />
    </g>
    <g id="раковина_x0020_в_x0020_ванной">
     <ellipse class="fil0 str1" transform="matrix(8.30921E-16 -0.0313739 0.0313739 8.30921E-16 809.448 308.486)" rx="183.09" ry="315.34"/>
     <line class="fil0 str1" x1="818.11" y1="305.7" x2="817.54" y2= "301.71" />
     <line class="fil0 str1" x1="800.79" y1="305.7" x2="801.33" y2= "301.64" />
     <line class="fil0 str1" x1="817.54" y1="301.71" x2="801.33" y2= "301.71" />
     <ellipse class="fil0 str1" transform="matrix(1.66184E-15 -0.0627476 0.0313739 8.30921E-16 809.448 308.486)" rx="8.87" ry="17.78"/>
     <line class="fil0 str1" x1="809.45" y1="305.81" x2="809.45" y2= "302.35" />
     <line class="fil0 str1" x1="809.45" y1="304.08" x2="810.7" y2= "304.08" />
    </g>
    <g id="раковина_x0020_в_x0020_ванной_7">
     <ellipse class="fil0 str1" transform="matrix(-2.49277E-15 0.0313739 -0.0313739 -2.49277E-15 655.986 366.245)" rx="183.09" ry="315.34"/>
     <line class="fil0 str1" x1="647.33" y1="369.03" x2="647.9" y2= "373.03" />
     <line class="fil0 str1" x1="664.64" y1="369.03" x2="664.11" y2= "373.1" />
     <line class="fil0 str1" x1="647.9" y1="373.03" x2="664.11" y2= "373.03" />
     <ellipse class="fil0 str1" transform="matrix(-4.98554E-15 0.0627476 -0.0313739 -2.49277E-15 655.986 366.245)" rx="8.87" ry="17.78"/>
     <line class="fil0 str1" x1="655.99" y1="368.92" x2="655.99" y2= "372.38" />
     <line class="fil0 str1" x1="655.99" y1="370.65" x2="654.73" y2= "370.65" />
    </g>
    <g id="раковина_x0020_в_x0020_ванной_8">
     <ellipse class="fil0 str1" transform="matrix(8.30921E-16 -0.0313739 0.0313739 8.30921E-16 178.171 308.359)" rx="183.09" ry="315.34"/>
     <line class="fil0 str1" x1="186.83" y1="305.57" x2="186.25" y2= "301.58" />
     <line class="fil0 str1" x1="169.52" y1="305.57" x2="170.05" y2= "301.51" />
     <line class="fil0 str1" x1="186.25" y1="301.58" x2="170.05" y2= "301.58" />
     <ellipse class="fil0 str1" transform="matrix(1.66184E-15 -0.0627476 0.0313739 8.30921E-16 178.171 308.359)" rx="8.87" ry="17.78"/>
     <line class="fil0 str1" x1="178.17" y1="305.68" x2="178.17" y2= "302.21" />
     <line class="fil0 str1" x1="178.17" y1="303.95" x2="179.42" y2= "303.95" />
    </g>
    <g id="ванна">
     <path class="fil0 str1" d="M685.94 342.74l57.26 0c2.04,0 3.69,1.67 3.69,3.73l0 22.61c0,2.06 -1.65,3.73 -3.69,3.73l-57.26 0c-2.03,0 -3.68,-1.67 -3.68,-3.73l0 -22.61c0,-2.06 1.65,-3.73 3.68,-3.73z"/>
     <path class="fil0 str1" d="M685.41 343.82l53.65 0c1.33,0 2.4,1.18 2.4,2.63l0 22.78c0,1.44 -1.07,2.63 -2.4,2.63l-53.65 0c-1.32,0 -2.41,-1.19 -2.41,-2.63l0 -22.78c0,-1.45 1.09,-2.63 2.41,-2.63z"/>
     <line class="fil0 str1" x1="743.05" y1="357.84" x2="735.05" y2= "357.84" />
     <line class="fil0 str1" x1="739.05" y1="357.84" x2="739.05" y2= "359.23" />
    </g>
    <g id="раковина_x0020_кухня">
     <path class="fil0 str1" d="M392.01 219.17l23.15 0c1.19,0 2.15,0.96 2.15,2.15l0 20.95c0,1.18 -0.96,2.15 -2.15,2.15l-23.15 0c-1.18,0 -2.14,-0.97 -2.14,-2.15l0 -20.95c0,-1.19 0.96,-2.15 2.14,-2.15z"/>
     <path class="fil0 str1" d="M392.39 220.39l18.25 0c0.73,0 1.31,0.65 1.31,1.43l0 19.95c0,0.79 -0.58,1.43 -1.31,1.43l-18.25 0c-0.72,0 -1.3,-0.64 -1.3,-1.43l0 -19.95c0,-0.78 0.58,-1.43 1.3,-1.43z"/>
     <line class="fil0 str1" x1="413.52" y1="231.79" x2="406" y2= "231.79" />
     <line class="fil0 str1" x1="409.75" y1="231.79" x2="409.75" y2= "232.97" />
    </g>
    <g id="раковина_x0020_кухня_9">
     <path class="fil0 str1" d="M587.52 219.23l23.16 0c1.18,0 2.14,0.96 2.14,2.15l0 20.95c0,1.19 -0.96,2.15 -2.14,2.15l-23.16 0c-1.18,0 -2.14,-0.96 -2.14,-2.15l0 -20.95c0,-1.19 0.96,-2.15 2.14,-2.15z"/>
     <path class="fil0 str1" d="M592.05 220.45l18.25 0c0.72,0 1.3,0.64 1.3,1.43l0 19.94c0,0.79 -0.58,1.44 -1.3,1.44l-18.25 0c-0.73,0 -1.31,-0.65 -1.31,-1.44l0 -19.94c0,-0.79 0.58,-1.43 1.31,-1.43z"/>
     <line class="fil0 str1" x1="589.18" y1="231.85" x2="596.69" y2= "231.85" />
     <line class="fil0 str1" x1="592.93" y1="231.85" x2="592.93" y2= "230.68" />
    </g>
    <g id="раковина_x0020_кухня_10">
     <path class="fil0 str1" d="M367.53 411.6l23.15 0c1.19,0 2.15,0.96 2.15,2.15l0 20.95c0,1.18 -0.96,2.15 -2.15,2.15l-23.15 0c-1.18,0 -2.15,-0.97 -2.15,-2.15l0 -20.95c0,-1.19 0.97,-2.15 2.15,-2.15z"/>
     <path class="fil0 str1" d="M372.05 412.82l18.26 0c0.71,0 1.3,0.64 1.3,1.42l0 19.95c0,0.79 -0.59,1.43 -1.3,1.43l-18.26 0c-0.72,0 -1.31,-0.64 -1.31,-1.43l0 -19.95c0,-0.78 0.59,-1.42 1.31,-1.42z"/>
     <line class="fil0 str1" x1="369.18" y1="424.22" x2="376.7" y2= "424.22" />
     <line class="fil0 str1" x1="372.94" y1="424.22" x2="372.94" y2= "423.05" />
    </g>
   </g>
   <g id="Лестница">
    <g>
     <rect class="fil0 str1" x="418.84" y="119.24" width="43.97" height="87.95"/>
     <line class="fil0 str1" x1="418.84" y1="130.23" x2="462.81" y2= "130.23" />
     <line class="fil0 str1" x1="418.84" y1="141.22" x2="462.81" y2= "141.22" />
     <line class="fil0 str1" x1="418.84" y1="152.23" x2="462.81" y2= "152.23" />
     <line class="fil0 str1" x1="418.84" y1="163.2" x2="462.81" y2= "163.2" />
     <line class="fil0 str1" x1="418.84" y1="174.21" x2="462.81" y2= "174.21" />
     <line class="fil0 str1" x1="418.84" y1="185.2" x2="462.81" y2= "185.2" />
     <line class="fil0 str1" x1="418.84" y1="196.2" x2="462.81" y2= "196.2" />
     <line class="fil0 str1" x1="440.83" y1="119.24" x2="440.83" y2= "207.19" />
     <line class="fil0 str1" x1="440.83" y1="207.19" x2="444.25" y2= "195.75" />
     <line class="fil0 str1" x1="440.83" y1="207.19" x2="437.4" y2= "195.75" />
    </g>
    <g>
     <rect class="fil0 str1" x="539.77" y="119.24" width="43.97" height="87.95"/>
     <line class="fil0 str1" x1="583.75" y1="196.2" x2="539.77" y2= "196.2" />
     <line class="fil0 str1" x1="583.75" y1="185.2" x2="539.77" y2= "185.2" />
     <line class="fil0 str1" x1="583.75" y1="174.21" x2="539.77" y2= "174.21" />
     <line class="fil0 str1" x1="583.75" y1="163.2" x2="539.77" y2= "163.2" />
     <line class="fil0 str1" x1="583.75" y1="152.23" x2="539.77" y2= "152.23" />
     <line class="fil0 str1" x1="583.75" y1="141.22" x2="539.77" y2= "141.22" />
     <line class="fil0 str1" x1="583.75" y1="130.23" x2="539.77" y2= "130.23" />
     <line class="fil0 str1" x1="561.76" y1="207.19" x2="561.76" y2= "119.24" />
     <line class="fil0 str1" x1="561.76" y1="119.24" x2="558.34" y2= "130.67" />
     <line class="fil0 str1" x1="561.76" y1="119.24" x2="565.18" y2= "130.67" />
    </g>
    <line class="fil0 str1" x1="462.81" y1="119.24" x2="539.77" y2= "207.19" />
    <line class="fil0 str1" x1="539.77" y1="119.24" x2="462.81" y2= "207.19" />
    <rect class="fil0 str1" x="462.81" y="119.24" width="76.96" height="87.95"/>
   </g>
   <g id="планировки">
    <line class="fil0 str2" x1="325.74" y1="300.63" x2="253.93" y2= "300.63" />
    <line class="fil0 str2" x1="253.93" y1="300.63" x2="253.93" y2= "520.51" />
    <line class="fil0 str2" x1="363.87" y1="300.63" x2="358.38" y2= "300.63" />
    <line class="fil0 str2" x1="319.9" y1="300.63" x2="319.9" y2= "335.44" />
    <line class="fil0 str2" x1="319.9" y1="373.92" x2="253.93" y2= "373.92" />
    <line class="fil0 str2" x1="319.9" y1="373.92" x2="319.9" y2= "368.43" />
    <line class="fil0 str2" x1="209.96" y1="300.48" x2="209.96" y2= "335.29" />
    <line class="fil0 str2" x1="209.96" y1="373.77" x2="144" y2= "373.77" />
    <line class="fil0 str2" x1="209.96" y1="373.77" x2="209.96" y2= "368.29" />
    <line class="fil0 str2" x1="209.96" y1="300.48" x2="144" y2= "300.63" />
    <line class="fil0 str2" x1="253.93" y1="300.63" x2="248.44" y2= "300.63" />
    <line class="fil0 str2" x1="215.46" y1="300.48" x2="209.96" y2= "300.48" />
    <line class="fil0 str2" x1="209.96" y1="245.51" x2="144" y2= "245.51" />
    <line class="fil0 str2" x1="363.87" y1="245.51" x2="418.84" y2= "245.51" />
    <line class="fil0 str2" x1="253.93" y1="80.76" x2="253.93" y2= "245.51" />
    <line class="fil0 str2" x1="209.96" y1="245.51" x2="209.96" y2= "256.51" />
    <line class="fil0 str2" x1="209.96" y1="289.49" x2="209.96" y2= "300.48" />
    <line class="fil0 str2" x1="215.46" y1="245.51" x2="209.96" y2= "245.51" />
    <line class="fil0 str2" x1="253.93" y1="245.51" x2="248.44" y2= "245.51" />
    <line class="fil0 str2" x1="253.93" y1="300.63" x2="253.93" y2= "295.13" />
    <line class="fil0 str2" x1="253.93" y1="251.01" x2="253.93" y2= "245.51" />
    <line class="fil0 str2" x1="253.93" y1="25.8" x2="418.84" y2= "25.8" />
    <line class="fil0 str2" x1="363.87" y1="575.47" x2="528.78" y2= "575.47" />
    <line class="fil0 str2" x1="528.78" y1="575.47" x2="748.64" y2= "575.47" />
    <line class="fil0 str2" x1="638.71" y1="575.47" x2="638.71" y2= "520.51" />
    <line class="fil0 str2" x1="418.84" y1="355.59" x2="418.84" y2= "410.57" />
    <line class="fil0 str2" x1="418.84" y1="410.57" x2="363.87" y2= "410.57" />
    <line class="fil0 str2" x1="418.84" y1="322.62" x2="418.84" y2= "300.63" />
    <line class="fil0 str2" x1="638.71" y1="306.13" x2="638.71" y2= "300.63" />
    <line class="fil0 str2" x1="638.71" y1="373.92" x2="748.64" y2= "373.92" />
    <line class="fil0 str2" x1="638.71" y1="373.92" x2="638.71" y2= "392.25" />
    <line class="fil0 str2" x1="638.71" y1="425.23" x2="638.71" y2= "520.51" />
    <line class="fil0 str2" x1="638.71" y1="373.92" x2="638.71" y2= "339.11" />
    <line class="fil0 str2" x1="613.63" y1="355.59" x2="638.71" y2= "355.59" />
    <line class="fil0 str2" x1="580.64" y1="355.59" x2="528.78" y2= "355.59" />
    <line class="fil0 str2" x1="787.13" y1="300.63" x2="858.58" y2= "300.63" />
    <line class="fil0 str2" x1="792.63" y1="373.91" x2="858.58" y2= "373.91" />
    <line class="fil0 str2" x1="787.13" y1="322.6" x2="787.13" y2= "300.55" />
    <line class="fil0 str2" x1="787.13" y1="251.08" x2="787.13" y2= "245.57" />
    <line class="fil0 str2" x1="787.13" y1="355.58" x2="787.13" y2= "373.91" />
    <line class="fil0 str2" x1="792.63" y1="373.91" x2="787.13" y2= "373.91" />
    <line class="fil0 str2" x1="754.15" y1="373.92" x2="748.64" y2= "373.92" />
    <line class="fil0 str2" x1="787.13" y1="373.91" x2="781.63" y2= "373.91" />
    <line class="fil0 str2" x1="754.15" y1="300.63" x2="748.64" y2= "300.63" />
    <line class="fil0 str2" x1="787.13" y1="300.63" x2="781.63" y2= "300.63" />
    <line class="fil0 str2" x1="787.13" y1="245.57" x2="858.58" y2= "245.57" />
    <line class="fil0 str2" x1="787.13" y1="300.55" x2="787.13" y2= "284.05" />
    <line class="fil0 str2" x1="638.71" y1="245.57" x2="583.75" y2= "245.57" />
    <line class="fil0 str2" x1="748.64" y1="80.76" x2="748.64" y2= "245.57" />
    <line class="fil0 str2" x1="748.64" y1="251.08" x2="748.64" y2= "245.57" />
    <line class="fil0 str2" x1="748.64" y1="300.63" x2="748.64" y2= "295.13" />
    <line class="fil0 str2" x1="754.15" y1="245.57" x2="748.64" y2= "245.57" />
    <line class="fil0 str2" x1="787.13" y1="245.57" x2="781.63" y2= "245.57" />
    <line class="fil0 str2" x1="748.64" y1="25.8" x2="583.75" y2= "25.8" />
   </g>
   <g id="засечки">
    <line class="fil0 str1" x1="215.46" y1="297.07" x2="215.46" y2= "303.89" />
    <line class="fil0 str1" x1="248.44" y1="297.22" x2="248.44" y2= "304.04" />
    <line class="fil0 str1" x1="215.46" y1="242.11" x2="215.46" y2= "248.92" />
    <line class="fil0 str1" x1="248.44" y1="242.11" x2="248.44" y2= "248.92" />
    <line class="fil0 str1" x1="363.87" y1="242.11" x2="363.87" y2= "248.92" />
    <line class="fil0 str1" x1="325.74" y1="297.22" x2="325.74" y2= "304.04" />
    <line class="fil0 str1" x1="358.38" y1="297.22" x2="358.38" y2= "304.04" />
    <line class="fil0 str1" x1="424.33" y1="297.22" x2="424.33" y2= "304.04" />
    <line class="fil0 str1" x1="457.31" y1="297.22" x2="457.31" y2= "304.04" />
    <line class="fil0 str1" x1="545.27" y1="297.22" x2="545.27" y2= "304.04" />
    <line class="fil0 str1" x1="578.24" y1="297.22" x2="578.24" y2= "304.04" />
    <line class="fil0 str1" x1="580.64" y1="352.18" x2="580.64" y2= "359.02" />
    <line class="fil0 str1" x1="613.63" y1="352.18" x2="613.63" y2= "359.02" />
    <line class="fil0 str1" x1="638.71" y1="242.17" x2="638.71" y2= "248.99" />
    <line class="fil0 str1" x1="754.15" y1="242.17" x2="754.15" y2= "248.99" />
    <line class="fil0 str1" x1="781.63" y1="242.17" x2="781.63" y2= "248.99" />
    <line class="fil0 str1" x1="754.15" y1="297.22" x2="754.15" y2= "304.04" />
    <line class="fil0 str1" x1="781.63" y1="297.22" x2="781.63" y2= "304.04" />
    <line class="fil0 str1" x1="754.15" y1="370.51" x2="754.15" y2= "377.33" />
    <line class="fil0 str1" x1="781.63" y1="370.48" x2="781.63" y2= "377.32" />
    <line class="fil0 str1" x1="783.71" y1="355.58" x2="790.54" y2= "355.58" />
    <line class="fil0 str1" x1="783.71" y1="322.6" x2="790.54" y2= "322.6" />
    <line class="fil0 str1" x1="783.71" y1="284.05" x2="790.54" y2= "284.05" />
    <line class="fil0 str1" x1="783.71" y1="251.08" x2="790.54" y2= "251.08" />
    <line class="fil0 str1" x1="745.23" y1="251.08" x2="752.07" y2= "251.08" />
    <line class="fil0 str1" x1="745.23" y1="295.13" x2="752.07" y2= "295.13" />
    <line class="fil0 str1" x1="580.33" y1="262.16" x2="587.16" y2= "262.16" />
    <line class="fil0 str1" x1="580.33" y1="295.13" x2="587.16" y2= "295.13" />
    <line class="fil0 str1" x1="635.31" y1="306.13" x2="642.13" y2= "306.13" />
    <line class="fil0 str1" x1="635.31" y1="339.11" x2="642.13" y2= "339.11" />
    <line class="fil0 str1" x1="635.31" y1="425.23" x2="642.13" y2= "425.23" />
    <line class="fil0 str1" x1="635.31" y1="392.25" x2="642.13" y2= "392.25" />
    <line class="fil0 str1" x1="415.42" y1="322.62" x2="422.25" y2= "322.62" />
    <line class="fil0 str1" x1="415.42" y1="355.59" x2="422.25" y2= "355.59" />
    <line class="fil0 str1" x1="316.48" y1="368.43" x2="323.32" y2= "368.43" />
    <line class="fil0 str1" x1="316.48" y1="335.44" x2="323.32" y2= "335.44" />
    <line class="fil0 str1" x1="206.55" y1="335.29" x2="213.37" y2= "335.29" />
    <line class="fil0 str1" x1="206.55" y1="368.29" x2="213.37" y2= "368.29" />
    <line class="fil0 str1" x1="206.55" y1="289.49" x2="213.37" y2= "289.49" />
    <line class="fil0 str1" x1="206.55" y1="256.51" x2="213.37" y2= "256.51" />
    <line class="fil0 str1" x1="250.52" y1="295.13" x2="257.34" y2= "295.13" />
    <line class="fil0 str1" x1="250.52" y1="251.01" x2="257.34" y2= "251.01" />
    <line class="fil0 str1" x1="415.42" y1="262.16" x2="422.25" y2= "262.16" />
    <line class="fil0 str1" x1="415.42" y1="295.13" x2="422.25" y2= "295.13" />
   </g>
   <g id="текст">
    <path class="fil1" d="M296.95 148.56l0 -3.33 12.77 -16.69 5.15 0 -12.59 16.69 -2.4 -0.74 20.54 0 0 4.07 -23.47 0zm14.22 5.89l0 -5.89 0.15 -4.07 0 -5.22 4.51 0 0 15.18 -4.66 0z"/>
    <path id="1" class="fil1" d="M333.49 154.71c-2.07,0 -3.92,-0.44 -5.54,-1.32 -1.61,-0.87 -2.88,-2.08 -3.79,-3.61 -0.91,-1.53 -1.37,-3.27 -1.37,-5.22 0,-1.97 0.46,-3.72 1.37,-5.23 0.91,-1.52 2.18,-2.71 3.79,-3.58 1.62,-0.86 3.47,-1.29 5.54,-1.29 1.92,0 3.62,0.39 5.09,1.16 1.47,0.78 2.58,1.92 3.35,3.43l-3.56 2.07c-0.59,-0.94 -1.31,-1.63 -2.16,-2.07 -0.85,-0.45 -1.77,-0.67 -2.76,-0.67 -1.13,0 -2.16,0.25 -3.07,0.74 -0.91,0.5 -1.63,1.21 -2.15,2.13 -0.52,0.93 -0.78,2.03 -0.78,3.31 0,1.29 0.26,2.39 0.78,3.32 0.52,0.92 1.24,1.63 2.15,2.12 0.91,0.5 1.94,0.75 3.07,0.75 0.99,0 1.91,-0.23 2.76,-0.67 0.85,-0.44 1.57,-1.14 2.16,-2.07l3.56 2.07c-0.77,1.48 -1.88,2.62 -3.35,3.42 -1.47,0.81 -3.17,1.21 -5.09,1.21z"/>
    <polygon class="fil1" points="298.08,185.25 303.43,173.25 304.06,174.33 296.71,174.33 297.86,173.16 297.86,176.53 295.62,176.53 295.62,172.29 305.69,172.29 305.69,173.9 300.66,185.25 "/>
    <path id="1" class="fil1" d="M305.78 182.3l0 -1.66 6.39 -8.35 2.57 0 -6.29 8.35 -1.2 -0.37 10.27 0 0 2.03 -11.74 0zm7.11 2.95l0 -2.95 0.07 -2.03 0 -2.61 2.26 0 0 7.59 -2.33 0z"/>
    <path id="2" class="fil1" d="M319 188.04l1.07 -4.09 0.31 1.37c-0.43,0 -0.79,-0.13 -1.08,-0.4 -0.29,-0.26 -0.43,-0.62 -0.43,-1.08 0,-0.47 0.14,-0.84 0.43,-1.12 0.29,-0.28 0.65,-0.42 1.07,-0.42 0.43,0 0.79,0.15 1.07,0.43 0.28,0.28 0.43,0.65 0.43,1.11 0,0.12 -0.02,0.26 -0.04,0.4 -0.03,0.14 -0.07,0.3 -0.12,0.49 -0.06,0.18 -0.15,0.42 -0.27,0.7l-0.94 2.61 -1.5 0z"/>
    <path id="3" class="fil1" d="M323.14 182.3l0 -1.66 6.39 -8.35 2.57 0 -6.29 8.35 -1.21 -0.37 10.28 0 0 2.03 -11.74 0zm7.11 2.95l0 -2.95 0.07 -2.03 0 -2.61 2.26 0 0 7.59 -2.33 0z"/>
    <path id="4" class="fil1" d="M341.28 185.43c-1.07,0 -2,-0.16 -2.79,-0.48 -0.79,-0.32 -1.4,-0.77 -1.84,-1.36 -0.43,-0.59 -0.64,-1.27 -0.64,-2.07 0,-0.78 0.21,-1.45 0.63,-1.99 0.41,-0.55 1.02,-0.96 1.81,-1.24 0.79,-0.29 1.73,-0.43 2.83,-0.43 1.1,0 2.05,0.14 2.84,0.43 0.8,0.28 1.41,0.7 1.83,1.25 0.43,0.55 0.64,1.21 0.64,1.98 0,0.8 -0.22,1.48 -0.65,2.07 -0.44,0.59 -1.06,1.04 -1.86,1.36 -0.79,0.32 -1.73,0.48 -2.8,0.48zm0 -1.89c0.89,0 1.59,-0.18 2.11,-0.55 0.52,-0.37 0.78,-0.89 0.78,-1.54 0,-0.64 -0.26,-1.15 -0.78,-1.52 -0.52,-0.37 -1.22,-0.55 -2.11,-0.55 -0.89,0 -1.59,0.18 -2.09,0.55 -0.51,0.37 -0.76,0.88 -0.76,1.52 0,0.65 0.25,1.17 0.76,1.54 0.5,0.37 1.2,0.55 2.09,0.55zm0 -4.42c-1,0 -1.86,-0.13 -2.57,-0.4 -0.72,-0.26 -1.27,-0.65 -1.66,-1.16 -0.39,-0.52 -0.58,-1.13 -0.58,-1.85 0,-0.74 0.2,-1.37 0.6,-1.91 0.4,-0.54 0.97,-0.95 1.69,-1.25 0.73,-0.3 1.57,-0.45 2.52,-0.45 0.96,0 1.81,0.15 2.54,0.45 0.72,0.3 1.29,0.71 1.7,1.25 0.41,0.54 0.61,1.17 0.61,1.91 0,0.72 -0.19,1.33 -0.58,1.85 -0.39,0.51 -0.95,0.9 -1.68,1.16 -0.73,0.27 -1.59,0.4 -2.59,0.4zm0 -1.48c0.77,0 1.37,-0.17 1.81,-0.49 0.45,-0.33 0.67,-0.77 0.67,-1.33 0,-0.57 -0.23,-1.02 -0.68,-1.35 -0.46,-0.32 -1.06,-0.48 -1.8,-0.48 -0.74,0 -1.33,0.16 -1.78,0.48 -0.44,0.33 -0.66,0.78 -0.66,1.35 0,0.56 0.22,1 0.66,1.33 0.43,0.32 1.03,0.49 1.78,0.49z"/>
    <polygon id="5" class="fil1" points="354,185.25 354,175.36 356.42,175.36 360.4,182.38 359.44,182.38 363.62,175.36 365.79,175.36 365.8,185.25 363.71,185.25 363.71,177.84 364.08,178.08 360.38,184.21 359.38,184.21 355.66,177.92 356.11,177.81 356.11,185.25 "/>
    <path id="6" class="fil1" d="M367.68 180.62l0 -0.81 2.57 -2.44c0.22,-0.2 0.38,-0.38 0.49,-0.54 0.1,-0.15 0.17,-0.3 0.2,-0.43 0.04,-0.13 0.06,-0.25 0.06,-0.37 0,-0.3 -0.11,-0.53 -0.31,-0.69 -0.2,-0.16 -0.5,-0.25 -0.9,-0.25 -0.31,0 -0.6,0.06 -0.85,0.17 -0.26,0.11 -0.48,0.28 -0.66,0.51l-0.85 -0.65c0.26,-0.34 0.6,-0.6 1.02,-0.79 0.43,-0.19 0.91,-0.28 1.44,-0.28 0.47,0 0.88,0.07 1.23,0.22 0.35,0.16 0.62,0.37 0.81,0.65 0.18,0.28 0.28,0.6 0.28,0.99 0,0.21 -0.03,0.42 -0.09,0.62 -0.05,0.21 -0.16,0.43 -0.31,0.65 -0.15,0.23 -0.38,0.49 -0.68,0.77l-2.21 2.1 -0.25 -0.45 3.79 0 0 1.02 -4.78 0z"/>
    <path class="fil1" d="M653.62 155.78c-1.83,0 -3.61,-0.27 -5.35,-0.8 -1.74,-0.53 -3.2,-1.26 -4.39,-2.2l2.07 -3.74c0.94,0.77 2.08,1.39 3.41,1.85 1.33,0.47 2.73,0.71 4.18,0.71 1.73,0 3.07,-0.35 4.04,-1.06 0.96,-0.7 1.44,-1.66 1.44,-2.87 0,-1.18 -0.44,-2.12 -1.33,-2.81 -0.89,-0.69 -2.32,-1.04 -4.3,-1.04l-2.36 0 0 -3.29 7.4 -8.81 0.63 1.81 -13.92 0 0 -4.03 17.66 0 0 3.22 -7.41 8.81 -2.51 -1.48 1.44 0c3.18,0 5.57,0.71 7.16,2.13 1.59,1.41 2.39,3.24 2.39,5.46 0,1.45 -0.37,2.8 -1.11,4.03 -0.74,1.23 -1.87,2.23 -3.39,2.98 -1.52,0.75 -3.43,1.13 -5.75,1.13z"/>
    <path id="1" class="fil1" d="M677.49 155.67c-2.07,0 -3.92,-0.44 -5.53,-1.32 -1.62,-0.87 -2.88,-2.07 -3.8,-3.6 -0.91,-1.53 -1.37,-3.27 -1.37,-5.22 0,-1.98 0.46,-3.72 1.37,-5.24 0.92,-1.52 2.18,-2.71 3.8,-3.57 1.61,-0.87 3.46,-1.3 5.53,-1.3 1.93,0 3.62,0.39 5.09,1.17 1.47,0.77 2.59,1.92 3.35,3.42l-3.55 2.07c-0.59,-0.93 -1.32,-1.62 -2.17,-2.07 -0.85,-0.44 -1.77,-0.67 -2.76,-0.67 -1.13,0 -2.15,0.25 -3.07,0.74 -0.91,0.5 -1.63,1.21 -2.14,2.13 -0.52,0.93 -0.78,2.03 -0.78,3.32 0,1.28 0.26,2.38 0.78,3.31 0.51,0.93 1.23,1.63 2.14,2.13 0.92,0.49 1.94,0.74 3.07,0.74 0.99,0 1.91,-0.22 2.76,-0.67 0.85,-0.44 1.58,-1.13 2.17,-2.07l3.55 2.07c-0.76,1.48 -1.88,2.62 -3.35,3.43 -1.47,0.8 -3.16,1.2 -5.09,1.2z"/>
    <path class="fil1" d="M650.88 186.11c-0.92,0 -1.81,-0.13 -2.68,-0.39 -0.87,-0.27 -1.6,-0.64 -2.19,-1.11l1.02 -1.86c0.47,0.38 1.04,0.69 1.71,0.92 0.67,0.24 1.37,0.35 2.1,0.35 0.85,0 1.52,-0.18 2.01,-0.53 0.49,-0.36 0.73,-0.84 0.73,-1.45 0,-0.4 -0.1,-0.76 -0.31,-1.07 -0.2,-0.31 -0.56,-0.54 -1.07,-0.7 -0.51,-0.16 -1.21,-0.25 -2.1,-0.25l-3.13 0 0.67 -7.05 7.61 0 0 2.02 -6.72 0 1.26 -1.15 -0.5 5.28 -1.26 -1.13 2.61 0c1.28,0 2.31,0.17 3.1,0.51 0.78,0.34 1.35,0.81 1.72,1.4 0.36,0.6 0.54,1.28 0.54,2.05 0,0.75 -0.18,1.44 -0.55,2.07 -0.37,0.63 -0.94,1.14 -1.69,1.52 -0.76,0.38 -1.72,0.57 -2.88,0.57z"/>
    <path id="1" class="fil1" d="M662.59 186.11c-1.07,0 -2,-0.16 -2.79,-0.48 -0.79,-0.32 -1.4,-0.77 -1.83,-1.36 -0.44,-0.58 -0.65,-1.27 -0.65,-2.06 0,-0.79 0.21,-1.46 0.63,-2 0.42,-0.54 1.02,-0.96 1.81,-1.24 0.79,-0.28 1.73,-0.42 2.83,-0.42 1.1,0 2.05,0.14 2.84,0.42 0.8,0.28 1.41,0.7 1.84,1.25 0.42,0.55 0.63,1.21 0.63,1.99 0,0.79 -0.21,1.48 -0.65,2.06 -0.44,0.59 -1.06,1.04 -1.85,1.36 -0.8,0.32 -1.73,0.48 -2.81,0.48zm0 -1.88c0.89,0 1.59,-0.19 2.11,-0.56 0.52,-0.37 0.78,-0.88 0.78,-1.53 0,-0.65 -0.26,-1.15 -0.78,-1.52 -0.52,-0.37 -1.22,-0.56 -2.11,-0.56 -0.89,0 -1.58,0.19 -2.09,0.56 -0.5,0.37 -0.76,0.87 -0.76,1.52 0,0.65 0.26,1.16 0.76,1.53 0.51,0.37 1.2,0.56 2.09,0.56zm0 -4.43c-1,0 -1.85,-0.13 -2.57,-0.4 -0.72,-0.26 -1.27,-0.65 -1.66,-1.16 -0.39,-0.51 -0.58,-1.13 -0.58,-1.84 0,-0.74 0.2,-1.38 0.6,-1.92 0.4,-0.53 0.97,-0.95 1.7,-1.25 0.72,-0.29 1.56,-0.44 2.51,-0.44 0.97,0 1.81,0.15 2.54,0.44 0.73,0.3 1.29,0.72 1.7,1.25 0.41,0.54 0.61,1.18 0.61,1.92 0,0.71 -0.19,1.33 -0.58,1.84 -0.39,0.51 -0.95,0.9 -1.68,1.16 -0.72,0.27 -1.59,0.4 -2.59,0.4zm0 -1.48c0.77,0 1.37,-0.16 1.82,-0.49 0.44,-0.32 0.66,-0.77 0.66,-1.32 0,-0.58 -0.23,-1.03 -0.68,-1.35 -0.46,-0.32 -1.06,-0.48 -1.8,-0.48 -0.74,0 -1.33,0.16 -1.77,0.48 -0.45,0.32 -0.67,0.77 -0.67,1.35 0,0.55 0.22,1 0.66,1.32 0.43,0.33 1.03,0.49 1.78,0.49z"/>
    <path id="2" class="fil1" d="M669.74 188.72l1.07 -4.09 0.32 1.37c-0.44,0 -0.8,-0.13 -1.09,-0.39 -0.29,-0.27 -0.43,-0.63 -0.43,-1.09 0,-0.47 0.14,-0.84 0.43,-1.12 0.29,-0.27 0.65,-0.41 1.07,-0.41 0.43,0 0.79,0.14 1.07,0.42 0.28,0.29 0.43,0.66 0.43,1.11 0,0.13 -0.02,0.26 -0.04,0.4 -0.03,0.14 -0.07,0.31 -0.12,0.49 -0.06,0.19 -0.15,0.42 -0.27,0.7l-0.94 2.61 -1.5 0z"/>
    <path id="3" class="fil1" d="M673.88 182.99l0 -1.67 6.39 -8.35 2.57 0 -6.29 8.35 -1.2 -0.37 10.27 0 0 2.04 -11.74 0zm7.11 2.94l0 -2.94 0.07 -2.04 0 -2.61 2.26 0 0 7.59 -2.33 0z"/>
    <polygon id="4" class="fil1" points="688.25,185.93 688.25,173.9 689.3,174.99 685.51,174.99 685.51,172.97 690.65,172.97 690.65,185.93 "/>
    <polygon id="5" class="fil1" points="699.07,185.93 699.07,176.05 701.5,176.05 705.48,183.06 704.51,183.06 708.7,176.05 710.86,176.05 710.88,185.93 708.79,185.93 708.79,178.53 709.16,178.77 705.46,184.89 704.46,184.89 700.74,178.6 701.18,178.49 701.18,185.93 "/>
    <path id="6" class="fil1" d="M712.76 181.3l0 -0.8 2.57 -2.45c0.22,-0.2 0.38,-0.38 0.48,-0.53 0.11,-0.16 0.18,-0.3 0.21,-0.43 0.03,-0.14 0.05,-0.26 0.05,-0.38 0,-0.29 -0.1,-0.52 -0.3,-0.69 -0.21,-0.16 -0.51,-0.24 -0.9,-0.24 -0.32,0 -0.6,0.05 -0.86,0.16 -0.25,0.12 -0.47,0.28 -0.66,0.51l-0.84 -0.65c0.25,-0.33 0.59,-0.6 1.02,-0.79 0.43,-0.18 0.91,-0.28 1.44,-0.28 0.47,0 0.88,0.08 1.23,0.23 0.34,0.15 0.61,0.36 0.8,0.64 0.19,0.28 0.28,0.61 0.28,0.99 0,0.21 -0.02,0.42 -0.08,0.63 -0.06,0.2 -0.16,0.42 -0.31,0.65 -0.16,0.23 -0.38,0.48 -0.68,0.77l-2.21 2.1 -0.25 -0.46 3.78 0 0 1.02 -4.77 0z"/>
    <path class="fil1" d="M554.81 418.45l0 -3.22 10.29 -9.77c0.86,-0.82 1.5,-1.54 1.92,-2.15 0.42,-0.62 0.7,-1.19 0.83,-1.72 0.14,-0.53 0.21,-1.03 0.21,-1.5 0,-1.19 -0.41,-2.11 -1.22,-2.76 -0.82,-0.65 -2.01,-0.98 -3.59,-0.98 -1.26,0 -2.4,0.22 -3.43,0.66 -1.02,0.45 -1.9,1.13 -2.64,2.04l-3.37 -2.59c1.01,-1.36 2.37,-2.41 4.09,-3.17 1.71,-0.75 3.63,-1.12 5.75,-1.12 1.88,0 3.51,0.3 4.91,0.9 1.39,0.61 2.47,1.46 3.22,2.58 0.75,1.11 1.13,2.43 1.13,3.96 0,0.83 -0.11,1.67 -0.34,2.49 -0.22,0.83 -0.64,1.7 -1.25,2.61 -0.62,0.92 -1.52,1.94 -2.71,3.08l-8.84 8.4 -1 -1.81 15.14 0 0 4.07 -19.1 0z"/>
    <path id="1" class="fil1" d="M587.16 418.71c-2.07,0 -3.92,-0.44 -5.54,-1.32 -1.61,-0.87 -2.88,-2.08 -3.79,-3.61 -0.91,-1.53 -1.37,-3.27 -1.37,-5.22 0,-1.97 0.46,-3.72 1.37,-5.23 0.91,-1.52 2.18,-2.71 3.79,-3.58 1.62,-0.86 3.47,-1.29 5.54,-1.29 1.92,0 3.62,0.39 5.09,1.17 1.47,0.77 2.58,1.91 3.35,3.42l-3.56 2.07c-0.59,-0.94 -1.31,-1.63 -2.16,-2.07 -0.85,-0.45 -1.77,-0.67 -2.76,-0.67 -1.13,0 -2.16,0.25 -3.07,0.74 -0.91,0.5 -1.63,1.21 -2.15,2.13 -0.52,0.93 -0.77,2.03 -0.77,3.31 0,1.29 0.25,2.39 0.77,3.32 0.52,0.92 1.24,1.63 2.15,2.13 0.91,0.49 1.94,0.74 3.07,0.74 0.99,0 1.91,-0.23 2.76,-0.67 0.85,-0.44 1.57,-1.14 2.16,-2.07l3.56 2.07c-0.77,1.48 -1.88,2.62 -3.35,3.42 -1.47,0.81 -3.17,1.21 -5.09,1.21z"/>
    <path class="fil1" d="M558.9 445.12c-0.92,0 -1.81,-0.14 -2.68,-0.4 -0.87,-0.27 -1.6,-0.64 -2.19,-1.1l1.04 -1.87c0.46,0.38 1.03,0.69 1.7,0.92 0.66,0.24 1.36,0.35 2.09,0.35 0.86,0 1.54,-0.17 2.02,-0.52 0.48,-0.36 0.72,-0.83 0.72,-1.44 0,-0.59 -0.22,-1.06 -0.67,-1.4 -0.44,-0.35 -1.16,-0.52 -2.14,-0.52l-1.19 0 0 -1.65 3.7 -4.41 0.32 0.91 -6.96 0 0 -2.02 8.83 0 0 1.61 -3.7 4.41 -1.26 -0.74 0.72 0c1.59,0 2.78,0.35 3.58,1.06 0.8,0.71 1.19,1.62 1.19,2.73 0,0.73 -0.18,1.4 -0.55,2.02 -0.37,0.62 -0.94,1.11 -1.69,1.49 -0.76,0.38 -1.72,0.57 -2.88,0.57z"/>
    <path id="1" class="fil1" d="M569.71 445.12c-0.92,0 -1.81,-0.14 -2.68,-0.4 -0.87,-0.27 -1.6,-0.64 -2.19,-1.1l1.02 -1.87c0.46,0.38 1.04,0.69 1.71,0.92 0.67,0.24 1.37,0.35 2.1,0.35 0.85,0 1.52,-0.17 2.01,-0.53 0.48,-0.36 0.73,-0.84 0.73,-1.45 0,-0.4 -0.1,-0.76 -0.31,-1.07 -0.2,-0.31 -0.56,-0.54 -1.07,-0.7 -0.51,-0.16 -1.21,-0.24 -2.1,-0.24l-3.13 0 0.67 -7.06 7.6 0 0 2.02 -6.72 0 1.26 -1.15 -0.5 5.28 -1.25 -1.13 2.6 0c1.29,0 2.32,0.17 3.1,0.51 0.79,0.34 1.36,0.81 1.73,1.41 0.36,0.59 0.54,1.28 0.54,2.04 0,0.75 -0.18,1.44 -0.55,2.07 -0.37,0.63 -0.94,1.14 -1.7,1.52 -0.76,0.38 -1.71,0.58 -2.87,0.58z"/>
    <path id="2" class="fil1" d="M576.31 447.72l1.08 -4.09 0.31 1.37c-0.43,0 -0.79,-0.13 -1.08,-0.39 -0.29,-0.27 -0.44,-0.63 -0.44,-1.09 0,-0.47 0.15,-0.84 0.44,-1.12 0.29,-0.27 0.64,-0.41 1.06,-0.41 0.43,0 0.79,0.14 1.07,0.42 0.29,0.29 0.43,0.66 0.43,1.11 0,0.13 -0.01,0.26 -0.04,0.4 -0.02,0.14 -0.06,0.31 -0.12,0.49 -0.05,0.19 -0.14,0.42 -0.27,0.71l-0.94 2.6 -1.5 0z"/>
    <polygon id="3" class="fil1" points="582.53,444.93 582.53,432.9 583.59,433.99 579.79,433.99 579.79,431.97 584.94,431.97 584.94,444.93 "/>
    <path id="4" class="fil1" d="M592.71 445.12c-1.07,0 -2.01,-0.17 -2.79,-0.49 -0.8,-0.32 -1.41,-0.77 -1.84,-1.36 -0.43,-0.58 -0.65,-1.27 -0.65,-2.06 0,-0.79 0.21,-1.46 0.63,-2 0.42,-0.54 1.03,-0.96 1.82,-1.24 0.79,-0.28 1.73,-0.42 2.83,-0.42 1.1,0 2.04,0.14 2.84,0.42 0.8,0.28 1.41,0.7 1.83,1.25 0.43,0.55 0.64,1.21 0.64,1.99 0,0.79 -0.22,1.48 -0.66,2.06 -0.43,0.59 -1.05,1.04 -1.85,1.36 -0.79,0.32 -1.73,0.49 -2.8,0.49zm0 -1.89c0.89,0 1.59,-0.19 2.11,-0.56 0.52,-0.37 0.78,-0.88 0.78,-1.53 0,-0.65 -0.26,-1.15 -0.78,-1.52 -0.52,-0.37 -1.22,-0.56 -2.11,-0.56 -0.89,0 -1.59,0.19 -2.09,0.56 -0.51,0.37 -0.76,0.87 -0.76,1.52 0,0.65 0.25,1.16 0.76,1.53 0.5,0.37 1.2,0.56 2.09,0.56zm0 -4.43c-1,0 -1.86,-0.13 -2.57,-0.39 -0.72,-0.27 -1.27,-0.66 -1.66,-1.17 -0.39,-0.51 -0.58,-1.13 -0.58,-1.84 0,-0.74 0.2,-1.38 0.6,-1.92 0.4,-0.53 0.96,-0.95 1.69,-1.25 0.73,-0.29 1.57,-0.44 2.52,-0.44 0.96,0 1.81,0.15 2.54,0.44 0.72,0.3 1.29,0.72 1.7,1.25 0.4,0.54 0.61,1.18 0.61,1.92 0,0.71 -0.2,1.33 -0.58,1.84 -0.39,0.51 -0.95,0.9 -1.68,1.17 -0.73,0.26 -1.59,0.39 -2.59,0.39zm0 -1.48c0.76,0 1.37,-0.16 1.81,-0.49 0.45,-0.32 0.67,-0.77 0.67,-1.32 0,-0.58 -0.23,-1.03 -0.69,-1.35 -0.45,-0.32 -1.05,-0.48 -1.79,-0.48 -0.74,0 -1.33,0.16 -1.78,0.48 -0.44,0.32 -0.66,0.77 -0.66,1.35 0,0.55 0.22,1 0.65,1.32 0.44,0.33 1.04,0.49 1.79,0.49z"/>
    <polygon id="5" class="fil1" points="605.42,444.93 605.42,435.05 607.85,435.05 611.83,442.06 610.87,442.06 615.05,435.05 617.21,435.05 617.23,444.93 615.14,444.93 615.14,437.53 615.51,437.77 611.81,443.89 610.81,443.89 607.09,437.6 607.53,437.49 607.53,444.93 "/>
    <path id="6" class="fil1" d="M619.11 440.3l0 -0.8 2.57 -2.45c0.22,-0.2 0.38,-0.38 0.49,-0.53 0.1,-0.16 0.17,-0.3 0.2,-0.43 0.04,-0.14 0.05,-0.26 0.05,-0.38 0,-0.29 -0.1,-0.52 -0.3,-0.69 -0.21,-0.16 -0.5,-0.24 -0.9,-0.24 -0.31,0 -0.6,0.05 -0.85,0.16 -0.26,0.12 -0.48,0.28 -0.67,0.51l-0.84 -0.64c0.25,-0.34 0.59,-0.61 1.02,-0.8 0.43,-0.18 0.91,-0.28 1.44,-0.28 0.47,0 0.88,0.08 1.23,0.23 0.35,0.15 0.62,0.36 0.8,0.64 0.19,0.28 0.29,0.61 0.29,0.99 0,0.21 -0.03,0.42 -0.09,0.63 -0.05,0.2 -0.16,0.42 -0.31,0.65 -0.16,0.23 -0.38,0.48 -0.68,0.77l-2.21 2.1 -0.25 -0.46 3.79 0 0 1.02 -4.78 0z"/>
    <polygon class="fil1" points="442.62,418.45 442.62,394.39 444.73,396.57 437.14,396.57 437.14,392.54 447.43,392.54 447.43,418.45 "/>
    <path id="1" class="fil1" d="M463.05 418.71c-2.07,0 -3.92,-0.44 -5.53,-1.32 -1.62,-0.87 -2.88,-2.08 -3.8,-3.61 -0.91,-1.53 -1.37,-3.27 -1.37,-5.22 0,-1.97 0.46,-3.72 1.37,-5.23 0.92,-1.52 2.18,-2.71 3.8,-3.58 1.61,-0.86 3.46,-1.29 5.53,-1.29 1.93,0 3.62,0.39 5.09,1.17 1.47,0.77 2.59,1.91 3.35,3.42l-3.55 2.07c-0.59,-0.94 -1.32,-1.63 -2.17,-2.07 -0.85,-0.45 -1.77,-0.67 -2.76,-0.67 -1.13,0 -2.15,0.25 -3.07,0.74 -0.91,0.5 -1.63,1.21 -2.14,2.13 -0.52,0.93 -0.78,2.03 -0.78,3.31 0,1.29 0.26,2.39 0.78,3.32 0.51,0.92 1.23,1.63 2.14,2.13 0.92,0.49 1.94,0.74 3.07,0.74 0.99,0 1.91,-0.23 2.76,-0.67 0.85,-0.44 1.58,-1.14 2.17,-2.07l3.55 2.07c-0.76,1.48 -1.88,2.62 -3.35,3.42 -1.47,0.81 -3.16,1.21 -5.09,1.21z"/>
    <path class="fil1" d="M438.49 445.93l0 -1.61 5.15 -4.89c0.43,-0.4 0.75,-0.76 0.96,-1.07 0.21,-0.31 0.35,-0.59 0.41,-0.86 0.07,-0.27 0.11,-0.52 0.11,-0.75 0,-0.59 -0.21,-1.05 -0.61,-1.38 -0.41,-0.33 -1.01,-0.49 -1.8,-0.49 -0.63,0 -1.2,0.11 -1.71,0.33 -0.51,0.23 -0.95,0.57 -1.32,1.02l-1.69 -1.29c0.51,-0.68 1.19,-1.21 2.05,-1.59 0.85,-0.37 1.81,-0.56 2.87,-0.56 0.94,0 1.76,0.15 2.46,0.45 0.69,0.31 1.23,0.73 1.61,1.29 0.37,0.55 0.56,1.21 0.56,1.98 0,0.42 -0.05,0.84 -0.17,1.25 -0.11,0.41 -0.32,0.85 -0.62,1.3 -0.31,0.46 -0.76,0.97 -1.36,1.54l-4.42 4.2 -0.5 -0.91 7.57 0 0 2.04 -9.55 0z"/>
    <path id="1" class="fil1" d="M455.04 446.12c-1.18,0 -2.18,-0.25 -3.02,-0.75 -0.84,-0.5 -1.48,-1.23 -1.92,-2.18 -0.45,-0.95 -0.67,-2.12 -0.67,-3.51 0,-1.49 0.27,-2.74 0.8,-3.76 0.54,-1.03 1.29,-1.8 2.24,-2.33 0.96,-0.53 2.06,-0.8 3.31,-0.8 0.65,0 1.28,0.07 1.88,0.2 0.59,0.14 1.1,0.35 1.52,0.63l-0.89 1.82c-0.35,-0.24 -0.74,-0.4 -1.15,-0.49 -0.42,-0.1 -0.85,-0.14 -1.31,-0.14 -1.22,0 -2.19,0.37 -2.9,1.13 -0.72,0.75 -1.08,1.86 -1.08,3.33 0,0.23 0.01,0.51 0.02,0.82 0.01,0.32 0.06,0.63 0.13,0.95l-0.74 -0.81c0.22,-0.51 0.53,-0.93 0.92,-1.27 0.39,-0.34 0.85,-0.59 1.39,-0.77 0.53,-0.17 1.12,-0.25 1.75,-0.25 0.85,0 1.61,0.16 2.27,0.49 0.67,0.32 1.2,0.78 1.59,1.38 0.4,0.6 0.6,1.3 0.6,2.1 0,0.85 -0.22,1.6 -0.63,2.22 -0.42,0.63 -0.99,1.12 -1.71,1.47 -0.71,0.34 -1.51,0.52 -2.4,0.52zm-0.13 -1.89c0.49,0 0.93,-0.09 1.31,-0.27 0.38,-0.18 0.68,-0.44 0.9,-0.77 0.22,-0.33 0.32,-0.72 0.32,-1.16 0,-0.68 -0.23,-1.22 -0.7,-1.62 -0.47,-0.39 -1.1,-0.59 -1.89,-0.59 -0.52,0 -0.97,0.1 -1.36,0.29 -0.39,0.19 -0.7,0.45 -0.92,0.79 -0.23,0.33 -0.35,0.71 -0.35,1.14 0,0.4 0.11,0.76 0.32,1.1 0.21,0.33 0.51,0.59 0.92,0.79 0.4,0.2 0.88,0.3 1.45,0.3z"/>
    <path id="2" class="fil1" d="M461.31 448.72l1.08 -4.09 0.31 1.37c-0.43,0 -0.79,-0.13 -1.08,-0.39 -0.29,-0.27 -0.44,-0.63 -0.44,-1.09 0,-0.47 0.15,-0.84 0.44,-1.12 0.29,-0.27 0.64,-0.41 1.06,-0.41 0.43,0 0.79,0.14 1.07,0.42 0.29,0.29 0.43,0.66 0.43,1.11 0,0.13 -0.01,0.26 -0.04,0.4 -0.02,0.14 -0.06,0.31 -0.12,0.49 -0.05,0.19 -0.14,0.42 -0.27,0.71l-0.94 2.6 -1.5 0z"/>
    <path id="3" class="fil1" d="M465.46 442.99l0 -1.67 6.38 -8.35 2.57 0 -6.29 8.35 -1.2 -0.37 10.27 0 0 2.04 -11.73 0zm7.1 2.94l0 -2.94 0.08 -2.04 0 -2.61 2.26 0 0 7.59 -2.34 0z"/>
    <path id="4" class="fil1" d="M478.04 445.93l0 -1.61 5.15 -4.89c0.43,-0.4 0.75,-0.76 0.96,-1.07 0.21,-0.31 0.35,-0.59 0.42,-0.86 0.07,-0.27 0.1,-0.52 0.1,-0.75 0,-0.59 -0.21,-1.05 -0.61,-1.38 -0.41,-0.33 -1.01,-0.49 -1.8,-0.49 -0.63,0 -1.2,0.11 -1.71,0.33 -0.51,0.23 -0.95,0.57 -1.32,1.02l-1.69 -1.29c0.51,-0.68 1.19,-1.21 2.05,-1.59 0.86,-0.37 1.81,-0.56 2.88,-0.56 0.93,0 1.75,0.15 2.45,0.45 0.7,0.31 1.23,0.73 1.61,1.29 0.38,0.55 0.56,1.21 0.56,1.98 0,0.42 -0.05,0.84 -0.16,1.25 -0.11,0.41 -0.32,0.85 -0.63,1.3 -0.31,0.46 -0.76,0.97 -1.35,1.54l-4.43 4.2 -0.5 -0.91 7.57 0 0 2.04 -9.55 0z"/>
    <polygon id="5" class="fil1" points="494.83,445.93 494.83,436.05 497.25,436.05 501.23,443.06 500.27,443.06 504.45,436.05 506.62,436.05 506.64,445.93 504.55,445.93 504.55,438.53 504.92,438.77 501.21,444.89 500.21,444.89 496.5,438.6 496.94,438.49 496.94,445.93 "/>
    <path id="6" class="fil1" d="M508.52 441.3l0 -0.8 2.57 -2.45c0.21,-0.2 0.37,-0.38 0.48,-0.53 0.11,-0.16 0.17,-0.3 0.21,-0.43 0.03,-0.13 0.05,-0.26 0.05,-0.38 0,-0.29 -0.1,-0.52 -0.31,-0.69 -0.2,-0.16 -0.5,-0.24 -0.89,-0.24 -0.32,0 -0.6,0.05 -0.86,0.17 -0.26,0.11 -0.48,0.28 -0.66,0.5l-0.84 -0.64c0.25,-0.34 0.59,-0.61 1.02,-0.8 0.43,-0.18 0.91,-0.28 1.44,-0.28 0.47,0 0.88,0.08 1.22,0.23 0.35,0.15 0.62,0.37 0.81,0.64 0.19,0.28 0.28,0.61 0.28,0.99 0,0.21 -0.03,0.42 -0.08,0.63 -0.06,0.2 -0.16,0.42 -0.32,0.65 -0.15,0.23 -0.38,0.48 -0.67,0.77l-2.21 2.1 -0.25 -0.46 3.78 0 0 1.02 -4.77 0z"/>
   </g>
  </g>
 </g>
</svg>
