<svg id="Layer_1" data-name="Layer 1" xmlns="http://www.w3.org/2000/svg" width="382.75" height="200" viewBox="0 0 382.75 200">
  <title>PpromsvyazBank_vertical</title>
  <g>
    <g>
      <path d="M325.43,188.26v-29h8.34V170H343V159.27h8.33v29H343V175.33h-9.19v12.93Z" style="fill: #0d4b9f"/>
      <path d="M296.84,180c0-4,2.09-6.92,6.07-8.45a21.4,21.4,0,0,1,4.81-1.32c1.41-.23,3.27-.47,5.5-.78v-1c.17-4.2-2.26-4.92-5.17-5a17.46,17.46,0,0,0-8,2.21l-.55-5.23a30,30,0,0,1,10.43-1.85,19.66,19.66,0,0,1,5.76.74,7.29,7.29,0,0,1,5.28,6.4,23.93,23.93,0,0,1,.12,2.94v18.1C313.76,189.57,296.84,191.46,296.84,180Zm16.44,3.72V173.39c-3.52.49-8.75,1.08-8.75,6.12C304.53,185.74,311.18,184.51,313.28,183.7Z" style="fill: #0d4b9f"/>
      <path d="M294.45,167.24a11.85,11.85,0,0,0-3.66-6c-2.9-2.77-13-5-17.83,2.29,0-7.66,3.2-11.48,9.72-12.53s10.15-1.7,10.15-1.7l-.67-6.24s-6.64.94-12.18,2.21c-5.9,1.37-11.62,5.68-13.05,14.43-.91,5.61-.8,15.45.87,20,1.95,5.27,5.88,9.24,13.06,9.24,9.88,0,14.4-6.06,14.4-15.5A27.88,27.88,0,0,0,294.45,167.24ZM284.32,182.7a4,4,0,0,1-3.41,1.66c-4.76,0-6-7.87-6-11.47,0-2.91.62-6,2.3-8a4.32,4.32,0,0,1,3.49-1.56c1.88,0,3.57,1.17,4.49,3.58a19.6,19.6,0,0,1,1.24,7.31C286.48,177.22,286,180.45,284.32,182.7Z" style="fill: #0d4b9f"/>
      <path d="M356.09,188.26v-29h8.28v13.29l9.35-13.29h8.12l-9.47,12.93,10.38,16.06H373.5l-9.13-14.46v14.46Z" style="fill: #0d4b9f"/>
      <path d="M223.73,188.89a22.2,22.2,0,0,1-7.94-1.18l.69-5.07a11.19,11.19,0,0,0,6.12,1.72c4.15,0,6.48-2,6.34-4.6a3.57,3.57,0,0,0-1.28-3,4.92,4.92,0,0,0-2.9-1.17c-1.11-.11-2-.17-2.83-.17h-2.05V171h.56c3.1,0,7.94-.11,7.94-4.07.09-3.1-3.15-3.85-4.81-3.79a14,14,0,0,0-7,1.85l-.5-4.87a26.17,26.17,0,0,1,9.34-1.58c6.73-.14,10.9,2.86,10.74,7.42.09,3.77-3.08,5.93-5.35,6.65A9.56,9.56,0,0,1,234.5,174a6.54,6.54,0,0,1,2.8,5.56,8.16,8.16,0,0,1-4.93,7.7A20.93,20.93,0,0,1,223.73,188.89Z" style="fill: #0d4b9f"/>
      <path d="M149,188.89c-9.53,0-14.89-5.87-14.89-15.3s5.69-15,15.09-15a19.71,19.71,0,0,1,6.83,1.14L155,165a9.73,9.73,0,0,0-4.54-1.25c-5.62,0-8,4.65-8,9.69s2.31,10.22,8,10.22a10.42,10.42,0,0,0,4.71-1.14l.55,5.34A20.92,20.92,0,0,1,149,188.89Z" style="fill: #0d4b9f"/>
      <path d="M249.09,183.63s7.53,1.5,7.53-5.64a5.69,5.69,0,0,0-.66-3c-.9-1.44-2.81-1.72-4.82-1.72h-1.2l-.85.06Zm-8.22,4.63v-29h8.22v9.13c1.77-.08,2.87-.1,3.35-.1q5.76,0,8.39,2a8.9,8.9,0,0,1,3.4,7.31c-.22,9.52-9.87,11.29-15,11.29A43.62,43.62,0,0,1,240.87,188.26Z" style="fill: #0d4b9f"/>
      <path d="M178.72,172.84c3.46-1.08,5.2-3.3,5.2-6.65a6.36,6.36,0,0,0-1-3.57,6.17,6.17,0,0,0-3.14-2.57c-2.69-1.23-6.3-1.5-9.51-1.5a61.56,61.56,0,0,0-10,.72v29a73.55,73.55,0,0,0,10,.63c5.82,0,14.69-1.48,14.91-8.85a2.62,2.62,0,0,0,0-.28C185.37,176.54,183.38,173.47,178.72,172.84Zm-8.22,3c.75,0,1.61,0,2.63.09a4.35,4.35,0,0,1,2.63,1,3.47,3.47,0,0,1,1.14,2.9c0,3.16-2.78,4.37-6.45,4.37a20.06,20.06,0,0,1-2-.13v-8.23Zm-2.1-4.5v-8s.82-.08,2.94-.08c3.94,0,4.75,2.31,4.75,3.77,0,2.88-1.77,4.27-5.75,4.27Z" style="fill: #0d4b9f"/>
      <path d="M201.51,158.55c-6.09,0-13.74,1-13.74,8.83,0,4.1,2,6.71,6.08,7.78l-7.73,13.1h8.58l6.23-11.57h2.44v11.57h8.17v-29A61.56,61.56,0,0,0,201.51,158.55Zm1.86,13.26h-2.05c-4,0-5.65-1.32-5.65-4.55s2.57-4.17,4.67-4.17a17.42,17.42,0,0,1,3,.2Z" style="fill: #0d4b9f"/>
      <path d="M0,188.26v-40H30.56v40H21.68V153.85H8.91v34.41Z" style="fill: #0d4b9f"/>
      <path d="M35.45,200V160c7.27-1.47,27-5.61,27,12.07,0,4.68-1.27,8.75-3.68,11.52-4.69,5.64-12.39,5-14.92,4V200Zm18.77-27.22c0-10.91-7.64-10-10.38-9.3v19C44.94,182.66,54.22,186.21,54.22,172.78Z" style="fill: #0d4b9f"/>
      <path d="M79.09,188.89c-9.53,0-13.71-6.09-13.71-15.14,0-9.41,5-15.2,14.62-15.2a13.65,13.65,0,0,1,8.28,2.33,10.69,10.69,0,0,1,4.13,5.81,25,25,0,0,1,1,6.84c0,9.8-4.13,15.36-14.31,15.36Zm.64-4.59c2.43,0,4.06-1.94,4.72-4.51a23.61,23.61,0,0,0,.73-6.45,18.81,18.81,0,0,0-1.11-7,4.67,4.67,0,0,0-4.34-3.27c-2.41,0-4.1,1.75-4.88,4.1a18.7,18.7,0,0,0-.91,6.15c0,3.62.8,11,5.79,11Z" style="fill: #0d4b9f"/>
      <polygon points="95.18 188.26 98.2 159.27 107.83 159.27 113.78 179.01 119.79 159.27 129.37 159.27 132.14 188.26 124.45 188.26 122.84 167.38 116.49 188.26 109.86 188.26 103.46 167.27 101.88 188.26 95.18 188.26" style="fill: #0d4b9f"/>
    </g>
    <path d="M255.17,31a31,31,0,0,0-31-31H180.27a31,31,0,0,0-29.88,22.72h53c20.39,0,29,9.48,29,31.74v50.31A31.11,31.11,0,0,0,255.17,74.9Z" style="fill: #0d4b9f"/>
    <path d="M127.58,96.45a31,31,0,0,0,31,31h43.86a31,31,0,0,0,29.88-22.72h-53c-20.39,0-29-9.48-29-31.74V22.72a31.12,31.12,0,0,0-22.72,29.87Z" style="fill: #f16522"/>
    <path d="M216.41,49v-.14c2.45-.77,5.74-2.82,5.74-8.21,0-6-4.93-8.83-11.85-8.83H198.54V46.34h-6.92c-9.29,0-11.21,6.52-11.21,10.07,0,5.05,2.92,7.29,8.3,10C192,68,195.9,69,195.9,72.77c0,2-1.82,4.33-5.74,4.33h-7.29a11.38,11.38,0,0,0,1.55-5.7c0-2.32-.82-11.62-13.76-11.62H160.09V95.64h7.2V80l2.91,2.92h19.69c9.19,0,13.57-4.74,13.57-10.39a11.06,11.06,0,0,0-1-4.92h7.38c11.39,0,14-5.65,14-10.07A8.3,8.3,0,0,0,216.41,49ZM170.66,77.1h-3.37V65.38h3.37c4.19,0,6.1,2.55,6.1,5.65A5.75,5.75,0,0,1,170.66,77.1Zm27.88-22.24v8.7a52.63,52.63,0,0,0-5.82-2.78c-2.28-1-4.74-2.28-4.74-5.15,0-1.46.91-3.64,5.28-3.64h8.11Zm7.2-17.4H209c5.56,0,5.83,3.41,5.83,4.46,0,1.54-.81,4.42-5.55,4.42h-3.56ZM209.84,62h-4.1V52h4.1c5,0,6.38,2.42,6.38,5S214.4,62,209.84,62Z" style="fill: #0d4b9f"/>
  </g>
</svg>
