<?xml version="1.0" encoding="UTF-8"?>
<!DOCTYPE svg PUBLIC "-//W3C//DTD SVG 1.1//EN" "http://www.w3.org/Graphics/SVG/1.1/DTD/svg11.dtd">
<!-- Creator: CorelDRAW 2019 (64-Bit) -->
<svg xmlns="http://www.w3.org/2000/svg" xml:space="preserve" version="1.1" style="shape-rendering:geometricPrecision; text-rendering:geometricPrecision; image-rendering:optimizeQuality; fill-rule:evenodd; clip-rule:evenodd"
viewBox="0 0 1000 600"
 xmlns:xlink="http://www.w3.org/1999/xlink">
 <defs>
  <style type="text/css">
   <![CDATA[
    .str2 {stroke:#2B2A29;stroke-miterlimit:22.9256}
    .str1 {stroke:#2B2A29;stroke-miterlimit:22.9256}
    .str0 {stroke:#2B2A29;stroke-width:2;stroke-miterlimit:22.9256}
    .fil0 {fill:none}
    .fil1 {fill:black;fill-rule:nonzero}
   ]]>
  </style>
 </defs>
 <g id="Слой_x0020_1">
  <metadata id="CorelCorpID_0Corel-Layer"/>
  <g id="Секция_x0020_2">
   <g id="контур_x0020_квартир">
    <line class="fil0 str0" x1="147.74" y1="86.29" x2="418.7" y2= "86.29" />
    <line class="fil0 str0" x1="527.09" y1="519.83" x2="527.09" y2= "574.01" />
    <line class="fil0 str0" x1="743.85" y1="519.83" x2="743.85" y2= "574.01" />
    <line class="fil0 str0" x1="418.7" y1="32.1" x2="581.27" y2= "32.1" />
    <line class="fil0 str0" x1="364.51" y1="303.06" x2="418.7" y2= "303.06" />
    <line class="fil0 str0" x1="581.27" y1="86.29" x2="581.27" y2= "265.13" />
    <line class="fil0 str0" x1="424.12" y1="303.06" x2="418.7" y2= "303.06" />
    <line class="fil0 str0" x1="147.74" y1="519.83" x2="852.23" y2= "519.83" />
    <line class="fil0 str0" x1="147.74" y1="86.29" x2="147.74" y2= "519.83" />
    <line class="fil0 str0" x1="852.23" y1="86.29" x2="852.23" y2= "519.83" />
    <line class="fil0 str0" x1="364.51" y1="519.83" x2="364.51" y2= "574.01" />
    <line class="fil0 str0" x1="256.13" y1="86.29" x2="256.13" y2= "32.1" />
    <line class="fil0 str0" x1="418.7" y1="86.29" x2="418.7" y2= "32.1" />
    <line class="fil0 str0" x1="581.27" y1="86.29" x2="581.27" y2= "32.1" />
    <line class="fil0 str0" x1="743.85" y1="86.29" x2="743.85" y2= "32.1" />
    <line class="fil0 str0" x1="364.51" y1="303.06" x2="256.13" y2= "303.06" />
    <line class="fil0 str0" x1="256.13" y1="303.06" x2="256.13" y2= "519.83" />
    <line class="fil0 str0" x1="418.7" y1="86.29" x2="418.7" y2= "265.13" />
    <line class="fil0 str0" x1="852.23" y1="86.29" x2="581.27" y2= "86.29" />
    <line class="fil0 str0" x1="527.09" y1="519.83" x2="527.09" y2= "303.06" />
    <line class="fil0 str0" x1="581.27" y1="303.06" x2="743.85" y2= "303.06" />
    <line class="fil0 str0" x1="743.85" y1="303.06" x2="743.85" y2= "519.83" />
    <line class="fil0 str0" x1="418.7" y1="297.65" x2="418.7" y2= "303.06" />
    <line class="fil0 str0" x1="455.64" y1="303.06" x2="527.09" y2= "303.06" />
    <line class="fil0 str0" x1="526.7" y1="303.06" x2="537.54" y2= "303.06" />
    <line class="fil0 str0" x1="581.27" y1="303.06" x2="570.44" y2= "303.06" />
    <line class="fil0 str0" x1="581.27" y1="297.65" x2="581.27" y2= "303.06" />
    <line class="fil0 str1" x1="424.12" y1="299.82" x2="424.12" y2= "306.31" />
    <line class="fil0 str1" x1="455.64" y1="299.82" x2="455.64" y2= "306.31" />
    <line class="fil0 str1" x1="537.54" y1="299.82" x2="537.54" y2= "306.31" />
    <line class="fil0 str1" x1="570.44" y1="299.82" x2="570.44" y2= "306.31" />
    <line class="fil0 str1" x1="415.46" y1="297.65" x2="421.95" y2= "297.65" />
    <line class="fil0 str1" x1="415.46" y1="265.13" x2="421.95" y2= "265.13" />
    <line class="fil0 str1" x1="578.02" y1="265.13" x2="584.53" y2= "265.13" />
    <line class="fil0 str1" x1="578.02" y1="297.65" x2="584.53" y2= "297.65" />
   </g>
   <g id="Лестничная_x0020_группа">
    <g>
     <rect class="fil0 str1" x="418.71" y="124.23" width="43.35" height="86.71"/>
     <line class="fil0 str1" x1="418.7" y1="135.07" x2="462.06" y2= "135.07" />
     <line class="fil0 str1" x1="418.7" y1="145.91" x2="462.06" y2= "145.91" />
     <line class="fil0 str1" x1="418.7" y1="156.75" x2="462.06" y2= "156.75" />
     <line class="fil0 str1" x1="418.7" y1="167.59" x2="462.06" y2= "167.59" />
     <line class="fil0 str1" x1="418.7" y1="178.43" x2="462.06" y2= "178.43" />
     <line class="fil0 str1" x1="418.7" y1="189.26" x2="462.06" y2= "189.26" />
     <line class="fil0 str1" x1="418.7" y1="200.1" x2="462.06" y2= "200.1" />
     <line class="fil0 str1" x1="440.38" y1="124.23" x2="440.38" y2= "210.94" />
     <line class="fil0 str1" x1="440.38" y1="210.94" x2="444.18" y2= "201.1" />
     <line class="fil0 str1" x1="440.38" y1="210.94" x2="436.57" y2= "201.1" />
    </g>
    <g>
     <rect class="fil0 str1" x="537.93" y="124.23" width="43.35" height="86.71"/>
     <line class="fil0 str1" x1="537.93" y1="200.1" x2="581.27" y2= "200.1" />
     <line class="fil0 str1" x1="537.93" y1="189.26" x2="581.27" y2= "189.26" />
     <line class="fil0 str1" x1="537.93" y1="178.43" x2="581.27" y2= "178.43" />
     <line class="fil0 str1" x1="537.93" y1="167.59" x2="581.27" y2= "167.59" />
     <line class="fil0 str1" x1="537.93" y1="156.75" x2="581.27" y2= "156.75" />
     <line class="fil0 str1" x1="537.93" y1="145.91" x2="581.27" y2= "145.91" />
     <line class="fil0 str1" x1="537.93" y1="135.07" x2="581.27" y2= "135.07" />
     <line class="fil0 str1" x1="559.6" y1="210.94" x2="559.6" y2= "124.23" />
     <line class="fil0 str1" x1="559.6" y1="124.23" x2="563.4" y2= "134.06" />
     <line class="fil0 str1" x1="559.6" y1="124.23" x2="555.8" y2= "134.06" />
    </g>
    <rect class="fil0 str1" x="462.06" y="124.23" width="75.87" height="86.71"/>
    <line class="fil0 str1" x1="537.93" y1="124.23" x2="462.06" y2= "210.94" />
    <line class="fil0 str1" x1="462.06" y1="124.23" x2="537.93" y2= "210.94" />
   </g>
   <g id="текст">
    <g>
     <path class="fil1" d="M550.51 424.89l0 -3.22 10.29 -9.77c0.87,-0.82 1.51,-1.53 1.93,-2.15 0.42,-0.61 0.7,-1.19 0.83,-1.72 0.14,-0.53 0.21,-1.03 0.21,-1.5 0,-1.18 -0.41,-2.1 -1.23,-2.76 -0.81,-0.65 -2.01,-0.98 -3.59,-0.98 -1.26,0 -2.4,0.22 -3.42,0.67 -1.03,0.44 -1.91,1.12 -2.65,2.04l-3.37 -2.6c1.02,-1.35 2.38,-2.41 4.09,-3.16 1.72,-0.75 3.64,-1.13 5.76,-1.13 1.88,0 3.51,0.3 4.91,0.91 1.39,0.6 2.46,1.46 3.21,2.57 0.76,1.11 1.13,2.43 1.13,3.96 0,0.84 -0.11,1.67 -0.33,2.5 -0.22,0.83 -0.64,1.7 -1.26,2.61 -0.61,0.91 -1.51,1.94 -2.7,3.07l-8.85 8.4 -1 -1.81 15.14 0 0 4.07 -19.1 0z"/>
     <path id="1" class="fil1" d="M582.87 425.15c-2.08,0 -3.92,-0.44 -5.54,-1.31 -1.62,-0.88 -2.88,-2.08 -3.79,-3.61 -0.92,-1.53 -1.37,-3.27 -1.37,-5.22 0,-1.98 0.45,-3.72 1.37,-5.24 0.91,-1.52 2.17,-2.71 3.79,-3.57 1.62,-0.87 3.46,-1.3 5.54,-1.3 1.92,0 3.62,0.39 5.08,1.17 1.47,0.78 2.59,1.92 3.36,3.42l-3.56 2.08c-0.59,-0.94 -1.31,-1.63 -2.16,-2.08 -0.86,-0.44 -1.77,-0.66 -2.76,-0.66 -1.14,0 -2.16,0.24 -3.07,0.74 -0.92,0.49 -1.63,1.2 -2.15,2.12 -0.52,0.93 -0.78,2.04 -0.78,3.32 0,1.28 0.26,2.39 0.78,3.31 0.52,0.93 1.23,1.64 2.15,2.13 0.91,0.49 1.93,0.74 3.07,0.74 0.99,0 1.9,-0.22 2.76,-0.67 0.85,-0.44 1.57,-1.13 2.16,-2.07l3.56 2.07c-0.77,1.48 -1.89,2.63 -3.36,3.43 -1.46,0.8 -3.16,1.2 -5.08,1.2z"/>
     <path class="fil1" d="M552.9 459.03c-0.91,0 -1.8,-0.13 -2.67,-0.39 -0.87,-0.27 -1.6,-0.64 -2.19,-1.11l1.03 -1.86c0.47,0.38 1.04,0.69 1.71,0.92 0.66,0.24 1.36,0.35 2.09,0.35 0.86,0 1.53,-0.17 2.01,-0.53 0.49,-0.35 0.73,-0.82 0.73,-1.43 0,-0.59 -0.23,-1.06 -0.67,-1.41 -0.45,-0.34 -1.16,-0.51 -2.15,-0.51l-1.18 0 0 -1.65 3.7 -4.41 0.31 0.91 -6.96 0 0 -2.02 8.83 0 0 1.61 -3.7 4.41 -1.26 -0.74 0.73 0c1.59,0 2.78,0.35 3.58,1.06 0.79,0.71 1.19,1.62 1.19,2.73 0,0.73 -0.18,1.4 -0.56,2.02 -0.36,0.62 -0.93,1.11 -1.69,1.49 -0.76,0.38 -1.72,0.56 -2.88,0.56z"/>
     <path id="1" class="fil1" d="M563.71 459.03c-0.91,0 -1.8,-0.13 -2.67,-0.39 -0.87,-0.27 -1.6,-0.64 -2.2,-1.11l1.02 -1.86c0.47,0.38 1.04,0.69 1.71,0.92 0.68,0.24 1.38,0.35 2.11,0.35 0.85,0 1.52,-0.18 2,-0.53 0.49,-0.36 0.73,-0.84 0.73,-1.45 0,-0.4 -0.1,-0.76 -0.3,-1.07 -0.2,-0.31 -0.56,-0.54 -1.07,-0.7 -0.52,-0.16 -1.22,-0.25 -2.1,-0.25l-3.13 0 0.66 -7.05 7.61 0 0 2.02 -6.72 0 1.26 -1.15 -0.5 5.28 -1.26 -1.13 2.61 0c1.29,0 2.32,0.17 3.1,0.51 0.78,0.34 1.36,0.81 1.72,1.4 0.37,0.6 0.55,1.28 0.55,2.05 0,0.75 -0.19,1.44 -0.56,2.07 -0.37,0.63 -0.93,1.14 -1.69,1.52 -0.76,0.38 -1.72,0.57 -2.88,0.57z"/>
     <path id="2" class="fil1" d="M570.32 461.64l1.07 -4.09 0.32 1.37c-0.44,0 -0.8,-0.13 -1.09,-0.39 -0.29,-0.27 -0.43,-0.63 -0.43,-1.09 0,-0.47 0.14,-0.84 0.43,-1.12 0.29,-0.27 0.65,-0.41 1.07,-0.41 0.43,0 0.79,0.14 1.07,0.42 0.29,0.29 0.43,0.66 0.43,1.11 0,0.13 -0.01,0.26 -0.04,0.4 -0.02,0.14 -0.06,0.31 -0.12,0.49 -0.06,0.19 -0.14,0.42 -0.27,0.7l-0.94 2.61 -1.5 0z"/>
     <path id="3" class="fil1" d="M579.92 459.03c-1.02,0 -1.94,-0.26 -2.76,-0.77 -0.82,-0.52 -1.47,-1.28 -1.94,-2.27 -0.47,-0.99 -0.7,-2.2 -0.7,-3.62 0,-1.42 0.23,-2.62 0.7,-3.62 0.47,-0.99 1.12,-1.75 1.94,-2.26 0.82,-0.52 1.74,-0.78 2.76,-0.78 1.04,0 1.97,0.26 2.78,0.78 0.81,0.51 1.46,1.27 1.93,2.26 0.48,1 0.72,2.2 0.72,3.62 0,1.42 -0.24,2.63 -0.72,3.62 -0.47,0.99 -1.12,1.75 -1.93,2.27 -0.81,0.51 -1.74,0.77 -2.78,0.77zm0 -2.09c0.61,0 1.13,-0.16 1.58,-0.49 0.44,-0.32 0.79,-0.83 1.04,-1.51 0.26,-0.67 0.38,-1.53 0.38,-2.57 0,-1.05 -0.12,-1.91 -0.38,-2.58 -0.25,-0.67 -0.6,-1.17 -1.04,-1.5 -0.45,-0.33 -0.97,-0.49 -1.58,-0.49 -0.58,0 -1.09,0.16 -1.54,0.49 -0.45,0.33 -0.8,0.83 -1.06,1.5 -0.25,0.67 -0.38,1.53 -0.38,2.58 0,1.04 0.13,1.9 0.38,2.57 0.26,0.68 0.61,1.19 1.06,1.51 0.45,0.33 0.96,0.49 1.54,0.49z"/>
     <path id="4" class="fil1" d="M591.34 445.71c1.19,0 2.2,0.25 3.03,0.75 0.83,0.5 1.47,1.22 1.91,2.17 0.45,0.95 0.67,2.13 0.67,3.52 0,1.48 -0.27,2.73 -0.8,3.76 -0.54,1.02 -1.28,1.8 -2.23,2.33 -0.95,0.53 -2.06,0.79 -3.32,0.79 -0.65,0 -1.27,-0.06 -1.87,-0.2 -0.59,-0.14 -1.1,-0.34 -1.53,-0.63l0.89 -1.81c0.35,0.23 0.74,0.4 1.16,0.49 0.42,0.09 0.85,0.14 1.3,0.14 1.22,0 2.19,-0.38 2.9,-1.13 0.72,-0.75 1.08,-1.87 1.08,-3.33 0,-0.24 -0.01,-0.51 -0.02,-0.83 -0.01,-0.31 -0.06,-0.63 -0.13,-0.95l0.74 0.81c-0.21,0.51 -0.51,0.93 -0.91,1.27 -0.39,0.34 -0.86,0.6 -1.39,0.77 -0.53,0.17 -1.11,0.26 -1.75,0.26 -0.84,0 -1.6,-0.16 -2.27,-0.49 -0.67,-0.33 -1.21,-0.79 -1.6,-1.39 -0.4,-0.6 -0.59,-1.3 -0.59,-2.1 0,-0.86 0.21,-1.61 0.63,-2.23 0.41,-0.62 0.98,-1.11 1.71,-1.45 0.72,-0.35 1.52,-0.52 2.39,-0.52zm0.13 1.89c-0.49,0 -0.93,0.09 -1.31,0.26 -0.38,0.18 -0.68,0.44 -0.9,0.76 -0.21,0.33 -0.32,0.72 -0.32,1.18 0,0.68 0.23,1.21 0.7,1.61 0.47,0.39 1.1,0.59 1.89,0.59 0.52,0 0.97,-0.09 1.37,-0.29 0.39,-0.19 0.7,-0.45 0.92,-0.79 0.23,-0.34 0.34,-0.72 0.34,-1.14 0,-0.41 -0.11,-0.77 -0.32,-1.1 -0.21,-0.33 -0.51,-0.59 -0.9,-0.79 -0.4,-0.2 -0.89,-0.29 -1.47,-0.29z"/>
     <polygon id="5" class="fil1" points="604.43,458.85 604.43,448.97 606.85,448.97 610.83,455.98 609.87,455.98 614.05,448.97 616.22,448.97 616.24,458.85 614.15,458.85 614.15,451.45 614.52,451.69 610.81,457.81 609.81,457.81 606.09,451.52 606.54,451.41 606.54,458.85 "/>
     <path id="6" class="fil1" d="M618.12 454.22l0 -0.8 2.57 -2.45c0.21,-0.2 0.37,-0.38 0.48,-0.53 0.1,-0.16 0.17,-0.3 0.21,-0.43 0.03,-0.14 0.05,-0.26 0.05,-0.38 0,-0.29 -0.1,-0.52 -0.31,-0.69 -0.2,-0.16 -0.5,-0.24 -0.89,-0.24 -0.32,0 -0.6,0.05 -0.86,0.16 -0.26,0.12 -0.48,0.28 -0.66,0.51l-0.84 -0.65c0.25,-0.33 0.59,-0.6 1.02,-0.79 0.43,-0.18 0.91,-0.28 1.44,-0.28 0.47,0 0.87,0.08 1.22,0.23 0.35,0.15 0.62,0.36 0.81,0.64 0.19,0.28 0.28,0.61 0.28,0.99 0,0.21 -0.03,0.42 -0.08,0.63 -0.06,0.2 -0.16,0.42 -0.32,0.65 -0.15,0.23 -0.38,0.48 -0.67,0.77l-2.21 2.1 -0.25 -0.46 3.78 0 0 1.02 -4.77 0z"/>
    </g>
    <g>
     <path class="fil1" d="M629.6 158.87l0 -3.22 10.29 -9.77c0.87,-0.82 1.51,-1.53 1.93,-2.15 0.42,-0.62 0.7,-1.19 0.83,-1.72 0.14,-0.53 0.21,-1.03 0.21,-1.5 0,-1.19 -0.41,-2.1 -1.23,-2.76 -0.81,-0.65 -2.01,-0.98 -3.59,-0.98 -1.25,0 -2.4,0.22 -3.42,0.67 -1.02,0.44 -1.91,1.12 -2.65,2.03l-3.36 -2.59c1.01,-1.36 2.37,-2.41 4.09,-3.16 1.71,-0.76 3.63,-1.13 5.75,-1.13 1.88,0 3.51,0.3 4.91,0.9 1.39,0.61 2.46,1.47 3.22,2.58 0.75,1.11 1.13,2.43 1.13,3.96 0,0.84 -0.12,1.67 -0.34,2.5 -0.22,0.82 -0.64,1.69 -1.26,2.61 -0.61,0.91 -1.51,1.93 -2.7,3.07l-8.85 8.4 -0.99 -1.81 15.13 0 0 4.07 -19.1 0z"/>
     <path id="1" class="fil1" d="M667.14 158.87l-7.15 -9.48 3.78 -2.33 8.81 11.81 -5.44 0zm-14.18 0l0 -19.77 4.63 0 0 19.77 -4.63 0zm3.26 -7.92l0 -3.85 6.7 0 0 3.85 -6.7 0zm7.99 -1.41l-4.33 -0.52 7.26 -9.92 4.96 0 -7.89 10.44z"/>
     <path class="fil1" d="M633.27 193.49c-0.91,0 -1.8,-0.14 -2.67,-0.4 -0.87,-0.27 -1.6,-0.63 -2.2,-1.1l1.02 -1.87c0.47,0.38 1.04,0.69 1.71,0.92 0.68,0.24 1.38,0.36 2.1,0.36 0.85,0 1.52,-0.18 2.01,-0.54 0.49,-0.36 0.73,-0.84 0.73,-1.44 0,-0.41 -0.1,-0.77 -0.3,-1.08 -0.21,-0.31 -0.56,-0.54 -1.08,-0.7 -0.51,-0.16 -1.21,-0.24 -2.1,-0.24l-3.12 0 0.66 -7.05 7.61 0 0 2.01 -6.72 0 1.26 -1.14 -0.5 5.27 -1.26 -1.13 2.61 0c1.28,0 2.32,0.17 3.1,0.51 0.78,0.34 1.36,0.81 1.72,1.41 0.37,0.6 0.55,1.28 0.55,2.04 0,0.76 -0.19,1.45 -0.56,2.08 -0.37,0.63 -0.93,1.13 -1.69,1.51 -0.76,0.39 -1.72,0.58 -2.88,0.58z"/>
     <path id="1" class="fil1" d="M644.99 193.49c-1.08,0 -2.01,-0.16 -2.8,-0.48 -0.79,-0.32 -1.4,-0.78 -1.83,-1.36 -0.43,-0.59 -0.65,-1.28 -0.65,-2.07 0,-0.79 0.21,-1.45 0.63,-2 0.42,-0.54 1.03,-0.95 1.81,-1.24 0.79,-0.28 1.74,-0.42 2.84,-0.42 1.09,0 2.04,0.14 2.84,0.42 0.79,0.29 1.4,0.7 1.83,1.25 0.43,0.55 0.64,1.22 0.64,1.99 0,0.79 -0.22,1.48 -0.66,2.07 -0.44,0.58 -1.05,1.04 -1.85,1.36 -0.8,0.32 -1.73,0.48 -2.8,0.48zm0 -1.89c0.88,0 1.59,-0.18 2.11,-0.56 0.51,-0.37 0.77,-0.88 0.77,-1.53 0,-0.64 -0.26,-1.15 -0.77,-1.52 -0.52,-0.37 -1.23,-0.55 -2.11,-0.55 -0.89,0 -1.59,0.18 -2.1,0.55 -0.5,0.37 -0.75,0.88 -0.75,1.52 0,0.65 0.25,1.16 0.75,1.53 0.51,0.38 1.21,0.56 2.1,0.56zm0 -4.42c-1,0 -1.86,-0.14 -2.58,-0.4 -0.71,-0.27 -1.26,-0.65 -1.65,-1.17 -0.39,-0.51 -0.59,-1.12 -0.59,-1.84 0,-0.74 0.2,-1.38 0.61,-1.91 0.4,-0.54 0.96,-0.96 1.69,-1.25 0.73,-0.3 1.57,-0.45 2.52,-0.45 0.96,0 1.8,0.15 2.53,0.45 0.73,0.29 1.3,0.71 1.7,1.25 0.41,0.53 0.61,1.17 0.61,1.91 0,0.72 -0.19,1.33 -0.58,1.84 -0.39,0.52 -0.94,0.9 -1.67,1.17 -0.73,0.26 -1.59,0.4 -2.59,0.4zm0 -1.48c0.76,0 1.37,-0.17 1.81,-0.49 0.44,-0.33 0.67,-0.77 0.67,-1.33 0,-0.58 -0.23,-1.03 -0.69,-1.35 -0.46,-0.32 -1.05,-0.48 -1.79,-0.48 -0.74,0 -1.34,0.16 -1.78,0.48 -0.45,0.32 -0.67,0.77 -0.67,1.35 0,0.56 0.22,1 0.66,1.33 0.44,0.32 1.03,0.49 1.79,0.49z"/>
     <path id="2" class="fil1" d="M652.13 196.1l1.07 -4.09 0.32 1.37c-0.43,0 -0.79,-0.14 -1.08,-0.4 -0.29,-0.27 -0.44,-0.63 -0.44,-1.08 0,-0.47 0.15,-0.85 0.44,-1.12 0.29,-0.28 0.64,-0.42 1.06,-0.42 0.43,0 0.79,0.14 1.07,0.43 0.29,0.28 0.43,0.65 0.43,1.11 0,0.12 -0.01,0.25 -0.04,0.39 -0.02,0.15 -0.06,0.31 -0.12,0.49 -0.05,0.19 -0.14,0.42 -0.27,0.71l-0.94 2.61 -1.5 0z"/>
     <path id="3" class="fil1" d="M661.94 193.49c-1.07,0 -2.01,-0.16 -2.79,-0.48 -0.79,-0.32 -1.41,-0.78 -1.84,-1.36 -0.43,-0.59 -0.64,-1.28 -0.64,-2.07 0,-0.79 0.2,-1.45 0.62,-2 0.42,-0.54 1.03,-0.95 1.82,-1.24 0.79,-0.28 1.73,-0.42 2.83,-0.42 1.1,0 2.04,0.14 2.84,0.42 0.8,0.29 1.41,0.7 1.83,1.25 0.43,0.55 0.64,1.22 0.64,1.99 0,0.79 -0.22,1.48 -0.66,2.07 -0.43,0.58 -1.05,1.04 -1.85,1.36 -0.79,0.32 -1.73,0.48 -2.8,0.48zm0 -1.89c0.89,0 1.59,-0.18 2.11,-0.56 0.52,-0.37 0.78,-0.88 0.78,-1.53 0,-0.64 -0.26,-1.15 -0.78,-1.52 -0.52,-0.37 -1.22,-0.55 -2.11,-0.55 -0.89,0 -1.59,0.18 -2.09,0.55 -0.51,0.37 -0.76,0.88 -0.76,1.52 0,0.65 0.25,1.16 0.76,1.53 0.5,0.38 1.2,0.56 2.09,0.56zm0 -4.42c-1,0 -1.86,-0.14 -2.57,-0.4 -0.72,-0.27 -1.27,-0.65 -1.66,-1.17 -0.39,-0.51 -0.58,-1.12 -0.58,-1.84 0,-0.74 0.2,-1.38 0.6,-1.91 0.4,-0.54 0.96,-0.96 1.69,-1.25 0.73,-0.3 1.57,-0.45 2.52,-0.45 0.96,0 1.81,0.15 2.54,0.45 0.72,0.29 1.29,0.71 1.7,1.25 0.41,0.53 0.61,1.17 0.61,1.91 0,0.72 -0.2,1.33 -0.58,1.84 -0.39,0.52 -0.95,0.9 -1.68,1.17 -0.73,0.26 -1.59,0.4 -2.59,0.4zm0 -1.48c0.76,0 1.37,-0.17 1.81,-0.49 0.45,-0.33 0.67,-0.77 0.67,-1.33 0,-0.58 -0.23,-1.03 -0.68,-1.35 -0.46,-0.32 -1.06,-0.48 -1.8,-0.48 -0.74,0 -1.33,0.16 -1.78,0.48 -0.44,0.32 -0.66,0.77 -0.66,1.35 0,0.56 0.22,1 0.65,1.33 0.44,0.32 1.04,0.49 1.79,0.49z"/>
     <path id="4" class="fil1" d="M674.21 193.49c-1.02,0 -1.95,-0.26 -2.77,-0.78 -0.82,-0.52 -1.46,-1.27 -1.93,-2.27 -0.47,-0.99 -0.7,-2.2 -0.7,-3.61 0,-1.42 0.23,-2.63 0.7,-3.62 0.47,-1 1.11,-1.75 1.93,-2.27 0.82,-0.52 1.75,-0.78 2.77,-0.78 1.04,0 1.96,0.26 2.78,0.78 0.81,0.52 1.46,1.27 1.93,2.27 0.48,0.99 0.71,2.2 0.71,3.62 0,1.41 -0.23,2.62 -0.71,3.61 -0.47,1 -1.12,1.75 -1.93,2.27 -0.82,0.52 -1.74,0.78 -2.78,0.78zm0 -2.09c0.61,0 1.13,-0.17 1.57,-0.49 0.45,-0.33 0.8,-0.83 1.05,-1.51 0.25,-0.68 0.38,-1.54 0.38,-2.57 0,-1.05 -0.13,-1.91 -0.38,-2.59 -0.25,-0.67 -0.6,-1.17 -1.05,-1.5 -0.44,-0.32 -0.96,-0.49 -1.57,-0.49 -0.58,0 -1.09,0.17 -1.54,0.49 -0.46,0.33 -0.81,0.83 -1.06,1.5 -0.25,0.68 -0.38,1.54 -0.38,2.59 0,1.03 0.13,1.89 0.38,2.57 0.25,0.68 0.6,1.18 1.06,1.51 0.45,0.32 0.96,0.49 1.54,0.49z"/>
     <polygon id="5" class="fil1" points="687.11,193.3 687.11,183.42 689.54,183.42 693.51,190.43 692.55,190.43 696.74,183.42 698.9,183.42 698.92,193.3 696.83,193.3 696.83,185.9 697.2,186.14 693.5,192.27 692.5,192.27 688.78,185.97 689.22,185.86 689.22,193.3 "/>
     <path id="6" class="fil1" d="M700.8 188.68l0 -0.81 2.57 -2.44c0.22,-0.21 0.38,-0.39 0.48,-0.54 0.11,-0.15 0.17,-0.3 0.21,-0.43 0.03,-0.13 0.05,-0.26 0.05,-0.37 0,-0.3 -0.1,-0.53 -0.3,-0.69 -0.21,-0.17 -0.51,-0.25 -0.9,-0.25 -0.32,0 -0.6,0.06 -0.86,0.17 -0.25,0.11 -0.48,0.28 -0.66,0.51l-0.84 -0.65c0.25,-0.34 0.59,-0.61 1.02,-0.79 0.43,-0.19 0.91,-0.29 1.44,-0.29 0.47,0 0.88,0.08 1.23,0.23 0.34,0.15 0.61,0.37 0.8,0.65 0.19,0.27 0.28,0.6 0.28,0.99 0,0.21 -0.03,0.41 -0.08,0.62 -0.06,0.21 -0.16,0.42 -0.32,0.65 -0.15,0.23 -0.38,0.49 -0.67,0.77l-2.21 2.1 -0.25 -0.45 3.78 0 0 1.02 -4.77 0z"/>
    </g>
    <g>
     <path class="fil1" d="M303.63 189.37c-0.91,0 -1.8,-0.13 -2.67,-0.39 -0.87,-0.27 -1.6,-0.64 -2.2,-1.11l1.02 -1.87c0.47,0.39 1.04,0.7 1.71,0.93 0.68,0.23 1.38,0.35 2.11,0.35 0.85,0 1.52,-0.18 2,-0.53 0.49,-0.36 0.73,-0.84 0.73,-1.45 0,-0.41 -0.1,-0.76 -0.3,-1.07 -0.2,-0.31 -0.56,-0.54 -1.08,-0.71 -0.51,-0.16 -1.21,-0.24 -2.1,-0.24l-3.12 0 0.66 -7.05 7.61 0 0 2.02 -6.72 0 1.26 -1.15 -0.5 5.28 -1.26 -1.13 2.61 0c1.29,0 2.32,0.17 3.1,0.51 0.78,0.34 1.36,0.81 1.72,1.4 0.37,0.6 0.55,1.28 0.55,2.05 0,0.75 -0.19,1.44 -0.56,2.07 -0.37,0.63 -0.93,1.14 -1.69,1.52 -0.76,0.38 -1.72,0.57 -2.88,0.57z"/>
     <path id="1" class="fil1" d="M315.35 189.37c-1.08,0 -2.01,-0.16 -2.8,-0.48 -0.79,-0.32 -1.4,-0.77 -1.83,-1.36 -0.43,-0.58 -0.65,-1.27 -0.65,-2.06 0,-0.79 0.21,-1.46 0.63,-2 0.42,-0.54 1.03,-0.96 1.82,-1.24 0.79,-0.28 1.73,-0.43 2.83,-0.43 1.1,0 2.04,0.15 2.84,0.43 0.79,0.28 1.4,0.7 1.83,1.25 0.43,0.55 0.64,1.21 0.64,1.99 0,0.79 -0.22,1.48 -0.66,2.06 -0.44,0.59 -1.05,1.04 -1.85,1.36 -0.79,0.32 -1.73,0.48 -2.8,0.48zm0 -1.89c0.89,0 1.59,-0.18 2.11,-0.55 0.52,-0.37 0.77,-0.88 0.77,-1.54 0,-0.64 -0.25,-1.14 -0.77,-1.51 -0.52,-0.37 -1.22,-0.56 -2.11,-0.56 -0.89,0 -1.59,0.19 -2.09,0.56 -0.51,0.37 -0.76,0.87 -0.76,1.51 0,0.66 0.25,1.17 0.76,1.54 0.5,0.37 1.2,0.55 2.09,0.55zm0 -4.42c-1,0 -1.86,-0.13 -2.57,-0.4 -0.72,-0.26 -1.27,-0.65 -1.66,-1.16 -0.39,-0.51 -0.58,-1.13 -0.58,-1.84 0,-0.74 0.2,-1.38 0.6,-1.92 0.4,-0.54 0.96,-0.95 1.69,-1.25 0.73,-0.29 1.57,-0.44 2.52,-0.44 0.96,0 1.8,0.15 2.53,0.44 0.73,0.3 1.3,0.71 1.71,1.25 0.4,0.54 0.61,1.18 0.61,1.92 0,0.71 -0.2,1.33 -0.59,1.84 -0.38,0.51 -0.94,0.9 -1.67,1.16 -0.73,0.27 -1.59,0.4 -2.59,0.4zm0 -1.48c0.76,0 1.37,-0.16 1.81,-0.49 0.44,-0.33 0.67,-0.77 0.67,-1.32 0,-0.58 -0.23,-1.03 -0.69,-1.35 -0.45,-0.32 -1.05,-0.48 -1.79,-0.48 -0.74,0 -1.33,0.16 -1.78,0.48 -0.44,0.32 -0.67,0.77 -0.67,1.35 0,0.55 0.22,0.99 0.66,1.32 0.44,0.33 1.04,0.49 1.79,0.49z"/>
     <path id="2" class="fil1" d="M322.49 191.98l1.08 -4.09 0.31 1.37c-0.43,0 -0.79,-0.13 -1.08,-0.4 -0.29,-0.26 -0.44,-0.62 -0.44,-1.08 0,-0.47 0.15,-0.84 0.44,-1.12 0.29,-0.28 0.64,-0.42 1.06,-0.42 0.43,0 0.79,0.15 1.07,0.43 0.29,0.28 0.43,0.66 0.43,1.11 0,0.13 -0.01,0.26 -0.04,0.4 -0.02,0.14 -0.06,0.31 -0.12,0.49 -0.05,0.18 -0.14,0.42 -0.27,0.7l-0.94 2.61 -1.5 0z"/>
     <path id="3" class="fil1" d="M332.3 189.37c-1.07,0 -2,-0.16 -2.79,-0.48 -0.79,-0.32 -1.4,-0.77 -1.84,-1.36 -0.43,-0.58 -0.64,-1.27 -0.64,-2.06 0,-0.79 0.21,-1.46 0.63,-2 0.42,-0.54 1.02,-0.96 1.81,-1.24 0.79,-0.28 1.73,-0.43 2.83,-0.43 1.1,0 2.05,0.15 2.84,0.43 0.8,0.28 1.41,0.7 1.83,1.25 0.43,0.55 0.64,1.21 0.64,1.99 0,0.79 -0.22,1.48 -0.65,2.06 -0.44,0.59 -1.06,1.04 -1.86,1.36 -0.79,0.32 -1.73,0.48 -2.8,0.48zm0 -1.89c0.89,0 1.59,-0.18 2.11,-0.55 0.52,-0.37 0.78,-0.88 0.78,-1.54 0,-0.64 -0.26,-1.14 -0.78,-1.51 -0.52,-0.37 -1.22,-0.56 -2.11,-0.56 -0.89,0 -1.59,0.19 -2.09,0.56 -0.51,0.37 -0.76,0.87 -0.76,1.51 0,0.66 0.25,1.17 0.76,1.54 0.5,0.37 1.2,0.55 2.09,0.55zm0 -4.42c-1,0 -1.86,-0.13 -2.57,-0.4 -0.72,-0.26 -1.27,-0.65 -1.66,-1.16 -0.39,-0.51 -0.58,-1.13 -0.58,-1.84 0,-0.74 0.2,-1.38 0.6,-1.92 0.4,-0.54 0.97,-0.95 1.69,-1.25 0.73,-0.29 1.57,-0.44 2.52,-0.44 0.96,0 1.81,0.15 2.54,0.44 0.72,0.3 1.29,0.71 1.7,1.25 0.41,0.54 0.61,1.18 0.61,1.92 0,0.71 -0.19,1.33 -0.58,1.84 -0.39,0.51 -0.95,0.9 -1.68,1.16 -0.73,0.27 -1.59,0.4 -2.59,0.4zm0 -1.48c0.77,0 1.37,-0.16 1.81,-0.49 0.45,-0.33 0.67,-0.77 0.67,-1.32 0,-0.58 -0.23,-1.03 -0.68,-1.35 -0.46,-0.32 -1.06,-0.48 -1.8,-0.48 -0.74,0 -1.33,0.16 -1.78,0.48 -0.44,0.32 -0.66,0.77 -0.66,1.35 0,0.55 0.22,0.99 0.66,1.32 0.43,0.33 1.03,0.49 1.78,0.49z"/>
     <path id="4" class="fil1" d="M344.57 189.37c-1.02,0 -1.94,-0.26 -2.77,-0.77 -0.82,-0.52 -1.46,-1.28 -1.93,-2.27 -0.47,-0.99 -0.7,-2.2 -0.7,-3.62 0,-1.42 0.23,-2.62 0.7,-3.62 0.47,-0.99 1.11,-1.75 1.93,-2.27 0.83,-0.51 1.75,-0.77 2.77,-0.77 1.04,0 1.96,0.26 2.78,0.77 0.81,0.52 1.46,1.28 1.93,2.27 0.48,1 0.71,2.2 0.71,3.62 0,1.42 -0.23,2.63 -0.71,3.62 -0.47,0.99 -1.12,1.75 -1.93,2.27 -0.82,0.51 -1.74,0.77 -2.78,0.77zm0 -2.09c0.61,0 1.13,-0.16 1.57,-0.49 0.45,-0.33 0.8,-0.83 1.05,-1.51 0.25,-0.68 0.38,-1.53 0.38,-2.57 0,-1.05 -0.13,-1.91 -0.38,-2.58 -0.25,-0.67 -0.6,-1.17 -1.05,-1.5 -0.44,-0.33 -0.96,-0.49 -1.57,-0.49 -0.58,0 -1.09,0.16 -1.54,0.49 -0.45,0.33 -0.81,0.83 -1.06,1.5 -0.25,0.67 -0.38,1.53 -0.38,2.58 0,1.04 0.13,1.89 0.38,2.57 0.25,0.68 0.61,1.18 1.06,1.51 0.45,0.33 0.96,0.49 1.54,0.49z"/>
     <polygon id="5" class="fil1" points="357.47,189.19 357.47,179.3 359.9,179.3 363.88,186.32 362.91,186.32 367.1,179.3 369.26,179.3 369.28,189.19 367.19,189.19 367.19,181.78 367.56,182.03 363.86,188.15 362.86,188.15 359.14,181.86 359.58,181.75 359.58,189.19 "/>
     <path id="6" class="fil1" d="M371.16 184.56l0 -0.81 2.57 -2.44c0.22,-0.2 0.38,-0.38 0.48,-0.54 0.11,-0.15 0.18,-0.29 0.21,-0.42 0.03,-0.14 0.05,-0.26 0.05,-0.38 0,-0.3 -0.1,-0.52 -0.3,-0.69 -0.21,-0.16 -0.51,-0.24 -0.9,-0.24 -0.32,0 -0.6,0.05 -0.86,0.16 -0.25,0.11 -0.47,0.28 -0.66,0.51l-0.84 -0.65c0.25,-0.34 0.59,-0.6 1.02,-0.79 0.43,-0.19 0.91,-0.28 1.44,-0.28 0.47,0 0.88,0.08 1.23,0.23 0.34,0.15 0.61,0.36 0.8,0.64 0.19,0.28 0.28,0.61 0.28,0.99 0,0.21 -0.02,0.42 -0.08,0.62 -0.06,0.21 -0.16,0.43 -0.31,0.66 -0.16,0.22 -0.38,0.48 -0.68,0.77l-2.21 2.1 -0.25 -0.46 3.78 0 0 1.02 -4.77 0z"/>
     <path class="fil1" d="M301.37 155.9l0 -3.22 10.29 -9.77c0.87,-0.82 1.51,-1.53 1.93,-2.15 0.42,-0.62 0.69,-1.19 0.83,-1.72 0.14,-0.53 0.2,-1.03 0.2,-1.5 0,-1.18 -0.4,-2.1 -1.22,-2.76 -0.81,-0.65 -2.01,-0.98 -3.59,-0.98 -1.26,0 -2.4,0.22 -3.42,0.67 -1.03,0.44 -1.91,1.12 -2.65,2.03l-3.37 -2.59c1.01,-1.35 2.38,-2.41 4.09,-3.16 1.72,-0.75 3.64,-1.13 5.76,-1.13 1.87,0 3.51,0.3 4.9,0.91 1.4,0.6 2.47,1.46 3.22,2.57 0.76,1.11 1.13,2.43 1.13,3.96 0,0.84 -0.11,1.67 -0.33,2.5 -0.22,0.82 -0.64,1.7 -1.26,2.61 -0.62,0.91 -1.52,1.94 -2.7,3.07l-8.85 8.4 -1 -1.81 15.14 0 0 4.07 -19.1 0z"/>
     <path id="1" class="fil1" d="M338.91 155.9l-7.15 -9.48 3.78 -2.33 8.81 11.81 -5.44 0zm-14.18 0l0 -19.77 4.63 0 0 19.77 -4.63 0zm3.26 -7.92l0 -3.85 6.7 0 0 3.85 -6.7 0zm7.99 -1.41l-4.33 -0.51 7.26 -9.93 4.96 0 -7.89 10.44z"/>
    </g>
    <g>
     <path class="fil1" d="M409.8 424.58l0 -3.22 10.29 -9.78c0.86,-0.81 1.5,-1.53 1.92,-2.14 0.42,-0.62 0.7,-1.19 0.84,-1.72 0.13,-0.53 0.2,-1.03 0.2,-1.5 0,-1.19 -0.41,-2.11 -1.22,-2.76 -0.82,-0.65 -2.01,-0.98 -3.59,-0.98 -1.26,0 -2.4,0.22 -3.43,0.66 -1.02,0.45 -1.9,1.13 -2.64,2.04l-3.37 -2.59c1.01,-1.36 2.38,-2.41 4.09,-3.17 1.72,-0.75 3.63,-1.12 5.76,-1.12 1.87,0 3.51,0.3 4.9,0.9 1.39,0.61 2.47,1.46 3.22,2.58 0.75,1.11 1.13,2.43 1.13,3.96 0,0.83 -0.11,1.67 -0.33,2.49 -0.23,0.83 -0.64,1.7 -1.26,2.61 -0.62,0.92 -1.52,1.94 -2.7,3.08l-8.85 8.4 -1 -1.81 15.14 0 0 4.07 -19.1 0z"/>
     <path id="1" class="fil1" d="M442.15 424.84c-2.07,0 -3.92,-0.44 -5.53,-1.32 -1.62,-0.87 -2.88,-2.08 -3.8,-3.61 -0.91,-1.53 -1.37,-3.27 -1.37,-5.22 0,-1.97 0.46,-3.72 1.37,-5.23 0.92,-1.52 2.18,-2.71 3.8,-3.58 1.61,-0.86 3.46,-1.29 5.53,-1.29 1.93,0 3.62,0.39 5.09,1.17 1.47,0.77 2.59,1.91 3.35,3.42l-3.55 2.07c-0.59,-0.94 -1.32,-1.63 -2.17,-2.07 -0.85,-0.45 -1.77,-0.67 -2.76,-0.67 -1.13,0 -2.15,0.25 -3.07,0.74 -0.91,0.5 -1.63,1.21 -2.15,2.13 -0.51,0.93 -0.77,2.03 -0.77,3.31 0,1.29 0.26,2.39 0.77,3.32 0.52,0.92 1.24,1.63 2.15,2.12 0.92,0.5 1.94,0.75 3.07,0.75 0.99,0 1.91,-0.23 2.76,-0.67 0.85,-0.44 1.58,-1.14 2.17,-2.07l3.55 2.07c-0.76,1.48 -1.88,2.62 -3.35,3.42 -1.47,0.81 -3.16,1.21 -5.09,1.21z"/>
     <path class="fil1" d="M410.7 456.16l0 -1.66 6.39 -8.35 2.57 0 -6.29 8.35 -1.21 -0.37 10.28 0 0 2.03 -11.74 0zm7.11 2.94l0 -2.94 0.07 -2.03 0 -2.61 2.26 0 0 7.58 -2.33 0z"/>
     <path id="1" class="fil1" d="M427.34 459.29c-0.91,0 -1.81,-0.13 -2.67,-0.4 -0.87,-0.26 -1.61,-0.63 -2.2,-1.1l1.04 -1.87c0.47,0.38 1.04,0.69 1.7,0.93 0.67,0.23 1.36,0.35 2.09,0.35 0.87,0 1.54,-0.18 2.02,-0.53 0.48,-0.35 0.72,-0.83 0.72,-1.43 0,-0.6 -0.22,-1.06 -0.66,-1.41 -0.45,-0.35 -1.16,-0.52 -2.15,-0.52l-1.19 0 0 -1.65 3.71 -4.4 0.31 0.91 -6.96 0 0 -2.02 8.83 0 0 1.61 -3.7 4.4 -1.26 -0.74 0.72 0c1.59,0 2.79,0.36 3.58,1.07 0.8,0.71 1.2,1.62 1.2,2.73 0,0.73 -0.19,1.4 -0.56,2.01 -0.37,0.62 -0.93,1.12 -1.69,1.5 -0.76,0.37 -1.72,0.56 -2.88,0.56z"/>
     <path id="2" class="fil1" d="M434.13 461.9l1.08 -4.09 0.31 1.37c-0.43,0 -0.79,-0.13 -1.08,-0.4 -0.29,-0.27 -0.44,-0.63 -0.44,-1.08 0,-0.47 0.15,-0.84 0.44,-1.12 0.29,-0.28 0.64,-0.42 1.06,-0.42 0.43,0 0.79,0.14 1.07,0.43 0.29,0.28 0.43,0.65 0.43,1.11 0,0.12 -0.01,0.25 -0.04,0.4 -0.02,0.14 -0.06,0.3 -0.12,0.49 -0.05,0.18 -0.14,0.42 -0.27,0.7l-0.94 2.61 -1.5 0z"/>
     <path id="3" class="fil1" d="M443.74 459.29c-1.03,0 -1.95,-0.26 -2.77,-0.78 -0.82,-0.52 -1.46,-1.27 -1.93,-2.27 -0.47,-0.99 -0.71,-2.19 -0.71,-3.61 0,-1.42 0.24,-2.63 0.71,-3.62 0.47,-1 1.11,-1.75 1.93,-2.27 0.82,-0.52 1.74,-0.78 2.77,-0.78 1.03,0 1.96,0.26 2.77,0.78 0.82,0.52 1.46,1.27 1.94,2.27 0.47,0.99 0.71,2.2 0.71,3.62 0,1.42 -0.24,2.62 -0.71,3.61 -0.48,1 -1.12,1.75 -1.94,2.27 -0.81,0.52 -1.74,0.78 -2.77,0.78zm0 -2.09c0.6,0 1.13,-0.16 1.57,-0.49 0.44,-0.33 0.79,-0.83 1.05,-1.51 0.25,-0.68 0.38,-1.54 0.38,-2.57 0,-1.05 -0.13,-1.91 -0.38,-2.58 -0.26,-0.68 -0.61,-1.18 -1.05,-1.5 -0.44,-0.33 -0.97,-0.49 -1.57,-0.49 -0.58,0 -1.1,0.16 -1.55,0.49 -0.45,0.32 -0.8,0.82 -1.05,1.5 -0.26,0.67 -0.38,1.53 -0.38,2.58 0,1.03 0.12,1.89 0.38,2.57 0.25,0.68 0.6,1.18 1.05,1.51 0.45,0.33 0.97,0.49 1.55,0.49z"/>
     <path id="4" class="fil1" d="M455.08 459.29c-0.91,0 -1.8,-0.13 -2.67,-0.4 -0.87,-0.26 -1.6,-0.63 -2.19,-1.1l1.01 -1.87c0.47,0.38 1.04,0.69 1.71,0.93 0.68,0.23 1.38,0.35 2.11,0.35 0.85,0 1.52,-0.18 2,-0.54 0.49,-0.36 0.74,-0.84 0.74,-1.44 0,-0.41 -0.11,-0.77 -0.31,-1.08 -0.2,-0.3 -0.56,-0.54 -1.07,-0.7 -0.52,-0.16 -1.22,-0.24 -2.1,-0.24l-3.13 0 0.66 -7.05 7.61 0 0 2.02 -6.72 0 1.26 -1.15 -0.5 5.27 -1.26 -1.13 2.61 0c1.29,0 2.32,0.17 3.1,0.51 0.79,0.34 1.36,0.81 1.72,1.41 0.37,0.6 0.55,1.28 0.55,2.05 0,0.75 -0.19,1.44 -0.56,2.07 -0.37,0.63 -0.93,1.13 -1.69,1.52 -0.76,0.38 -1.72,0.57 -2.88,0.57z"/>
     <path id="5" class="fil1" d="M465.8 459.29c-0.91,0 -1.81,-0.13 -2.68,-0.4 -0.87,-0.26 -1.6,-0.63 -2.19,-1.1l1.02 -1.87c0.47,0.38 1.04,0.69 1.71,0.93 0.67,0.23 1.37,0.35 2.1,0.35 0.85,0 1.52,-0.18 2.01,-0.54 0.49,-0.36 0.73,-0.84 0.73,-1.44 0,-0.41 -0.1,-0.77 -0.3,-1.08 -0.21,-0.3 -0.57,-0.54 -1.08,-0.7 -0.51,-0.16 -1.21,-0.24 -2.1,-0.24l-3.13 0 0.67 -7.05 7.61 0 0 2.02 -6.72 0 1.26 -1.15 -0.5 5.27 -1.26 -1.13 2.61 0c1.28,0 2.32,0.17 3.1,0.51 0.78,0.34 1.36,0.81 1.72,1.41 0.36,0.6 0.55,1.28 0.55,2.05 0,0.75 -0.19,1.44 -0.56,2.07 -0.37,0.63 -0.93,1.13 -1.69,1.52 -0.76,0.38 -1.72,0.57 -2.88,0.57z"/>
     <polygon id="6" class="fil1" points="478.16,459.1 478.16,449.22 480.59,449.22 484.57,456.24 483.6,456.24 487.79,449.22 489.95,449.22 489.97,459.1 487.88,459.1 487.88,451.7 488.25,451.94 484.55,458.07 483.55,458.07 479.83,451.78 480.27,451.66 480.27,459.1 "/>
     <path id="7" class="fil1" d="M491.85 454.48l0 -0.81 2.57 -2.44c0.22,-0.2 0.38,-0.38 0.48,-0.54 0.11,-0.15 0.18,-0.3 0.21,-0.43 0.03,-0.13 0.05,-0.26 0.05,-0.37 0,-0.3 -0.1,-0.53 -0.3,-0.69 -0.21,-0.17 -0.51,-0.25 -0.9,-0.25 -0.32,0 -0.6,0.06 -0.86,0.17 -0.25,0.11 -0.47,0.28 -0.66,0.51l-0.84 -0.65c0.25,-0.34 0.59,-0.6 1.02,-0.79 0.43,-0.19 0.91,-0.28 1.44,-0.28 0.47,0 0.88,0.07 1.23,0.22 0.34,0.15 0.61,0.37 0.8,0.65 0.19,0.27 0.28,0.6 0.28,0.99 0,0.21 -0.02,0.41 -0.08,0.62 -0.06,0.21 -0.16,0.43 -0.31,0.65 -0.16,0.23 -0.38,0.49 -0.68,0.77l-2.21 2.1 -0.25 -0.45 3.78 0 0 1.02 -4.77 0z"/>
    </g>
   </g>
   <g id="сантехника">
    <g id="ванна">
     <rect class="fil0 str2" transform="matrix(-4.06181E-14 0.519695 -0.526582 -4.25385E-14 850.676 304.624)" width="107.5" height="49.37" rx="6.13" ry="6.13"/>
     <rect class="fil0 str2" transform="matrix(8.46588E-15 -0.319654 0.348388 9.22691E-15 825.617 359.837)" width="158.07" height="69.53" rx="6.51" ry="6.51"/>
     <line class="fil0 str2" x1="837.73" y1="307.94" x2="837.73" y2= "314.85" />
     <line class="fil0 str2" x1="837.73" y1="311.4" x2="838.93" y2= "311.4" />
    </g>
    <g id="раковина_x0020_в_x0020_ванной">
     <ellipse class="fil0 str2" transform="matrix(9.00517E-15 -0.340016 0.340016 9.00517E-15 802.36 312.108)" rx="18.75" ry="32.29"/>
     <line class="fil0 str2" x1="811.97" y1="309.02" x2="811.34" y2= "304.58" />
     <line class="fil0 str2" x1="792.75" y1="309.02" x2="793.35" y2= "304.5" />
     <line class="fil0 str2" x1="811.34" y1="304.58" x2="793.35" y2= "304.58" />
     <ellipse class="fil0 str2" transform="matrix(1.80103E-14 -0.680032 0.340016 9.00517E-15 802.36 312.108)" rx="0.91" ry="1.82"/>
     <line class="fil0 str2" x1="802.36" y1="309.14" x2="802.36" y2= "305.3" />
     <line class="fil0 str2" x1="802.36" y1="307.22" x2="803.76" y2= "307.22" />
    </g>
    <g id="стояк">
     <rect class="fil0 str2" x="731.09" y="304.11" width="11.69" height="37.41"/>
     <rect class="fil0 str2" x="731.77" y="304.87" width="10.31" height="7.07"/>
     <rect class="fil0 str2" x="731.75" y="333.71" width="10.31" height="7.07"/>
     <rect class="fil0 str2" x="731.77" y="313.34" width="10.28" height="19.21"/>
    </g>
    <g id="ванна_0">
     <rect class="fil0 str2" x="686.09" y="347.48" width="55.87" height="26" rx="3.18" ry="3.23"/>
     <rect class="fil0 str2" x="686.75" y="348.42" width="50.53" height="24.22" rx="2.08" ry="2.27"/>
     <line class="fil0 str2" x1="738.64" y1="360.54" x2="731.73" y2= "360.54" />
     <line class="fil0 str2" x1="735.19" y1="360.54" x2="735.19" y2= "361.74" />
    </g>
    <g id="раковина_x0020_кухня">
     <rect class="fil0 str2" x="394.99" y="227.46" width="22.46" height="20.34" rx="1.76" ry="1.73"/>
     <rect class="fil0 str2" x="395.99" y="228.45" width="17.07" height="18.37" rx="1.07" ry="1.15"/>
     <line class="fil0 str2" x1="414.34" y1="237.63" x2="408.19" y2= "237.63" />
     <line class="fil0 str2" x1="411.27" y1="237.63" x2="411.27" y2= "238.57" />
    </g>
    <g id="раковина_x0020_кухня_1">
     <rect class="fil0 str2" x="582.59" y="227.3" width="22.46" height="20.34" rx="1.76" ry="1.73"/>
     <rect class="fil0 str2" x="586.98" y="228.29" width="17.07" height="18.37" rx="1.07" ry="1.15"/>
     <line class="fil0 str2" x1="585.7" y1="237.47" x2="591.85" y2= "237.47" />
     <line class="fil0 str2" x1="588.78" y1="237.47" x2="588.78" y2= "236.53" />
    </g>
    <g id="ванна_2">
     <rect class="fil0 str2" transform="matrix(4.06181E-14 0.519695 0.526582 -4.25385E-14 149.267 304.752)" width="107.5" height="49.37" rx="6.13" ry="6.13"/>
     <rect class="fil0 str2" transform="matrix(-8.46588E-15 -0.319654 -0.348388 9.22691E-15 174.326 359.966)" width="158.07" height="69.53" rx="6.51" ry="6.51"/>
     <line class="fil0 str2" x1="162.21" y1="308.07" x2="162.21" y2= "314.98" />
     <line class="fil0 str2" x1="162.21" y1="311.53" x2="161.01" y2= "311.53" />
    </g>
    <g id="раковина_x0020_в_x0020_ванной_3">
     <ellipse class="fil0 str2" transform="matrix(-9.00517E-15 -0.340016 -0.340016 9.00517E-15 197.583 312.237)" rx="18.75" ry="32.29"/>
     <line class="fil0 str2" x1="187.97" y1="309.15" x2="188.61" y2= "304.71" />
     <line class="fil0 str2" x1="207.19" y1="309.15" x2="206.59" y2= "304.63" />
     <line class="fil0 str2" x1="188.61" y1="304.71" x2="206.59" y2= "304.71" />
     <ellipse class="fil0 str2" transform="matrix(-1.80103E-14 -0.680032 -0.340016 9.00517E-15 197.583 312.237)" rx="0.91" ry="1.82"/>
     <line class="fil0 str2" x1="197.58" y1="309.27" x2="197.58" y2= "305.43" />
     <line class="fil0 str2" x1="197.58" y1="307.35" x2="196.19" y2= "307.35" />
    </g>
    <g id="раковина_x0020_кухня_4">
     <rect class="fil0 str2" x="503.07" y="358.76" width="22.46" height="20.34" rx="1.76" ry="1.73"/>
     <rect class="fil0 str2" x="504.07" y="359.75" width="17.07" height="18.37" rx="1.07" ry="1.15"/>
     <line class="fil0 str2" x1="522.43" y1="368.94" x2="516.28" y2= "368.94" />
     <line class="fil0 str2" x1="519.35" y1="368.94" x2="519.35" y2= "369.88" />
    </g>
    <g id="стояк_5">
     <rect class="fil0 str2" x="839.53" y="249.89" width="11.69" height="37.41"/>
     <rect class="fil0 str2" x="840.21" y="250.65" width="10.31" height="7.07"/>
     <rect class="fil0 str2" x="840.19" y="279.49" width="10.31" height="7.07"/>
     <rect class="fil0 str2" x="840.21" y="259.12" width="10.28" height="19.21"/>
    </g>
    <g id="стояк_6">
     <rect class="fil0 str2" x="149.02" y="250.01" width="11.69" height="37.41"/>
     <rect class="fil0 str2" x="149.7" y="250.78" width="10.31" height="7.07"/>
     <rect class="fil0 str2" x="149.67" y="279.62" width="10.31" height="7.07"/>
     <rect class="fil0 str2" x="149.7" y="259.25" width="10.28" height="19.21"/>
    </g>
   </g>
   <g id="планировки_x0020_стен_x0020_внутренние">
    <line class="fil0 str0" x1="364.51" y1="574.01" x2="527.09" y2= "574.01" />
    <line class="fil0 str0" x1="527.09" y1="574.01" x2="743.85" y2= "574.01" />
    <line class="fil0 str0" x1="256.13" y1="32.1" x2="418.7" y2= "32.1" />
    <line class="fil0 str0" x1="743.85" y1="32.1" x2="581.27" y2= "32.1" />
    <line class="fil0 str0" x1="256.13" y1="86.29" x2="256.13" y2= "256.04" />
    <line class="fil0 str0" x1="220" y1="248.87" x2="220" y2= "256.04" />
    <line class="fil0 str0" x1="379.65" y1="248.87" x2="418.7" y2= "248.87" />
    <line class="fil0 str0" x1="256.13" y1="303.06" x2="256.13" y2= "295.83" />
    <line class="fil0 str0" x1="220" y1="303.06" x2="147.74" y2= "303.06" />
    <line class="fil0 str0" x1="220" y1="248.87" x2="147.74" y2= "248.87" />
    <line class="fil0 str0" x1="220" y1="375.32" x2="147.74" y2= "375.32" />
    <line class="fil0 str0" x1="220" y1="284.99" x2="220" y2= "303.06" />
    <line class="fil0 str0" x1="220" y1="248.87" x2="223.61" y2= "248.87" />
    <line class="fil0 str0" x1="220" y1="303.06" x2="220" y2= "321.13" />
    <line class="fil0 str0" x1="220" y1="353.64" x2="220" y2= "375.32" />
    <line class="fil0 str0" x1="256.13" y1="375.32" x2="364.51" y2= "375.32" />
    <line class="fil0 str0" x1="364.51" y1="397.86" x2="364.51" y2= "357.25" />
    <line class="fil0 str0" x1="406.5" y1="357.25" x2="364.51" y2= "357.25" />
    <line class="fil0 str0" x1="364.51" y1="308.47" x2="364.51" y2= "303.05" />
    <line class="fil0 str0" x1="364.51" y1="340.98" x2="364.51" y2= "357.25" />
    <line class="fil0 str0" x1="474.56" y1="357.25" x2="527.09" y2= "357.25" />
    <line class="fil0 str0" x1="364.51" y1="430.37" x2="364.51" y2= "519.83" />
    <line class="fil0 str0" x1="743.85" y1="86.29" x2="743.85" y2= "256.04" />
    <line class="fil0 str0" x1="779.98" y1="248.87" x2="779.98" y2= "256.04" />
    <line class="fil0 str0" x1="620.32" y1="248.87" x2="581.27" y2= "248.87" />
    <line class="fil0 str0" x1="743.85" y1="303.06" x2="743.85" y2= "295.83" />
    <line class="fil0 str0" x1="779.98" y1="303.06" x2="852.23" y2= "303.06" />
    <line class="fil0 str0" x1="779.98" y1="248.87" x2="852.23" y2= "248.87" />
    <line class="fil0 str0" x1="779.98" y1="375.32" x2="852.23" y2= "375.32" />
    <line class="fil0 str0" x1="779.98" y1="284.99" x2="779.98" y2= "303.06" />
    <line class="fil0 str0" x1="779.98" y1="248.87" x2="776.36" y2= "248.87" />
    <line class="fil0 str0" x1="779.98" y1="303.06" x2="779.98" y2= "321.13" />
    <line class="fil0 str0" x1="779.98" y1="353.64" x2="779.98" y2= "375.32" />
    <line class="fil0 str0" x1="743.85" y1="375.32" x2="635.46" y2= "375.32" />
    <line class="fil0 str0" x1="635.46" y1="397.86" x2="635.46" y2= "357.25" />
    <line class="fil0 str0" x1="608.38" y1="357.25" x2="635.46" y2= "357.25" />
    <line class="fil0 str0" x1="635.46" y1="308.47" x2="635.46" y2= "303.05" />
    <line class="fil0 str0" x1="635.46" y1="340.98" x2="635.46" y2= "357.25" />
    <line class="fil0 str0" x1="525.42" y1="357.25" x2="472.9" y2= "357.25" />
    <line class="fil0 str0" x1="635.46" y1="430.37" x2="635.46" y2= "519.83" />
    <line class="fil0 str0" x1="551.42" y1="357.25" x2="527.09" y2= "357.25" />
    <line class="fil0 str1" x1="223.61" y1="245.62" x2="223.61" y2= "252.12" />
    <line class="fil0 str0" x1="251.89" y1="248.87" x2="256.13" y2= "248.87" />
    <line class="fil0 str1" x1="251.89" y1="245.62" x2="251.89" y2= "252.12" />
    <line class="fil0 str1" x1="776.36" y1="245.62" x2="776.36" y2= "252.12" />
    <line class="fil0 str0" x1="746.85" y1="248.87" x2="743.85" y2= "248.87" />
    <line class="fil0 str1" x1="746.85" y1="245.62" x2="746.85" y2= "252.12" />
    <line class="fil0 str1" x1="776.73" y1="256.04" x2="783.23" y2= "256.04" />
    <line class="fil0 str1" x1="776.73" y1="284.99" x2="783.23" y2= "284.99" />
    <line class="fil0 str1" x1="776.73" y1="321.13" x2="783.23" y2= "321.13" />
    <line class="fil0 str1" x1="776.73" y1="353.64" x2="783.23" y2= "353.64" />
    <line class="fil0 str1" x1="632.22" y1="340.98" x2="638.72" y2= "340.98" />
    <line class="fil0 str1" x1="632.22" y1="308.47" x2="638.72" y2= "308.47" />
    <line class="fil0 str1" x1="632.22" y1="397.86" x2="638.72" y2= "397.86" />
    <line class="fil0 str1" x1="632.22" y1="430.37" x2="638.72" y2= "430.37" />
    <line class="fil0 str1" x1="740.6" y1="295.83" x2="747.09" y2= "295.83" />
    <line class="fil0 str1" x1="740.6" y1="256.04" x2="747.09" y2= "256.04" />
    <line class="fil0 str1" x1="361.27" y1="340.98" x2="367.76" y2= "340.98" />
    <line class="fil0 str1" x1="361.27" y1="308.47" x2="367.76" y2= "308.47" />
    <line class="fil0 str1" x1="361.27" y1="397.86" x2="367.76" y2= "397.86" />
    <line class="fil0 str1" x1="361.27" y1="430.37" x2="367.76" y2= "430.37" />
    <line class="fil0 str1" x1="216.76" y1="353.64" x2="223.25" y2= "353.64" />
    <line class="fil0 str1" x1="216.76" y1="321.13" x2="223.25" y2= "321.13" />
    <line class="fil0 str1" x1="216.76" y1="284.99" x2="223.25" y2= "284.99" />
    <line class="fil0 str1" x1="216.76" y1="256.04" x2="223.25" y2= "256.04" />
    <line class="fil0 str1" x1="252.88" y1="256.04" x2="259.38" y2= "256.04" />
    <line class="fil0 str1" x1="252.88" y1="295.83" x2="259.38" y2= "295.83" />
    <line class="fil0 str0" x1="635.46" y1="519.83" x2="635.46" y2= "525.24" />
    <line class="fil0 str0" x1="635.46" y1="568.63" x2="635.46" y2= "574.04" />
    <line class="fil0 str1" x1="379.65" y1="245.62" x2="379.65" y2= "252.12" />
    <line class="fil0 str1" x1="620.32" y1="245.62" x2="620.32" y2= "252.12" />
    <line class="fil0 str1" x1="551.42" y1="354" x2="551.42" y2= "360.5" />
    <line class="fil0 str1" x1="608.38" y1="354" x2="608.38" y2= "360.5" />
    <line class="fil0 str1" x1="472.9" y1="354" x2="472.9" y2= "360.5" />
    <line class="fil0 str1" x1="406.5" y1="354" x2="406.5" y2= "360.5" />
   </g>
  </g>
 </g>
</svg>
