<?xml version="1.0" encoding="UTF-8"?>
<!DOCTYPE svg PUBLIC "-//W3C//DTD SVG 1.1//EN" "http://www.w3.org/Graphics/SVG/1.1/DTD/svg11.dtd">
<!-- Creator: CorelDRAW 2019 (64-Bit) -->
<svg xmlns="http://www.w3.org/2000/svg" xml:space="preserve" version="1.1" style="shape-rendering:geometricPrecision; text-rendering:geometricPrecision; image-rendering:optimizeQuality; fill-rule:evenodd; clip-rule:evenodd"
viewBox="0 0 1000 600"
 xmlns:xlink="http://www.w3.org/1999/xlink">
 <defs>
  <style type="text/css">
   <![CDATA[
    .str3 {stroke:#2B2A29;stroke-miterlimit:22.9256}
    .str2 {stroke:#2B2A29;stroke-miterlimit:22.9256}
    .str1 {stroke:#2B2A29;stroke-width:2;stroke-miterlimit:22.9256}
    .str0 {stroke:#2B2A29;stroke-width:3;stroke-miterlimit:22.9256}
    .fil0 {fill:none}
    .fil1 {fill:black;fill-rule:nonzero}
   ]]>
  </style>
 </defs>
 <g id="Слой_x0020_1">
  <metadata id="CorelCorpID_0Corel-Layer"/>
  <g id="секция_x0020_5">
   <g id="контуры_x0020_секции">
    <line class="fil0 str0" x1="143.28" y1="80.75" x2="418.83" y2= "80.75" />
    <line class="fil0 str0" x1="143.28" y1="521.61" x2="859.69" y2= "521.61" />
    <line class="fil0 str0" x1="143.28" y1="80.75" x2="143.28" y2= "521.61" />
    <line class="fil0 str0" x1="859.69" y1="80.75" x2="859.69" y2= "521.61" />
    <line class="fil0 str0" x1="749.48" y1="576.72" x2="639.27" y2= "576.72" />
    <line class="fil0 str0" x1="749.48" y1="521.61" x2="749.48" y2= "576.72" />
    <line class="fil0 str0" x1="639.27" y1="576.72" x2="529.04" y2= "576.72" />
    <line class="fil0 str0" x1="529.04" y1="521.61" x2="529.04" y2= "576.72" />
    <line class="fil0 str0" x1="529.04" y1="576.72" x2="363.72" y2= "576.72" />
    <line class="fil0 str0" x1="363.72" y1="521.61" x2="363.72" y2= "576.72" />
    <line class="fil0 str0" x1="363.72" y1="576.72" x2="253.5" y2= "576.72" />
    <line class="fil0 str0" x1="253.5" y1="521.61" x2="253.5" y2= "576.72" />
    <line class="fil0 str0" x1="253.5" y1="80.75" x2="253.5" y2= "25.63" />
    <line class="fil0 str0" x1="418.83" y1="25.63" x2="253.5" y2= "25.63" />
    <line class="fil0 str0" x1="418.83" y1="80.75" x2="418.83" y2= "25.63" />
    <line class="fil0 str0" x1="584.15" y1="25.63" x2="418.83" y2= "25.63" />
    <line class="fil0 str0" x1="584.15" y1="80.75" x2="584.15" y2= "25.63" />
    <line class="fil0 str0" x1="749.48" y1="25.63" x2="584.15" y2= "25.63" />
    <line class="fil0 str0" x1="749.48" y1="80.75" x2="749.48" y2= "25.63" />
    <line class="fil0 str0" x1="584.15" y1="80.75" x2="859.69" y2= "80.75" />
    <line class="fil0 str0" x1="584.15" y1="301.2" x2="749.48" y2= "301.2" />
    <line class="fil0 str0" x1="363.72" y1="521.61" x2="363.72" y2= "301.18" />
    <line class="fil0 str0" x1="529.04" y1="521.61" x2="529.04" y2= "301.18" />
    <line class="fil0 str0" x1="749.48" y1="521.61" x2="749.48" y2= "301.18" />
    <line class="fil0 str0" x1="584.15" y1="80.75" x2="584.15" y2= "246.07" />
    <line class="fil0 str0" x1="418.83" y1="80.75" x2="418.83" y2= "246.07" />
    <line class="fil0 str0" x1="418.83" y1="246.07" x2="418.83" y2= "255.26" />
    <line class="fil0 str0" x1="418.83" y1="246.07" x2="324.26" y2= "246.07" />
    <line class="fil0 str0" x1="358.21" y1="301.18" x2="363.72" y2= "301.18" />
    <line class="fil0 str0" x1="324.26" y1="301.18" x2="143.28" y2= "301.18" />
    <line class="fil0 str0" x1="324.26" y1="301.18" x2="324.26" y2= "295.67" />
    <line class="fil0 str0" x1="324.26" y1="301.18" x2="329.77" y2= "301.18" />
    <line class="fil0 str0" x1="324.26" y1="255.26" x2="324.26" y2= "246.07" />
    <line class="fil0 str0" x1="418.83" y1="295.68" x2="418.83" y2= "301.2" />
    <line class="fil0 str0" x1="418.83" y1="301.2" x2="363.72" y2= "301.2" />
    <line class="fil0 str0" x1="529.04" y1="301.2" x2="457.4" y2= "301.2" />
    <line class="fil0 str0" x1="418.83" y1="301.2" x2="424.34" y2= "301.2" />
    <line class="fil0 str0" x1="584.15" y1="292.27" x2="584.15" y2= "301.2" />
    <line class="fil0 str0" x1="584.15" y1="245.68" x2="584.15" y2= "255.26" />
    <line class="fil0 str0" x1="529.04" y1="301.18" x2="538.23" y2= "301.2" />
    <line class="fil0 str0" x1="574.97" y1="301.18" x2="584.15" y2= "301.2" />
   </g>
   <g id="планировка_x0020_квартир">
    <line class="fil0 str1" x1="253.5" y1="80.75" x2="253.5" y2= "194.64" />
    <line class="fil0 str1" x1="253.5" y1="246.07" x2="143.28" y2= "246.07" />
    <line class="fil0 str1" x1="253.5" y1="291.99" x2="253.5" y2= "301.18" />
    <line class="fil0 str1" x1="253.5" y1="246.07" x2="253.5" y2= "255.26" />
    <line class="fil0 str1" x1="253.5" y1="246.07" x2="253.5" y2= "227.7" />
    <line class="fil0 str1" x1="253.5" y1="339.75" x2="253.5" y2= "374.66" />
    <line class="fil0 str1" x1="253.5" y1="374.66" x2="143.28" y2= "374.66" />
    <line class="fil0 str1" x1="253.5" y1="374.66" x2="253.5" y2= "393.03" />
    <line class="fil0 str1" x1="253.5" y1="426.09" x2="253.5" y2= "521.61" />
    <line class="fil0 str1" x1="253.5" y1="301.18" x2="253.5" y2= "306.69" />
    <line class="fil0 str1" x1="363.72" y1="356.28" x2="324.26" y2= "356.28" />
    <line class="fil0 str1" x1="253.5" y1="356.28" x2="271.87" y2= "356.28" />
    <line class="fil0 str1" x1="418.83" y1="339.77" x2="418.83" y2= "411.39" />
    <line class="fil0 str1" x1="363.72" y1="411.39" x2="418.83" y2= "411.39" />
    <line class="fil0 str1" x1="418.83" y1="301.2" x2="418.83" y2= "306.71" />
    <line class="fil0 str1" x1="452.49" y1="356.31" x2="418.83" y2= "356.31" />
    <line class="fil0 str1" x1="574.97" y1="356.28" x2="529.04" y2= "356.28" />
    <line class="fil0 str1" x1="639.27" y1="576.72" x2="639.27" y2= "521.61" />
    <line class="fil0 str1" x1="621.31" y1="356.28" x2="639.27" y2= "356.28" />
    <line class="fil0 str1" x1="639.27" y1="374.68" x2="749.48" y2= "374.68" />
    <line class="fil0 str1" x1="639.27" y1="374.68" x2="639.27" y2= "393.05" />
    <line class="fil0 str1" x1="639.27" y1="426.12" x2="639.27" y2= "521.64" />
    <line class="fil0 str1" x1="639.27" y1="339.77" x2="639.27" y2= "374.68" />
    <line class="fil0 str1" x1="639.27" y1="301.2" x2="639.27" y2= "306.71" />
    <line class="fil0 str1" x1="786.22" y1="374.68" x2="859.69" y2= "374.68" />
    <line class="fil0 str1" x1="786.22" y1="301.18" x2="859.69" y2= "301.18" />
    <line class="fil0 str1" x1="786.22" y1="356.31" x2="786.22" y2= "374.68" />
    <line class="fil0 str1" x1="754.98" y1="374.68" x2="749.48" y2= "374.68" />
    <line class="fil0 str1" x1="786.22" y1="374.68" x2="780.7" y2= "374.68" />
    <line class="fil0 str1" x1="786.22" y1="301.18" x2="786.22" y2= "323.24" />
    <line class="fil0 str1" x1="786.22" y1="246.07" x2="859.69" y2= "246.07" />
    <line class="fil0 str1" x1="786.22" y1="246.07" x2="786.22" y2= "257.09" />
    <line class="fil0 str1" x1="786.22" y1="301.18" x2="786.22" y2= "290.16" />
    <line class="fil0 str1" x1="749.48" y1="301.2" x2="749.48" y2= "290.16" />
    <line class="fil0 str1" x1="638.96" y1="246.07" x2="584.15" y2= "246.07" />
    <line class="fil0 str1" x1="749.48" y1="257.09" x2="749.48" y2= "246.07" />
    <line class="fil0 str1" x1="749.48" y1="80.75" x2="749.48" y2= "246.07" />
   </g>
   <g id="Лестница">
    <g>
     <rect class="fil0 str2" x="418.83" y="119.32" width="44.09" height="88.17"/>
     <line class="fil0 str2" x1="418.83" y1="130.34" x2="462.92" y2= "130.34" />
     <line class="fil0 str2" x1="418.83" y1="141.36" x2="462.92" y2= "141.36" />
     <line class="fil0 str2" x1="418.83" y1="152.39" x2="462.92" y2= "152.39" />
     <line class="fil0 str2" x1="418.83" y1="163.41" x2="462.92" y2= "163.41" />
     <line class="fil0 str2" x1="418.83" y1="174.43" x2="462.92" y2= "174.43" />
     <line class="fil0 str2" x1="418.83" y1="185.45" x2="462.92" y2= "185.45" />
     <line class="fil0 str2" x1="418.83" y1="196.47" x2="462.92" y2= "196.47" />
     <line class="fil0 str2" x1="440.87" y1="119.32" x2="440.87" y2= "207.5" />
     <line class="fil0 str2" x1="440.87" y1="207.5" x2="446.18" y2= "194.7" />
     <line class="fil0 str2" x1="440.87" y1="207.5" x2="435.56" y2= "194.7" />
    </g>
    <g>
     <rect class="fil0 str2" x="540.06" y="119.32" width="44.09" height="88.17"/>
     <line class="fil0 str2" x1="540.06" y1="196.47" x2="584.15" y2= "196.47" />
     <line class="fil0 str2" x1="540.06" y1="185.45" x2="584.15" y2= "185.45" />
     <line class="fil0 str2" x1="540.06" y1="174.43" x2="584.15" y2= "174.43" />
     <line class="fil0 str2" x1="540.06" y1="163.41" x2="584.15" y2= "163.41" />
     <line class="fil0 str2" x1="540.06" y1="152.39" x2="584.15" y2= "152.39" />
     <line class="fil0 str2" x1="540.06" y1="141.36" x2="584.15" y2= "141.36" />
     <line class="fil0 str2" x1="540.06" y1="130.34" x2="584.15" y2= "130.34" />
     <line class="fil0 str2" x1="562.11" y1="207.5" x2="562.11" y2= "119.32" />
     <line class="fil0 str2" x1="562.11" y1="119.32" x2="567.42" y2= "132.11" />
     <line class="fil0 str2" x1="562.11" y1="119.32" x2="556.8" y2= "132.11" />
    </g>
    <rect class="fil0 str2" x="462.92" y="119.32" width="77.16" height="88.17"/>
    <line class="fil0 str2" x1="540.06" y1="119.32" x2="462.92" y2= "207.5" />
    <line class="fil0 str2" x1="462.92" y1="119.32" x2="540.06" y2= "207.5" />
   </g>
   <g id="Засечки">
    <line class="fil0 str2" x1="271.87" y1="352.93" x2="271.87" y2= "359.65" />
    <line class="fil0 str2" x1="324.26" y1="352.93" x2="324.26" y2= "359.65" />
    <line class="fil0 str2" x1="452.49" y1="352.95" x2="452.49" y2= "359.66" />
    <line class="fil0 str2" x1="574.97" y1="352.93" x2="574.97" y2= "359.65" />
    <line class="fil0 str2" x1="621.31" y1="352.93" x2="621.31" y2= "359.65" />
    <line class="fil0 str2" x1="754.98" y1="371.32" x2="754.98" y2= "378.04" />
    <line class="fil0 str2" x1="780.7" y1="371.32" x2="780.7" y2= "378.04" />
    <line class="fil0 str2" x1="638.96" y1="242.72" x2="638.96" y2= "249.43" />
    <line class="fil0 str2" x1="250.14" y1="194.64" x2="256.86" y2= "194.64" />
    <line class="fil0 str2" x1="250.14" y1="227.7" x2="256.86" y2= "227.7" />
    <line class="fil0 str2" x1="250.14" y1="255.26" x2="256.86" y2= "255.26" />
    <line class="fil0 str2" x1="250.14" y1="292" x2="256.86" y2= "292" />
    <line class="fil0 str2" x1="320.9" y1="295.67" x2="327.62" y2= "295.67" />
    <line class="fil0 str2" x1="320.9" y1="255.26" x2="327.62" y2= "255.26" />
    <line class="fil0 str2" x1="250.14" y1="306.69" x2="256.86" y2= "306.69" />
    <line class="fil0 str2" x1="250.14" y1="339.76" x2="256.86" y2= "339.76" />
    <line class="fil0 str2" x1="250.14" y1="393.03" x2="256.86" y2= "393.03" />
    <line class="fil0 str2" x1="250.14" y1="426.09" x2="256.86" y2= "426.09" />
    <line class="fil0 str2" x1="415.47" y1="339.77" x2="422.18" y2= "339.77" />
    <line class="fil0 str2" x1="415.47" y1="306.71" x2="422.18" y2= "306.71" />
    <line class="fil0 str2" x1="635.9" y1="306.71" x2="642.62" y2= "306.71" />
    <line class="fil0 str2" x1="635.9" y1="339.77" x2="642.62" y2= "339.77" />
    <line class="fil0 str2" x1="635.9" y1="393.05" x2="642.62" y2= "393.05" />
    <line class="fil0 str2" x1="635.9" y1="426.12" x2="642.62" y2= "426.12" />
    <line class="fil0 str2" x1="782.85" y1="356.31" x2="789.57" y2= "356.31" />
    <line class="fil0 str2" x1="782.85" y1="323.24" x2="789.57" y2= "323.24" />
    <line class="fil0 str2" x1="782.85" y1="290.16" x2="789.57" y2= "290.16" />
    <line class="fil0 str2" x1="782.85" y1="257.09" x2="789.57" y2= "257.09" />
    <line class="fil0 str2" x1="746.12" y1="257.09" x2="752.83" y2= "257.09" />
    <line class="fil0 str2" x1="746.12" y1="290.16" x2="752.83" y2= "290.16" />
    <line class="fil0 str2" x1="457.4" y1="297.84" x2="457.4" y2= "304.55" />
    <line class="fil0 str2" x1="424.34" y1="297.84" x2="424.34" y2= "304.55" />
    <line class="fil0 str2" x1="329.77" y1="297.82" x2="329.77" y2= "304.53" />
    <line class="fil0 str2" x1="358.21" y1="297.82" x2="358.21" y2= "304.53" />
    <line class="fil0 str2" x1="538.23" y1="297.84" x2="538.23" y2= "304.55" />
    <line class="fil0 str2" x1="574.97" y1="297.82" x2="574.97" y2= "304.53" />
    <line class="fil0 str2" x1="580.79" y1="255.26" x2="587.51" y2= "255.26" />
    <line class="fil0 str2" x1="580.79" y1="292.27" x2="587.51" y2= "292.27" />
   </g>
   <g id="сантехника">
    <g id="стояк">
     <rect class="fil0 str3" x="848.47" y="247.71" width="9.16" height="29.33"/>
     <rect class="fil0 str3" x="849" y="248.31" width="8.08" height="5.54"/>
     <rect class="fil0 str3" x="848.98" y="270.93" width="8.08" height="5.54"/>
     <rect class="fil0 str3" x="849" y="254.95" width="8.06" height="15.06"/>
    </g>
    <g id="стояк_0">
     <rect class="fil0 str3" x="738.11" y="304.13" width="9.16" height="29.33"/>
     <rect class="fil0 str3" x="738.64" y="304.73" width="8.08" height="5.54"/>
     <rect class="fil0 str3" x="738.62" y="327.35" width="8.08" height="5.54"/>
     <rect class="fil0 str3" x="738.64" y="311.37" width="8.06" height="15.06"/>
    </g>
    <g id="стояк_1">
     <rect class="fil0 str3" transform="matrix(3.46713E-15 -0.130912 0.154376 4.08857E-15 376.821 409.716)" width="70" height="190"/>
     <rect class="fil0 str3" transform="matrix(3.53087E-15 -0.133318 0.113735 3.01222E-15 377.421 409.182)" width="60.63" height="48.75"/>
     <rect class="fil0 str3" transform="matrix(3.53087E-15 -0.133318 0.113735 3.01222E-15 400.037 409.202)" width="60.63" height="48.75"/>
     <rect class="fil0 str3" transform="matrix(3.48578E-15 -0.131616 0.136219 3.6077E-15 384.06 409.182)" width="61.25" height="110.58"/>
    </g>
    <g id="стояк_2">
     <rect class="fil0 str3" x="145.45" y="269.65" width="9.16" height="29.33"/>
     <rect class="fil0 str3" x="145.99" y="270.25" width="8.08" height="5.54"/>
     <rect class="fil0 str3" x="145.97" y="292.86" width="8.08" height="5.54"/>
     <rect class="fil0 str3" x="145.99" y="276.88" width="8.06" height="15.06"/>
    </g>
    <g id="стояк_3">
     <rect class="fil0 str3" x="145.35" y="303.2" width="9.16" height="29.33"/>
     <rect class="fil0 str3" x="145.89" y="303.8" width="8.08" height="5.54"/>
     <rect class="fil0 str3" x="145.87" y="326.41" width="8.08" height="5.54"/>
     <rect class="fil0 str3" x="145.89" y="310.44" width="8.06" height="15.06"/>
    </g>
    <g id="унитаз">
     <path class="fil0 str3" d="M171.65 325.24c-3.73,0 -6.97,-1.49 -8.66,-3.68l0 0.32c0,1.53 -1.25,2.78 -2.78,2.78l-1.23 0c-1.53,0 -2.78,-1.25 -2.78,-2.78l0 -7.56c0,-1.52 1.25,-2.78 2.78,-2.78l1.23 0c1.53,0 2.78,1.26 2.78,2.78l0 0.32c1.69,-2.19 4.93,-3.68 8.66,-3.68 5.46,0 9.88,3.2 9.88,7.14 0,3.94 -4.42,7.14 -9.88,7.14z"/>
     <circle class="fil0 str3" cx="159.29" cy="318.2" r="0.45"/>
     <line class="fil0 str3" x1="162.99" y1="321.56" x2="162.99" y2= "314.64" />
    </g>
    <g id="унитаз_4">
     <path class="fil0 str3" d="M171.49 292.12c-3.72,0 -6.96,-1.49 -8.65,-3.69l0 0.32c0,1.53 -1.25,2.78 -2.78,2.78l-1.24 0c-1.53,0 -2.78,-1.25 -2.78,-2.78l0 -7.55c0,-1.53 1.25,-2.78 2.78,-2.78l1.24 0c1.53,0 2.78,1.25 2.78,2.78l0 0.32c1.69,-2.2 4.93,-3.68 8.65,-3.68 5.46,0 9.88,3.19 9.88,7.14 0,3.94 -4.42,7.14 -9.88,7.14z"/>
     <circle class="fil0 str3" cx="159.13" cy="285.08" r="0.45"/>
     <line class="fil0 str3" x1="162.84" y1="288.43" x2="162.84" y2= "281.52" />
    </g>
    <g id="раковина_x0020_в_x0020_ванной">
     <ellipse class="fil0 str3" transform="matrix(-2.58794E-14 0.325717 -0.325717 -2.58794E-14 216.974 365.805)" rx="18.75" ry="32.29"/>
     <line class="fil0 str3" x1="207.77" y1="368.76" x2="208.38" y2= "373.01" />
     <line class="fil0 str3" x1="226.18" y1="368.76" x2="225.6" y2= "373.09" />
     <line class="fil0 str3" x1="208.38" y1="373.01" x2="225.61" y2= "373.01" />
     <ellipse class="fil0 str3" transform="matrix(-5.17588E-14 0.651434 -0.325717 -2.58794E-14 216.974 365.805)" rx="0.91" ry="1.82"/>
     <line class="fil0 str3" x1="216.97" y1="368.65" x2="216.97" y2= "372.33" />
     <line class="fil0 str3" x1="216.97" y1="370.49" x2="215.64" y2= "370.49" />
    </g>
    <g id="раковина_x0020_в_x0020_ванной_5">
     <ellipse class="fil0 str3" transform="matrix(8.62646E-15 -0.325717 0.325717 8.62646E-15 217.233 255.167)" rx="18.75" ry="32.29"/>
     <line class="fil0 str3" x1="226.44" y1="252.21" x2="225.83" y2= "247.96" />
     <line class="fil0 str3" x1="208.03" y1="252.21" x2="208.6" y2= "247.88" />
     <line class="fil0 str3" x1="225.83" y1="247.96" x2="208.6" y2= "247.96" />
     <ellipse class="fil0 str3" transform="matrix(1.72529E-14 -0.651434 0.325717 8.62646E-15 217.233 255.167)" rx="0.91" ry="1.82"/>
     <line class="fil0 str3" x1="217.23" y1="252.33" x2="217.23" y2= "248.64" />
     <line class="fil0 str3" x1="217.23" y1="250.48" x2="218.57" y2= "250.48" />
    </g>
    <g id="раковина_x0020_кухня">
     <rect class="fil0 str3" x="397" y="225.59" width="19.39" height="17.84" rx="1.52" ry="1.52"/>
     <rect class="fil0 str3" x="397.86" y="226.46" width="14.74" height="16.11" rx="0.92" ry="1.01"/>
     <line class="fil0 str3" x1="413.7" y1="234.51" x2="408.39" y2= "234.51" />
     <line class="fil0 str3" x1="411.05" y1="234.51" x2="411.05" y2= "235.34" />
    </g>
    <g id="раковина_x0020_кухня_6">
     <rect class="fil0 str3" x="342.2" y="357.85" width="19.39" height="17.84" rx="1.52" ry="1.52"/>
     <rect class="fil0 str3" x="343.06" y="358.72" width="14.74" height="16.11" rx="0.92" ry="1.01"/>
     <line class="fil0 str3" x1="358.9" y1="366.77" x2="353.6" y2= "366.77" />
     <line class="fil0 str3" x1="356.25" y1="366.77" x2="356.25" y2= "367.59" />
    </g>
    <g id="раковина_x0020_кухня_7">
     <rect class="fil0 str3" x="586.23" y="226.58" width="19.39" height="17.84" rx="1.52" ry="1.52"/>
     <rect class="fil0 str3" x="590.02" y="227.44" width="14.74" height="16.11" rx="0.92" ry="1.01"/>
     <line class="fil0 str3" x1="588.91" y1="235.5" x2="594.22" y2= "235.5" />
     <line class="fil0 str3" x1="591.57" y1="235.5" x2="591.57" y2= "234.67" />
    </g>
    <g id="раковина_x0020_кухня_8">
     <rect class="fil0 str3" x="365.87" y="412.99" width="19.39" height="17.84" rx="1.52" ry="1.52"/>
     <rect class="fil0 str3" x="369.66" y="413.85" width="14.74" height="16.11" rx="0.92" ry="1.01"/>
     <line class="fil0 str3" x1="368.55" y1="421.91" x2="373.86" y2= "421.91" />
     <line class="fil0 str3" x1="371.21" y1="421.91" x2="371.21" y2= "421.08" />
    </g>
    <g id="унитаз_9">
     <path class="fil0 str3" d="M381.41 393.19c-3.72,0 -6.96,-1.48 -8.65,-3.68l0 0.32c0,1.53 -1.25,2.78 -2.78,2.78l-1.23 0c-1.53,0 -2.78,-1.25 -2.78,-2.78l0 -7.55c0,-1.53 1.25,-2.78 2.78,-2.78l1.23 0c1.53,0 2.78,1.25 2.78,2.78l0 0.31c1.69,-2.19 4.93,-3.68 8.65,-3.68 5.46,0 9.89,3.2 9.89,7.14 0,3.94 -4.43,7.14 -9.89,7.14z"/>
     <circle class="fil0 str3" cx="369.06" cy="386.16" r="0.45"/>
     <line class="fil0 str3" x1="372.76" y1="389.51" x2="372.76" y2= "382.59" />
    </g>
    <g id="унитаз_10">
     <path class="fil0 str3" d="M721.32 314.11c3.72,0 6.96,1.48 8.65,3.68l0 -0.32c0,-1.53 1.25,-2.78 2.78,-2.78l1.23 0c1.53,0 2.79,1.25 2.79,2.78l0 7.55c0,1.53 -1.26,2.78 -2.79,2.78l-1.23 0c-1.53,0 -2.78,-1.25 -2.78,-2.78l0 -0.31c-1.69,2.19 -4.93,3.68 -8.65,3.68 -5.46,0 -9.89,-3.2 -9.89,-7.14 0,-3.95 4.43,-7.14 9.89,-7.14z"/>
     <circle class="fil0 str3" cx="733.68" cy="321.14" r="0.45"/>
     <line class="fil0 str3" x1="729.97" y1="317.79" x2="729.97" y2= "324.71" />
    </g>
    <g id="унитаз_11">
     <path class="fil0 str3" d="M842.64 283.73c0,3.72 -1.48,6.96 -3.68,8.65l0.32 0c1.53,0 2.78,1.25 2.78,2.78l0 1.24c0,1.53 -1.25,2.78 -2.78,2.78l-7.55 0c-1.53,0 -2.78,-1.25 -2.78,-2.78l0 -1.24c0,-1.53 1.25,-2.78 2.78,-2.78l0.32 0c-2.2,-1.69 -3.69,-4.93 -3.69,-8.65 0,-5.46 3.2,-9.89 7.14,-9.89 3.95,0 7.14,4.43 7.14,9.89z"/>
     <circle class="fil0 str3" transform="matrix(-1.51336E-14 0.190471 -0.190471 -1.51336E-14 835.609 296.087)" r="2.34"/>
     <line class="fil0 str3" x1="838.96" y1="292.38" x2="832.05" y2= "292.38" />
    </g>
    <g id="ванна">
     <rect class="fil0 str3" x="365.36" y="303.36" width="51.62" height="24.02" rx="2.94" ry="2.98"/>
     <rect class="fil0 str3" x="369.69" y="304.13" width="46.69" height="22.38" rx="1.92" ry="2.1"/>
     <line class="fil0 str3" x1="368.43" y1="315.33" x2="374.81" y2= "315.33" />
     <line class="fil0 str3" x1="371.62" y1="315.33" x2="371.62" y2= "314.21" />
    </g>
    <g id="ванна_12">
     <rect class="fil0 str3" x="695.55" y="348.98" width="51.62" height="24.02" rx="2.94" ry="2.98"/>
     <rect class="fil0 str3" x="696.16" y="349.85" width="46.69" height="22.38" rx="1.92" ry="2.1"/>
     <line class="fil0 str3" x1="744.11" y1="361.04" x2="737.72" y2= "361.04" />
     <line class="fil0 str3" x1="740.91" y1="361.04" x2="740.91" y2= "362.15" />
    </g>
    <g id="раковина_x0020_в_x0020_ванной_13">
     <ellipse class="fil0 str3" transform="matrix(-2.58794E-14 0.325717 -0.325717 -2.58794E-14 670.052 365.931)" rx="18.75" ry="32.29"/>
     <line class="fil0 str3" x1="660.85" y1="368.89" x2="661.45" y2= "373.14" />
     <line class="fil0 str3" x1="679.26" y1="368.89" x2="678.68" y2= "373.22" />
     <line class="fil0 str3" x1="661.45" y1="373.14" x2="678.68" y2= "373.14" />
     <ellipse class="fil0 str3" transform="matrix(-5.17588E-14 0.651434 -0.325717 -2.58794E-14 670.052 365.931)" rx="0.91" ry="1.82"/>
     <line class="fil0 str3" x1="670.05" y1="368.77" x2="670.05" y2= "372.46" />
     <line class="fil0 str3" x1="670.05" y1="370.61" x2="668.72" y2= "370.61" />
    </g>
    <g id="раковина_x0020_в_x0020_ванной_14">
     <ellipse class="fil0 str3" cx="373.02" cy="345.25" rx="6.11" ry="10.52"/>
     <line class="fil0 str3" x1="370.07" y1="336.05" x2="365.82" y2= "336.65" />
     <line class="fil0 str3" x1="370.07" y1="354.46" x2="365.74" y2= "353.88" />
     <line class="fil0 str3" x1="365.81" y1="336.65" x2="365.81" y2= "353.88" />
     <circle class="fil0 str3" cx="373.02" cy="345.25" r="0.59"/>
     <line class="fil0 str3" x1="370.18" y1="345.25" x2="366.5" y2= "345.25" />
     <line class="fil0 str3" x1="368.34" y1="345.25" x2="368.34" y2= "343.91" />
    </g>
   </g>
   <g id="текст">
    <g>
     <polygon class="fil1" points="440.41,422.61 440.41,398.55 442.52,400.73 434.93,400.73 434.93,396.7 445.22,396.7 445.22,422.61 "/>
     <path id="1" class="fil1" d="M460.84 422.87c-2.07,0 -3.91,-0.44 -5.53,-1.32 -1.62,-0.87 -2.88,-2.07 -3.79,-3.6 -0.92,-1.53 -1.37,-3.27 -1.37,-5.22 0,-1.98 0.45,-3.72 1.37,-5.24 0.91,-1.52 2.17,-2.71 3.79,-3.57 1.62,-0.87 3.46,-1.3 5.53,-1.3 1.93,0 3.63,0.39 5.09,1.17 1.47,0.77 2.59,1.92 3.35,3.42l-3.55 2.07c-0.59,-0.93 -1.31,-1.62 -2.16,-2.07 -0.86,-0.44 -1.78,-0.67 -2.76,-0.67 -1.14,0 -2.16,0.25 -3.07,0.74 -0.92,0.5 -1.63,1.21 -2.15,2.13 -0.52,0.93 -0.78,2.03 -0.78,3.32 0,1.28 0.26,2.38 0.78,3.31 0.52,0.92 1.23,1.63 2.15,2.13 0.91,0.49 1.93,0.74 3.07,0.74 0.98,0 1.9,-0.22 2.76,-0.67 0.85,-0.44 1.57,-1.13 2.16,-2.07l3.55 2.07c-0.76,1.48 -1.88,2.62 -3.35,3.43 -1.46,0.8 -3.16,1.2 -5.09,1.2z"/>
     <path class="fil1" d="M436.28 450.09l0 -1.61 5.15 -4.88c0.43,-0.41 0.75,-0.77 0.96,-1.08 0.21,-0.31 0.35,-0.59 0.42,-0.86 0.07,-0.26 0.1,-0.51 0.1,-0.75 0,-0.59 -0.2,-1.05 -0.61,-1.38 -0.41,-0.32 -1.01,-0.49 -1.8,-0.49 -0.63,0 -1.2,0.11 -1.71,0.34 -0.51,0.22 -0.95,0.56 -1.32,1.01l-1.69 -1.29c0.51,-0.68 1.19,-1.21 2.05,-1.58 0.86,-0.38 1.82,-0.57 2.88,-0.57 0.94,0 1.75,0.15 2.45,0.46 0.7,0.3 1.23,0.73 1.61,1.28 0.38,0.56 0.56,1.22 0.56,1.98 0,0.42 -0.05,0.84 -0.16,1.25 -0.11,0.41 -0.32,0.85 -0.63,1.31 -0.31,0.45 -0.76,0.96 -1.35,1.53l-4.43 4.2 -0.5 -0.9 7.57 0 0 2.03 -9.55 0z"/>
     <path id="1" class="fil1" d="M452.83 450.28c-1.17,0 -2.18,-0.25 -3.02,-0.75 -0.84,-0.5 -1.48,-1.23 -1.92,-2.18 -0.45,-0.95 -0.67,-2.12 -0.67,-3.51 0,-1.48 0.27,-2.74 0.81,-3.76 0.53,-1.02 1.28,-1.8 2.24,-2.33 0.95,-0.53 2.05,-0.8 3.3,-0.8 0.65,0 1.28,0.07 1.88,0.21 0.6,0.13 1.11,0.34 1.53,0.62l-0.89 1.82c-0.36,-0.24 -0.75,-0.4 -1.16,-0.49 -0.41,-0.09 -0.85,-0.14 -1.3,-0.14 -1.23,0 -2.19,0.38 -2.91,1.13 -0.72,0.75 -1.07,1.86 -1.07,3.33 0,0.23 0,0.51 0.01,0.82 0.02,0.32 0.06,0.64 0.13,0.96l-0.74 -0.82c0.23,-0.5 0.53,-0.93 0.92,-1.27 0.39,-0.34 0.85,-0.59 1.39,-0.76 0.53,-0.18 1.12,-0.26 1.75,-0.26 0.85,0 1.61,0.16 2.27,0.49 0.67,0.32 1.2,0.79 1.6,1.39 0.39,0.59 0.59,1.29 0.59,2.1 0,0.85 -0.21,1.59 -0.63,2.22 -0.42,0.63 -0.99,1.11 -1.7,1.46 -0.72,0.34 -1.52,0.52 -2.41,0.52zm-0.13 -1.89c0.49,0 0.93,-0.09 1.31,-0.27 0.39,-0.18 0.69,-0.43 0.9,-0.77 0.22,-0.33 0.33,-0.72 0.33,-1.16 0,-0.68 -0.24,-1.22 -0.71,-1.61 -0.47,-0.4 -1.1,-0.6 -1.89,-0.6 -0.51,0 -0.97,0.1 -1.36,0.29 -0.38,0.19 -0.69,0.46 -0.92,0.79 -0.23,0.33 -0.34,0.71 -0.34,1.15 0,0.39 0.1,0.75 0.31,1.09 0.21,0.33 0.52,0.6 0.92,0.79 0.4,0.2 0.88,0.3 1.45,0.3z"/>
     <path id="2" class="fil1" d="M459.1 452.89l1.08 -4.09 0.31 1.37c-0.43,0 -0.79,-0.14 -1.08,-0.4 -0.29,-0.27 -0.44,-0.63 -0.44,-1.08 0,-0.47 0.15,-0.85 0.44,-1.12 0.29,-0.28 0.64,-0.42 1.06,-0.42 0.44,0 0.79,0.14 1.08,0.43 0.28,0.28 0.42,0.65 0.42,1.11 0,0.12 -0.01,0.25 -0.03,0.39 -0.03,0.15 -0.07,0.31 -0.13,0.49 -0.05,0.19 -0.14,0.42 -0.26,0.71l-0.95 2.61 -1.5 0z"/>
     <path id="3" class="fil1" d="M463.25 447.15l0 -1.67 6.39 -8.34 2.57 0 -6.3 8.34 -1.2 -0.37 10.27 0 0 2.04 -11.73 0zm7.11 2.94l0 -2.94 0.07 -2.04 0 -2.61 2.26 0 0 7.59 -2.33 0z"/>
     <path id="4" class="fil1" d="M481.61 450.28c-1.17,0 -2.18,-0.25 -3.02,-0.75 -0.84,-0.5 -1.48,-1.23 -1.92,-2.18 -0.45,-0.95 -0.67,-2.12 -0.67,-3.51 0,-1.48 0.27,-2.74 0.81,-3.76 0.53,-1.02 1.28,-1.8 2.24,-2.33 0.95,-0.53 2.05,-0.8 3.3,-0.8 0.65,0 1.28,0.07 1.88,0.21 0.6,0.13 1.11,0.34 1.53,0.62l-0.89 1.82c-0.36,-0.24 -0.75,-0.4 -1.16,-0.49 -0.41,-0.09 -0.85,-0.14 -1.3,-0.14 -1.23,0 -2.19,0.38 -2.91,1.13 -0.72,0.75 -1.07,1.86 -1.07,3.33 0,0.23 0,0.51 0.01,0.82 0.02,0.32 0.06,0.64 0.13,0.96l-0.74 -0.82c0.23,-0.5 0.53,-0.93 0.92,-1.27 0.39,-0.34 0.85,-0.59 1.39,-0.76 0.53,-0.18 1.12,-0.26 1.75,-0.26 0.85,0 1.61,0.16 2.27,0.49 0.67,0.32 1.2,0.79 1.6,1.39 0.39,0.59 0.59,1.29 0.59,2.1 0,0.85 -0.21,1.59 -0.63,2.22 -0.42,0.63 -0.99,1.11 -1.7,1.46 -0.72,0.34 -1.52,0.52 -2.41,0.52zm-0.13 -1.89c0.49,0 0.93,-0.09 1.31,-0.27 0.39,-0.18 0.69,-0.43 0.9,-0.77 0.22,-0.33 0.33,-0.72 0.33,-1.16 0,-0.68 -0.24,-1.22 -0.71,-1.61 -0.47,-0.4 -1.1,-0.6 -1.89,-0.6 -0.51,0 -0.97,0.1 -1.36,0.29 -0.38,0.19 -0.69,0.46 -0.92,0.79 -0.23,0.33 -0.34,0.71 -0.34,1.15 0,0.39 0.1,0.75 0.31,1.09 0.21,0.33 0.52,0.6 0.92,0.79 0.4,0.2 0.88,0.3 1.45,0.3z"/>
     <polygon id="5" class="fil1" points="493.45,450.09 493.45,440.21 495.88,440.21 499.86,447.22 498.9,447.22 503.08,440.21 505.24,440.21 505.26,450.09 503.17,450.09 503.17,442.69 503.54,442.93 499.84,449.06 498.84,449.06 495.12,442.76 495.56,442.65 495.56,450.09 "/>
     <path id="6" class="fil1" d="M507.14 445.46l0 -0.8 2.57 -2.44c0.22,-0.21 0.38,-0.39 0.49,-0.54 0.1,-0.15 0.17,-0.3 0.2,-0.43 0.04,-0.13 0.05,-0.26 0.05,-0.37 0,-0.3 -0.1,-0.53 -0.3,-0.69 -0.21,-0.17 -0.5,-0.25 -0.9,-0.25 -0.31,0 -0.6,0.06 -0.85,0.17 -0.26,0.11 -0.48,0.28 -0.67,0.51l-0.84 -0.65c0.25,-0.34 0.59,-0.61 1.02,-0.79 0.43,-0.19 0.91,-0.29 1.44,-0.29 0.47,0 0.88,0.08 1.23,0.23 0.35,0.15 0.62,0.37 0.8,0.64 0.19,0.28 0.29,0.61 0.29,0.99 0,0.21 -0.03,0.42 -0.09,0.63 -0.05,0.21 -0.16,0.42 -0.31,0.65 -0.16,0.23 -0.38,0.49 -0.68,0.77l-2.21 2.1 -0.25 -0.45 3.79 0 0 1.01 -4.78 0z"/>
    </g>
    <g>
     <path class="fil1" d="M647.85 164.49c-1.83,0 -3.61,-0.26 -5.35,-0.79 -1.74,-0.54 -3.21,-1.27 -4.39,-2.21l2.07 -3.73c0.94,0.76 2.08,1.38 3.41,1.85 1.33,0.46 2.73,0.7 4.18,0.7 1.73,0 3.07,-0.35 4.04,-1.06 0.96,-0.7 1.44,-1.66 1.44,-2.86 0,-1.19 -0.44,-2.13 -1.33,-2.82 -0.89,-0.69 -2.32,-1.03 -4.3,-1.03l-2.37 0 0 -3.3 7.41 -8.81 0.63 1.81 -13.92 0 0 -4.03 17.66 0 0 3.22 -7.41 8.81 -2.51 -1.48 1.44 0c3.18,0 5.57,0.71 7.16,2.13 1.59,1.42 2.39,3.24 2.39,5.46 0,1.45 -0.37,2.8 -1.11,4.03 -0.74,1.24 -1.87,2.23 -3.39,2.98 -1.52,0.76 -3.43,1.13 -5.75,1.13z"/>
     <path id="1" class="fil1" d="M671.72 164.38c-2.07,0 -3.92,-0.44 -5.53,-1.31 -1.62,-0.88 -2.88,-2.08 -3.8,-3.61 -0.91,-1.53 -1.37,-3.27 -1.37,-5.22 0,-1.98 0.46,-3.72 1.37,-5.24 0.92,-1.52 2.18,-2.71 3.8,-3.57 1.61,-0.87 3.46,-1.3 5.53,-1.3 1.93,0 3.62,0.39 5.09,1.17 1.47,0.78 2.59,1.92 3.35,3.42l-3.55 2.08c-0.59,-0.94 -1.32,-1.63 -2.17,-2.08 -0.85,-0.44 -1.77,-0.66 -2.76,-0.66 -1.13,0 -2.16,0.24 -3.07,0.74 -0.91,0.49 -1.63,1.2 -2.15,2.12 -0.51,0.93 -0.77,2.04 -0.77,3.32 0,1.28 0.26,2.39 0.77,3.31 0.52,0.93 1.24,1.64 2.15,2.13 0.91,0.49 1.94,0.74 3.07,0.74 0.99,0 1.91,-0.22 2.76,-0.67 0.85,-0.44 1.58,-1.13 2.17,-2.07l3.55 2.07c-0.76,1.48 -1.88,2.63 -3.35,3.43 -1.47,0.8 -3.16,1.2 -5.09,1.2z"/>
     <path class="fil1" d="M644.18 191.79c-0.91,0 -1.8,-0.13 -2.67,-0.4 -0.87,-0.26 -1.6,-0.63 -2.2,-1.1l1.02 -1.87c0.47,0.38 1.04,0.69 1.71,0.93 0.68,0.23 1.38,0.35 2.1,0.35 0.85,0 1.52,-0.18 2.01,-0.54 0.49,-0.36 0.73,-0.84 0.73,-1.44 0,-0.41 -0.1,-0.77 -0.3,-1.08 -0.21,-0.3 -0.56,-0.54 -1.08,-0.7 -0.51,-0.16 -1.21,-0.24 -2.1,-0.24l-3.12 0 0.66 -7.05 7.61 0 0 2.02 -6.72 0 1.26 -1.15 -0.5 5.27 -1.26 -1.12 2.61 0c1.28,0 2.32,0.16 3.1,0.5 0.78,0.34 1.36,0.81 1.72,1.41 0.36,0.6 0.55,1.28 0.55,2.05 0,0.75 -0.19,1.44 -0.56,2.07 -0.37,0.63 -0.93,1.13 -1.69,1.52 -0.76,0.38 -1.72,0.57 -2.88,0.57z"/>
     <path id="1" class="fil1" d="M655.9 191.79c-1.08,0 -2.01,-0.16 -2.8,-0.48 -0.79,-0.32 -1.4,-0.78 -1.83,-1.36 -0.43,-0.59 -0.65,-1.28 -0.65,-2.07 0,-0.78 0.21,-1.45 0.63,-1.99 0.42,-0.55 1.02,-0.96 1.81,-1.24 0.79,-0.29 1.74,-0.43 2.84,-0.43 1.09,0 2.04,0.14 2.84,0.43 0.79,0.28 1.4,0.7 1.83,1.25 0.43,0.54 0.64,1.21 0.64,1.98 0,0.79 -0.22,1.48 -0.66,2.07 -0.44,0.58 -1.05,1.04 -1.85,1.36 -0.8,0.32 -1.73,0.48 -2.8,0.48zm0 -1.89c0.88,0 1.59,-0.18 2.11,-0.55 0.51,-0.37 0.77,-0.89 0.77,-1.54 0,-0.64 -0.26,-1.15 -0.77,-1.52 -0.52,-0.37 -1.23,-0.55 -2.11,-0.55 -0.89,0 -1.59,0.18 -2.1,0.55 -0.5,0.37 -0.75,0.88 -0.75,1.52 0,0.65 0.25,1.17 0.75,1.54 0.51,0.37 1.21,0.55 2.1,0.55zm0 -4.42c-1,0 -1.86,-0.13 -2.58,-0.4 -0.71,-0.26 -1.26,-0.65 -1.65,-1.17 -0.39,-0.51 -0.59,-1.12 -0.59,-1.84 0,-0.74 0.2,-1.38 0.61,-1.91 0.4,-0.54 0.96,-0.96 1.69,-1.25 0.73,-0.3 1.57,-0.45 2.52,-0.45 0.96,0 1.8,0.15 2.53,0.45 0.73,0.29 1.3,0.71 1.7,1.25 0.41,0.53 0.61,1.17 0.61,1.91 0,0.72 -0.19,1.33 -0.58,1.84 -0.39,0.52 -0.94,0.91 -1.67,1.17 -0.73,0.27 -1.59,0.4 -2.59,0.4zm0 -1.48c0.76,0 1.37,-0.17 1.81,-0.49 0.44,-0.33 0.67,-0.77 0.67,-1.33 0,-0.58 -0.23,-1.03 -0.69,-1.35 -0.46,-0.32 -1.05,-0.48 -1.79,-0.48 -0.74,0 -1.34,0.16 -1.78,0.48 -0.45,0.32 -0.67,0.77 -0.67,1.35 0,0.56 0.22,1 0.66,1.33 0.44,0.32 1.03,0.49 1.79,0.49z"/>
     <path id="2" class="fil1" d="M663.04 194.4l1.07 -4.09 0.32 1.37c-0.43,0 -0.79,-0.13 -1.08,-0.4 -0.29,-0.26 -0.44,-0.63 -0.44,-1.08 0,-0.47 0.15,-0.84 0.44,-1.12 0.29,-0.28 0.64,-0.42 1.06,-0.42 0.43,0 0.79,0.14 1.07,0.43 0.29,0.28 0.43,0.65 0.43,1.11 0,0.12 -0.01,0.25 -0.04,0.4 -0.02,0.14 -0.06,0.3 -0.12,0.49 -0.05,0.18 -0.14,0.42 -0.27,0.7l-0.94 2.61 -1.5 0z"/>
     <polygon id="3" class="fil1" points="669.35,191.6 674.7,179.61 675.33,180.69 667.98,180.69 669.13,179.52 669.13,182.89 666.89,182.89 666.89,178.65 676.96,178.65 676.96,180.26 671.92,191.6 "/>
     <path id="4" class="fil1" d="M683.31 191.79c-1.08,0 -2.01,-0.16 -2.8,-0.48 -0.79,-0.32 -1.4,-0.78 -1.83,-1.36 -0.43,-0.59 -0.65,-1.28 -0.65,-2.07 0,-0.78 0.21,-1.45 0.63,-1.99 0.42,-0.55 1.02,-0.96 1.81,-1.24 0.79,-0.29 1.74,-0.43 2.84,-0.43 1.09,0 2.04,0.14 2.84,0.43 0.79,0.28 1.4,0.7 1.83,1.25 0.42,0.54 0.64,1.21 0.64,1.98 0,0.79 -0.22,1.48 -0.66,2.07 -0.44,0.58 -1.05,1.04 -1.85,1.36 -0.8,0.32 -1.73,0.48 -2.8,0.48zm0 -1.89c0.88,0 1.59,-0.18 2.11,-0.55 0.51,-0.37 0.77,-0.89 0.77,-1.54 0,-0.64 -0.26,-1.15 -0.77,-1.52 -0.52,-0.37 -1.23,-0.55 -2.11,-0.55 -0.89,0 -1.59,0.18 -2.1,0.55 -0.5,0.37 -0.75,0.88 -0.75,1.52 0,0.65 0.25,1.17 0.75,1.54 0.51,0.37 1.21,0.55 2.1,0.55zm0 -4.42c-1,0 -1.86,-0.13 -2.58,-0.4 -0.71,-0.26 -1.26,-0.65 -1.65,-1.17 -0.39,-0.51 -0.59,-1.12 -0.59,-1.84 0,-0.74 0.2,-1.38 0.61,-1.91 0.4,-0.54 0.96,-0.96 1.69,-1.25 0.73,-0.3 1.57,-0.45 2.52,-0.45 0.96,0 1.8,0.15 2.53,0.45 0.73,0.29 1.3,0.71 1.7,1.25 0.41,0.53 0.61,1.17 0.61,1.91 0,0.72 -0.19,1.33 -0.58,1.84 -0.39,0.52 -0.95,0.91 -1.67,1.17 -0.73,0.27 -1.59,0.4 -2.59,0.4zm0 -1.48c0.76,0 1.36,-0.17 1.81,-0.49 0.44,-0.33 0.67,-0.77 0.67,-1.33 0,-0.58 -0.23,-1.03 -0.69,-1.35 -0.46,-0.32 -1.05,-0.48 -1.79,-0.48 -0.74,0 -1.34,0.16 -1.78,0.48 -0.45,0.32 -0.67,0.77 -0.67,1.35 0,0.56 0.22,1 0.66,1.33 0.44,0.32 1.03,0.49 1.79,0.49z"/>
     <polygon id="5" class="fil1" points="696.02,191.6 696.02,181.72 698.45,181.72 702.42,188.74 701.46,188.74 705.65,181.72 707.81,181.72 707.83,191.6 705.74,191.6 705.74,184.2 706.11,184.44 702.41,190.57 701.41,190.57 697.69,184.28 698.13,184.16 698.13,191.6 "/>
     <path id="6" class="fil1" d="M709.71 186.98l0 -0.81 2.57 -2.44c0.22,-0.2 0.38,-0.38 0.48,-0.54 0.11,-0.15 0.18,-0.3 0.21,-0.43 0.03,-0.13 0.05,-0.26 0.05,-0.37 0,-0.3 -0.1,-0.53 -0.3,-0.69 -0.21,-0.17 -0.51,-0.25 -0.9,-0.25 -0.32,0 -0.6,0.06 -0.86,0.17 -0.25,0.11 -0.48,0.28 -0.66,0.51l-0.84 -0.65c0.25,-0.34 0.59,-0.6 1.02,-0.79 0.43,-0.19 0.91,-0.28 1.44,-0.28 0.47,0 0.88,0.07 1.23,0.22 0.34,0.15 0.61,0.37 0.8,0.65 0.19,0.27 0.28,0.6 0.28,0.99 0,0.21 -0.03,0.41 -0.08,0.62 -0.06,0.21 -0.16,0.43 -0.31,0.65 -0.16,0.23 -0.39,0.49 -0.68,0.77l-2.21 2.1 -0.25 -0.45 3.78 0 0 1.02 -4.77 0z"/>
    </g>
    <g>
     <path class="fil1" d="M271 422.1l0 -3.23 10.29 -9.77c0.86,-0.81 1.5,-1.53 1.92,-2.14 0.42,-0.62 0.7,-1.19 0.83,-1.72 0.14,-0.54 0.21,-1.04 0.21,-1.5 0,-1.19 -0.41,-2.11 -1.22,-2.76 -0.82,-0.66 -2.01,-0.98 -3.59,-0.98 -1.26,0 -2.4,0.22 -3.43,0.66 -1.02,0.45 -1.9,1.13 -2.64,2.04l-3.37 -2.59c1.01,-1.36 2.37,-2.41 4.09,-3.17 1.71,-0.75 3.63,-1.13 5.75,-1.13 1.88,0 3.51,0.31 4.91,0.91 1.39,0.61 2.47,1.46 3.22,2.57 0.75,1.11 1.13,2.44 1.13,3.96 0,0.84 -0.11,1.68 -0.34,2.5 -0.22,0.83 -0.64,1.7 -1.25,2.61 -0.62,0.92 -1.52,1.94 -2.71,3.07l-8.84 8.41 -1 -1.82 15.14 0 0 4.08 -19.1 0z"/>
     <path id="1" class="fil1" d="M303.35 422.35c-2.07,0 -3.92,-0.43 -5.53,-1.31 -1.62,-0.88 -2.89,-2.08 -3.8,-3.61 -0.91,-1.53 -1.37,-3.27 -1.37,-5.22 0,-1.97 0.46,-3.72 1.37,-5.23 0.91,-1.52 2.18,-2.71 3.8,-3.58 1.61,-0.86 3.46,-1.29 5.53,-1.29 1.92,0 3.62,0.39 5.09,1.16 1.47,0.78 2.58,1.92 3.35,3.43l-3.56 2.07c-0.59,-0.94 -1.31,-1.63 -2.16,-2.07 -0.85,-0.45 -1.77,-0.67 -2.76,-0.67 -1.13,0 -2.16,0.25 -3.07,0.74 -0.91,0.49 -1.63,1.2 -2.15,2.13 -0.52,0.93 -0.77,2.03 -0.77,3.31 0,1.29 0.25,2.39 0.77,3.32 0.52,0.92 1.24,1.63 2.15,2.12 0.91,0.5 1.94,0.74 3.07,0.74 0.99,0 1.91,-0.22 2.76,-0.66 0.85,-0.45 1.57,-1.14 2.16,-2.07l3.56 2.07c-0.77,1.48 -1.88,2.62 -3.35,3.42 -1.47,0.8 -3.17,1.2 -5.09,1.2z"/>
     <path class="fil1" d="M275.59 449.76c-0.92,0 -1.81,-0.13 -2.68,-0.39 -0.87,-0.27 -1.6,-0.64 -2.19,-1.11l1.04 -1.86c0.46,0.38 1.03,0.69 1.7,0.92 0.66,0.24 1.36,0.35 2.09,0.35 0.86,0 1.54,-0.17 2.02,-0.53 0.48,-0.35 0.72,-0.82 0.72,-1.43 0,-0.59 -0.22,-1.06 -0.67,-1.41 -0.44,-0.34 -1.16,-0.51 -2.14,-0.51l-1.19 0 0 -1.65 3.7 -4.41 0.32 0.91 -6.96 0 0 -2.02 8.83 0 0 1.61 -3.7 4.41 -1.26 -0.74 0.72 0c1.59,0 2.78,0.35 3.58,1.06 0.8,0.71 1.19,1.62 1.19,2.73 0,0.73 -0.18,1.4 -0.55,2.02 -0.37,0.62 -0.94,1.11 -1.69,1.49 -0.76,0.38 -1.72,0.56 -2.88,0.56z"/>
     <path id="1" class="fil1" d="M286.27 449.76c-0.92,0 -1.81,-0.13 -2.68,-0.39 -0.87,-0.27 -1.6,-0.64 -2.19,-1.11l1.03 -1.86c0.47,0.38 1.04,0.69 1.71,0.92 0.66,0.24 1.36,0.35 2.09,0.35 0.86,0 1.54,-0.17 2.02,-0.53 0.48,-0.35 0.72,-0.82 0.72,-1.43 0,-0.59 -0.22,-1.06 -0.67,-1.41 -0.44,-0.34 -1.16,-0.51 -2.14,-0.51l-1.19 0 0 -1.65 3.7 -4.41 0.32 0.91 -6.96 0 0 -2.02 8.83 0 0 1.61 -3.71 4.41 -1.25 -0.74 0.72 0c1.59,0 2.78,0.35 3.58,1.06 0.8,0.71 1.19,1.62 1.19,2.73 0,0.73 -0.18,1.4 -0.55,2.02 -0.37,0.62 -0.94,1.11 -1.7,1.49 -0.75,0.38 -1.71,0.56 -2.87,0.56z"/>
     <path id="2" class="fil1" d="M293.06 452.37l1.07 -4.09 0.32 1.37c-0.44,0 -0.8,-0.13 -1.09,-0.39 -0.29,-0.27 -0.43,-0.63 -0.43,-1.09 0,-0.47 0.14,-0.84 0.43,-1.12 0.29,-0.28 0.65,-0.41 1.07,-0.41 0.43,0 0.79,0.14 1.07,0.42 0.29,0.29 0.43,0.66 0.43,1.11 0,0.13 -0.02,0.26 -0.04,0.4 -0.02,0.14 -0.06,0.31 -0.12,0.49 -0.06,0.19 -0.14,0.42 -0.27,0.7l-0.94 2.61 -1.5 0z"/>
     <path id="3" class="fil1" d="M301.74 449.76c-0.91,0 -1.81,-0.13 -2.68,-0.39 -0.87,-0.27 -1.6,-0.64 -2.19,-1.11l1.04 -1.86c0.47,0.38 1.03,0.69 1.7,0.92 0.67,0.24 1.36,0.35 2.09,0.35 0.87,0 1.54,-0.17 2.02,-0.53 0.48,-0.35 0.72,-0.82 0.72,-1.43 0,-0.59 -0.22,-1.06 -0.66,-1.41 -0.45,-0.34 -1.16,-0.51 -2.15,-0.51l-1.19 0 0 -1.65 3.7 -4.41 0.32 0.91 -6.96 0 0 -2.02 8.83 0 0 1.61 -3.7 4.41 -1.26 -0.74 0.72 0c1.59,0 2.79,0.35 3.58,1.06 0.8,0.71 1.19,1.62 1.19,2.73 0,0.73 -0.18,1.4 -0.55,2.02 -0.37,0.62 -0.93,1.11 -1.69,1.49 -0.76,0.38 -1.72,0.56 -2.88,0.56z"/>
     <path id="4" class="fil1" d="M312.42 449.76c-0.91,0 -1.81,-0.13 -2.68,-0.39 -0.87,-0.27 -1.6,-0.64 -2.19,-1.11l1.04 -1.86c0.47,0.38 1.03,0.69 1.7,0.92 0.67,0.24 1.36,0.35 2.09,0.35 0.87,0 1.54,-0.17 2.02,-0.53 0.48,-0.35 0.72,-0.82 0.72,-1.43 0,-0.59 -0.22,-1.06 -0.67,-1.41 -0.44,-0.34 -1.16,-0.51 -2.14,-0.51l-1.19 0 0 -1.65 3.7 -4.41 0.32 0.91 -6.96 0 0 -2.02 8.83 0 0 1.61 -3.7 4.41 -1.26 -0.74 0.72 0c1.59,0 2.79,0.35 3.58,1.06 0.8,0.71 1.19,1.62 1.19,2.73 0,0.73 -0.18,1.4 -0.55,2.02 -0.37,0.62 -0.94,1.11 -1.69,1.49 -0.76,0.38 -1.72,0.56 -2.88,0.56z"/>
     <path id="5" class="fil1" d="M323.23 449.76c-0.92,0 -1.81,-0.13 -2.68,-0.39 -0.87,-0.27 -1.6,-0.64 -2.19,-1.11l1.02 -1.86c0.47,0.38 1.04,0.69 1.71,0.92 0.67,0.24 1.37,0.35 2.1,0.35 0.85,0 1.52,-0.18 2.01,-0.53 0.48,-0.36 0.73,-0.84 0.73,-1.45 0,-0.4 -0.1,-0.76 -0.31,-1.07 -0.2,-0.31 -0.56,-0.54 -1.07,-0.7 -0.51,-0.17 -1.21,-0.25 -2.1,-0.25l-3.13 0 0.67 -7.05 7.6 0 0 2.02 -6.71 0 1.25 -1.15 -0.5 5.28 -1.25 -1.13 2.61 0c1.28,0 2.31,0.17 3.1,0.51 0.78,0.34 1.35,0.81 1.72,1.4 0.36,0.6 0.54,1.28 0.54,2.05 0,0.75 -0.18,1.44 -0.55,2.07 -0.37,0.63 -0.94,1.14 -1.7,1.52 -0.75,0.38 -1.71,0.57 -2.87,0.57z"/>
     <polygon id="6" class="fil1" points="335.59,449.58 335.59,439.7 338.01,439.7 341.99,446.71 341.03,446.71 345.21,439.7 347.38,439.7 347.4,449.58 345.31,449.58 345.31,442.18 345.68,442.42 341.97,448.54 340.98,448.54 337.26,442.25 337.7,442.14 337.7,449.58 "/>
     <path id="7" class="fil1" d="M349.28 444.95l0 -0.8 2.57 -2.45c0.21,-0.2 0.38,-0.38 0.48,-0.53 0.11,-0.16 0.17,-0.3 0.21,-0.43 0.03,-0.14 0.05,-0.26 0.05,-0.38 0,-0.3 -0.1,-0.52 -0.31,-0.69 -0.2,-0.16 -0.5,-0.24 -0.89,-0.24 -0.32,0 -0.6,0.05 -0.86,0.16 -0.26,0.11 -0.48,0.28 -0.66,0.51l-0.84 -0.65c0.25,-0.33 0.59,-0.6 1.02,-0.79 0.43,-0.18 0.91,-0.28 1.44,-0.28 0.47,0 0.88,0.08 1.22,0.23 0.35,0.15 0.62,0.36 0.81,0.64 0.19,0.28 0.28,0.61 0.28,0.99 0,0.21 -0.03,0.42 -0.08,0.63 -0.06,0.2 -0.16,0.42 -0.32,0.65 -0.15,0.23 -0.38,0.48 -0.67,0.77l-2.21 2.1 -0.25 -0.46 3.78 0 0 1.02 -4.77 0z"/>
    </g>
    <g>
     <path class="fil1" d="M301.62 163.34l0 -3.22 10.29 -9.77c0.87,-0.81 1.51,-1.53 1.93,-2.15 0.41,-0.61 0.69,-1.19 0.83,-1.72 0.13,-0.53 0.2,-1.03 0.2,-1.5 0,-1.18 -0.4,-2.1 -1.22,-2.75 -0.81,-0.66 -2.01,-0.98 -3.59,-0.98 -1.26,0 -2.4,0.22 -3.42,0.66 -1.03,0.45 -1.91,1.13 -2.65,2.04l-3.37 -2.59c1.01,-1.36 2.38,-2.42 4.09,-3.17 1.72,-0.75 3.63,-1.13 5.76,-1.13 1.87,0 3.51,0.31 4.9,0.91 1.4,0.6 2.47,1.46 3.22,2.57 0.76,1.11 1.13,2.43 1.13,3.96 0,0.84 -0.11,1.67 -0.33,2.5 -0.22,0.83 -0.64,1.7 -1.26,2.61 -0.62,0.91 -1.52,1.94 -2.7,3.07l-8.85 8.41 -1 -1.82 15.14 0 0 4.07 -19.1 0z"/>
     <path id="1" class="fil1" d="M333.97 163.6c-2.07,0 -3.92,-0.43 -5.53,-1.31 -1.62,-0.88 -2.88,-2.08 -3.8,-3.61 -0.91,-1.53 -1.36,-3.27 -1.36,-5.22 0,-1.97 0.45,-3.72 1.36,-5.24 0.92,-1.51 2.18,-2.7 3.8,-3.57 1.61,-0.86 3.46,-1.29 5.53,-1.29 1.93,0 3.62,0.38 5.09,1.16 1.47,0.78 2.59,1.92 3.35,3.43l-3.55 2.07c-0.59,-0.94 -1.32,-1.63 -2.17,-2.07 -0.85,-0.45 -1.77,-0.67 -2.75,-0.67 -1.14,0 -2.16,0.25 -3.08,0.74 -0.91,0.49 -1.63,1.2 -2.14,2.13 -0.52,0.92 -0.78,2.03 -0.78,3.31 0,1.28 0.26,2.39 0.78,3.31 0.51,0.93 1.23,1.64 2.14,2.13 0.92,0.5 1.94,0.74 3.08,0.74 0.98,0 1.9,-0.22 2.75,-0.66 0.85,-0.45 1.58,-1.14 2.17,-2.08l3.55 2.08c-0.76,1.48 -1.88,2.62 -3.35,3.42 -1.47,0.8 -3.16,1.2 -5.09,1.2z"/>
     <path class="fil1" d="M306.21 191.01c-0.91,0 -1.8,-0.13 -2.67,-0.4 -0.87,-0.26 -1.61,-0.63 -2.2,-1.1l1.04 -1.87c0.47,0.39 1.04,0.7 1.7,0.93 0.67,0.23 1.37,0.35 2.09,0.35 0.87,0 1.54,-0.17 2.02,-0.53 0.48,-0.35 0.72,-0.83 0.72,-1.43 0,-0.59 -0.22,-1.06 -0.66,-1.41 -0.45,-0.34 -1.16,-0.52 -2.15,-0.52l-1.19 0 0 -1.64 3.71 -4.41 0.31 0.91 -6.96 0 0 -2.02 8.83 0 0 1.61 -3.7 4.41 -1.26 -0.74 0.72 0c1.59,0 2.79,0.35 3.58,1.06 0.8,0.71 1.2,1.62 1.2,2.73 0,0.73 -0.19,1.4 -0.56,2.02 -0.37,0.62 -0.93,1.11 -1.69,1.49 -0.76,0.37 -1.72,0.56 -2.88,0.56z"/>
     <polygon id="1" class="fil1" points="314.89,190.83 320.24,178.83 320.87,179.91 313.52,179.91 314.67,178.74 314.67,182.11 312.43,182.11 312.43,177.87 322.5,177.87 322.5,179.48 317.46,190.83 "/>
     <path id="2" class="fil1" d="M323.15 193.62l1.07 -4.09 0.31 1.37c-0.43,0 -0.79,-0.13 -1.08,-0.4 -0.29,-0.26 -0.43,-0.62 -0.43,-1.08 0,-0.47 0.14,-0.84 0.43,-1.12 0.29,-0.28 0.64,-0.42 1.06,-0.42 0.44,0 0.79,0.15 1.08,0.43 0.28,0.28 0.42,0.65 0.42,1.11 0,0.12 -0.01,0.26 -0.03,0.4 -0.03,0.14 -0.07,0.3 -0.12,0.49 -0.06,0.18 -0.15,0.42 -0.27,0.7l-0.95 2.61 -1.49 0z"/>
     <polygon id="3" class="fil1" points="329.46,190.83 334.8,178.83 335.43,179.91 328.09,179.91 329.23,178.74 329.23,182.11 326.99,182.11 326.99,177.87 337.06,177.87 337.06,179.48 332.03,190.83 "/>
     <path id="4" class="fil1" d="M343.58 191.01c-1.03,0 -1.95,-0.26 -2.77,-0.77 -0.82,-0.52 -1.46,-1.28 -1.93,-2.27 -0.47,-1 -0.71,-2.2 -0.71,-3.62 0,-1.42 0.24,-2.63 0.71,-3.62 0.47,-0.99 1.11,-1.75 1.93,-2.27 0.82,-0.51 1.74,-0.77 2.77,-0.77 1.03,0 1.96,0.26 2.77,0.77 0.82,0.52 1.46,1.28 1.94,2.27 0.47,0.99 0.71,2.2 0.71,3.62 0,1.42 -0.24,2.62 -0.71,3.62 -0.48,0.99 -1.12,1.75 -1.94,2.27 -0.81,0.51 -1.74,0.77 -2.77,0.77zm0 -2.09c0.6,0 1.13,-0.16 1.57,-0.49 0.44,-0.33 0.79,-0.83 1.05,-1.51 0.25,-0.68 0.38,-1.53 0.38,-2.57 0,-1.05 -0.13,-1.91 -0.38,-2.58 -0.26,-0.67 -0.61,-1.17 -1.05,-1.5 -0.44,-0.33 -0.97,-0.49 -1.57,-0.49 -0.58,0 -1.1,0.16 -1.55,0.49 -0.45,0.33 -0.8,0.83 -1.05,1.5 -0.26,0.67 -0.38,1.53 -0.38,2.58 0,1.04 0.12,1.89 0.38,2.57 0.25,0.68 0.6,1.18 1.05,1.51 0.45,0.33 0.97,0.49 1.55,0.49z"/>
     <polygon id="5" class="fil1" points="356.48,190.83 356.48,180.94 358.9,180.94 362.88,187.96 361.92,187.96 366.1,180.94 368.27,180.94 368.29,190.83 366.19,190.83 366.19,183.42 366.56,183.67 362.86,189.79 361.86,189.79 358.14,183.5 358.59,183.39 358.59,190.83 "/>
     <path id="6" class="fil1" d="M370.16 186.2l0 -0.81 2.58 -2.44c0.21,-0.2 0.37,-0.38 0.48,-0.54 0.1,-0.15 0.17,-0.29 0.21,-0.43 0.03,-0.13 0.05,-0.25 0.05,-0.37 0,-0.3 -0.1,-0.53 -0.31,-0.69 -0.2,-0.16 -0.5,-0.24 -0.9,-0.24 -0.31,0 -0.6,0.05 -0.85,0.16 -0.26,0.11 -0.48,0.28 -0.66,0.51l-0.85 -0.65c0.26,-0.34 0.6,-0.6 1.03,-0.79 0.42,-0.19 0.91,-0.28 1.44,-0.28 0.46,0 0.87,0.07 1.22,0.23 0.35,0.15 0.62,0.36 0.81,0.64 0.19,0.28 0.28,0.61 0.28,0.99 0,0.21 -0.03,0.42 -0.08,0.62 -0.06,0.21 -0.16,0.43 -0.32,0.66 -0.15,0.22 -0.38,0.48 -0.67,0.77l-2.22 2.1 -0.25 -0.46 3.79 0 0 1.02 -4.78 0z"/>
    </g>
    <g>
     <path class="fil1" d="M553.5 422.72l0 -3.22 10.29 -9.77c0.86,-0.82 1.5,-1.53 1.92,-2.15 0.42,-0.61 0.7,-1.19 0.83,-1.72 0.14,-0.53 0.21,-1.03 0.21,-1.5 0,-1.18 -0.41,-2.1 -1.22,-2.76 -0.82,-0.65 -2.01,-0.98 -3.59,-0.98 -1.26,0 -2.4,0.23 -3.43,0.67 -1.02,0.44 -1.9,1.12 -2.64,2.04l-3.37 -2.6c1.01,-1.35 2.37,-2.41 4.09,-3.16 1.71,-0.75 3.63,-1.13 5.75,-1.13 1.88,0 3.51,0.3 4.91,0.91 1.39,0.6 2.47,1.46 3.22,2.57 0.75,1.11 1.13,2.43 1.13,3.96 0,0.84 -0.11,1.67 -0.34,2.5 -0.22,0.83 -0.64,1.7 -1.25,2.61 -0.62,0.91 -1.52,1.94 -2.71,3.07l-8.84 8.4 -1 -1.81 15.14 0 0 4.07 -19.1 0z"/>
     <path id="1" class="fil1" d="M585.85 422.98c-2.07,0 -3.92,-0.44 -5.53,-1.31 -1.62,-0.88 -2.89,-2.08 -3.8,-3.61 -0.91,-1.53 -1.37,-3.27 -1.37,-5.22 0,-1.98 0.46,-3.72 1.37,-5.24 0.91,-1.52 2.18,-2.71 3.8,-3.57 1.61,-0.87 3.46,-1.3 5.53,-1.3 1.92,0 3.62,0.39 5.09,1.17 1.47,0.78 2.58,1.92 3.35,3.42l-3.56 2.08c-0.59,-0.94 -1.31,-1.63 -2.16,-2.08 -0.85,-0.44 -1.77,-0.66 -2.76,-0.66 -1.13,0 -2.16,0.24 -3.07,0.74 -0.91,0.49 -1.63,1.2 -2.15,2.13 -0.52,0.92 -0.77,2.03 -0.77,3.31 0,1.28 0.25,2.39 0.77,3.31 0.52,0.93 1.24,1.64 2.15,2.13 0.91,0.49 1.94,0.74 3.07,0.74 0.99,0 1.91,-0.22 2.76,-0.67 0.85,-0.44 1.57,-1.13 2.16,-2.07l3.56 2.07c-0.77,1.48 -1.88,2.63 -3.35,3.43 -1.47,0.8 -3.17,1.2 -5.09,1.2z"/>
     <path class="fil1" d="M558.09 450.39c-0.92,0 -1.81,-0.13 -2.68,-0.4 -0.87,-0.26 -1.6,-0.63 -2.19,-1.1l1.04 -1.87c0.46,0.38 1.03,0.69 1.7,0.93 0.66,0.23 1.36,0.35 2.09,0.35 0.86,0 1.54,-0.18 2.02,-0.53 0.48,-0.35 0.72,-0.83 0.72,-1.43 0,-0.6 -0.22,-1.06 -0.67,-1.41 -0.44,-0.35 -1.16,-0.52 -2.14,-0.52l-1.19 0 0 -1.65 3.7 -4.4 0.32 0.91 -6.96 0 0 -2.02 8.83 0 0 1.61 -3.71 4.4 -1.25 -0.74 0.72 0c1.59,0 2.78,0.36 3.58,1.07 0.8,0.71 1.19,1.62 1.19,2.73 0,0.73 -0.18,1.4 -0.55,2.01 -0.37,0.62 -0.94,1.12 -1.69,1.5 -0.76,0.37 -1.72,0.56 -2.88,0.56z"/>
     <path id="1" class="fil1" d="M568.89 450.39c-0.91,0 -1.8,-0.13 -2.67,-0.4 -0.87,-0.26 -1.6,-0.63 -2.19,-1.1l1.02 -1.87c0.46,0.38 1.04,0.69 1.71,0.93 0.67,0.23 1.37,0.35 2.1,0.35 0.85,0 1.52,-0.18 2.01,-0.54 0.48,-0.36 0.73,-0.84 0.73,-1.44 0,-0.41 -0.1,-0.77 -0.31,-1.08 -0.2,-0.3 -0.56,-0.54 -1.07,-0.7 -0.51,-0.16 -1.21,-0.24 -2.1,-0.24l-3.13 0 0.67 -7.05 7.6 0 0 2.02 -6.72 0 1.26 -1.15 -0.5 5.27 -1.26 -1.12 2.61 0c1.29,0 2.32,0.16 3.1,0.5 0.79,0.34 1.36,0.81 1.73,1.41 0.36,0.6 0.54,1.28 0.54,2.05 0,0.75 -0.18,1.44 -0.55,2.07 -0.37,0.63 -0.94,1.13 -1.7,1.52 -0.76,0.38 -1.72,0.57 -2.88,0.57z"/>
     <path id="2" class="fil1" d="M575.5 453l1.08 -4.09 0.31 1.37c-0.43,0 -0.79,-0.13 -1.08,-0.4 -0.29,-0.26 -0.44,-0.62 -0.44,-1.08 0,-0.47 0.15,-0.84 0.44,-1.12 0.29,-0.28 0.64,-0.42 1.06,-0.42 0.43,0 0.79,0.14 1.07,0.43 0.29,0.28 0.43,0.65 0.43,1.11 0,0.12 -0.01,0.25 -0.04,0.4 -0.02,0.14 -0.06,0.3 -0.12,0.49 -0.05,0.18 -0.14,0.42 -0.27,0.7l-0.94 2.61 -1.5 0z"/>
     <path id="3" class="fil1" d="M579.94 450.2l0 -1.61 5.15 -4.88c0.43,-0.41 0.75,-0.77 0.96,-1.08 0.21,-0.3 0.35,-0.59 0.42,-0.86 0.07,-0.26 0.1,-0.51 0.1,-0.74 0,-0.6 -0.2,-1.06 -0.61,-1.38 -0.41,-0.33 -1.01,-0.49 -1.8,-0.49 -0.63,0 -1.2,0.11 -1.71,0.33 -0.51,0.22 -0.95,0.56 -1.32,1.02l-1.69 -1.3c0.51,-0.68 1.19,-1.2 2.05,-1.58 0.86,-0.38 1.82,-0.57 2.88,-0.57 0.94,0 1.75,0.15 2.45,0.46 0.7,0.3 1.23,0.73 1.61,1.28 0.38,0.56 0.56,1.22 0.56,1.98 0,0.42 -0.05,0.84 -0.16,1.25 -0.11,0.42 -0.32,0.85 -0.63,1.31 -0.31,0.45 -0.76,0.97 -1.35,1.53l-4.43 4.21 -0.5 -0.91 7.57 0 0 2.03 -9.55 0z"/>
     <path id="4" class="fil1" d="M596.29 450.39c-1.03,0 -1.95,-0.26 -2.77,-0.78 -0.82,-0.52 -1.47,-1.27 -1.93,-2.26 -0.47,-1 -0.71,-2.2 -0.71,-3.62 0,-1.42 0.24,-2.63 0.71,-3.62 0.46,-0.99 1.11,-1.75 1.93,-2.27 0.82,-0.52 1.74,-0.78 2.77,-0.78 1.03,0 1.96,0.26 2.77,0.78 0.82,0.52 1.46,1.28 1.94,2.27 0.47,0.99 0.71,2.2 0.71,3.62 0,1.42 -0.24,2.62 -0.71,3.62 -0.48,0.99 -1.12,1.74 -1.94,2.26 -0.81,0.52 -1.74,0.78 -2.77,0.78zm0 -2.09c0.6,0 1.13,-0.16 1.57,-0.49 0.44,-0.33 0.79,-0.83 1.04,-1.51 0.26,-0.68 0.38,-1.54 0.38,-2.57 0,-1.05 -0.12,-1.91 -0.38,-2.58 -0.25,-0.68 -0.6,-1.18 -1.04,-1.5 -0.44,-0.33 -0.97,-0.49 -1.57,-0.49 -0.58,0 -1.1,0.16 -1.55,0.49 -0.45,0.32 -0.8,0.82 -1.05,1.5 -0.26,0.67 -0.38,1.53 -0.38,2.58 0,1.03 0.12,1.89 0.38,2.57 0.25,0.68 0.6,1.18 1.05,1.51 0.45,0.33 0.97,0.49 1.55,0.49z"/>
     <polygon id="5" class="fil1" points="609.19,450.2 609.19,440.32 611.61,440.32 615.59,447.34 614.63,447.34 618.81,440.32 620.98,440.32 620.99,450.2 618.9,450.2 618.9,442.8 619.27,443.04 615.57,449.17 614.57,449.17 610.85,442.88 611.3,442.76 611.3,450.2 "/>
     <path id="6" class="fil1" d="M622.87 445.58l0 -0.81 2.57 -2.44c0.22,-0.2 0.38,-0.38 0.49,-0.54 0.1,-0.15 0.17,-0.3 0.2,-0.43 0.04,-0.13 0.06,-0.26 0.06,-0.37 0,-0.3 -0.11,-0.53 -0.31,-0.69 -0.2,-0.17 -0.5,-0.25 -0.9,-0.25 -0.31,0 -0.6,0.06 -0.85,0.17 -0.26,0.11 -0.48,0.28 -0.66,0.51l-0.85 -0.65c0.26,-0.34 0.6,-0.6 1.02,-0.79 0.43,-0.19 0.91,-0.28 1.44,-0.28 0.47,0 0.88,0.07 1.23,0.22 0.35,0.15 0.62,0.37 0.81,0.65 0.18,0.27 0.28,0.6 0.28,0.99 0,0.21 -0.03,0.41 -0.09,0.62 -0.05,0.21 -0.16,0.43 -0.31,0.65 -0.15,0.23 -0.38,0.49 -0.68,0.77l-2.21 2.1 -0.25 -0.45 3.79 0 0 1.02 -4.78 0z"/>
    </g>
   </g>
  </g>
 </g>
</svg>
