<svg id="Layer_1" data-name="Layer 1" xmlns="http://www.w3.org/2000/svg" width="400" height="109.41" viewBox="0 0 400 109.41">
  <title>VTB24</title>
  <g>
    <path d="M118.36,36.45h-1.15v73H146.6c13.67,0,22.51-8.19,22.51-20.88,0-6.34-2-10.88-6.59-14.72a20.11,20.11,0,0,0-5.43-3.17,17.09,17.09,0,0,0,4.15-2.72,16.77,16.77,0,0,0,5.14-12.65,17.52,17.52,0,0,0-6-13.46c-5-4.44-10.62-5.36-18.19-5.36Zm22.17,14.37a14.19,14.19,0,0,1,5.43.82c2.06.88,3.34,3.2,3.34,6.07a7.55,7.55,0,0,1-1.72,5c-1.64,1.83-3.57,2-5.74,2h-8.36V50.82Zm2,27.88c2.13,0,4.33.21,6,1.81a8.9,8.9,0,0,1,2.29,6.29,10.18,10.18,0,0,1-1.72,5.75c-1.8,2.47-3.77,3-6.55,3h-8.87V78.7Z" style="fill: #002d73"/>
    <path d="M227.55,36.46H169.7v14h20.43v58.93h16.43V50.47h17.89l4.73-14Z" style="fill: #002d73"/>
    <path d="M280.74,36.46H233.06v72.95h27.28c6.17,0,12-1.56,15.9-4.27s8.83-8.22,8.83-18.63c0-9.76-4.66-15-7.44-17.26-2.95-2.39-8.47-5.24-17.9-5.24H249.47V50.48h27.59l4.77-14Zm-23,41.43a10.49,10.49,0,0,1,5.84,1.53c2.14,1.49,3.18,3.81,3.18,7.09,0,3.45-1,5.12-1.78,6.09-1.45,1.83-3.65,2.71-6.73,2.71h-8.74V77.89Z" style="fill: #002d73"/>
    <path d="M67.63,36.46H12.2s1.66,5.36,3.61,8.11H65.13A48,48,0,0,1,79,64.85H27.2A59.81,59.81,0,0,1,8,36.46c.45-1.36,1-2.71,1.49-4.05H67.6a64,64,0,0,0,9-8.1h-63c.84-1.39,1.74-2.74,2.67-4H79.93A82.66,82.66,0,0,0,85,12.16H23.28a59.68,59.68,0,0,1,4.66-4h59A74.48,74.48,0,0,0,89.65,0h-64A66.82,66.82,0,0,0,0,36.46,66.88,66.88,0,0,0,25.6,72.92h.57v0H89.48S88.35,53.54,67.63,36.46" style="fill: #002d73"/>
    <path d="M295.93,39.87l-.52.27c0,.61,0,14,0,15.58l2-1c1.45-.87,9.22-5.33,16.25-5.69A9.72,9.72,0,0,1,321,51.5a7.27,7.27,0,0,1,2.3,5.3c0,6.69-4.63,10.06-10.22,13.47-13.74,8.24-22.25,16.82-22.25,34.14,0,0,0,4.1,0,5H336.5V95.35H308.21l.16-.68c1.16-4.63,4.08-8.14,9.78-11.77l7.11-4.38c8.35-5.11,13.64-13.57,13.81-22.08v-.52a19.85,19.85,0,0,0-5.49-14.25c-4.19-4.28-10.31-6.54-17.7-6.54a47.63,47.63,0,0,0-19.95,4.74" style="fill: #ed1d24"/>
    <path d="M369.52,36.47c-.32.49-29.12,45.65-29.3,45.91V95.19h32.49v14.22h13.61V95.19h8.95l4.73-14H386.32V66.79H372.71V81.16h-16c1.16-2,24.46-38.62,28.34-44.69Z" style="fill: #ed1d24"/>
  </g>
</svg>
