<svg id="Layer_1" data-name="Layer 1" xmlns="http://www.w3.org/2000/svg" width="500" height="96.51" viewBox="0 0 500 96.51">
  <title>RosselhozBank</title>
  <g id="Page_1" data-name="Page 1">
    <g id="Layer_1-2" data-name="Layer 1">
      <g>
        <path d="M107.08,74.5h-6.76V34.62h15.36c4.38,0,7.62,1.17,9.75,3.52a12,12,0,0,1,3.16,8.31A11.67,11.67,0,0,1,116.45,58.7h-9.37V74.5Zm0-22h8a6.5,6.5,0,0,0,4.78-1.63,5.86,5.86,0,0,0,1.65-4.36A6.24,6.24,0,0,0,120,42.33q-1.53-1.76-5.51-1.75h-7.39v12Zm36.66,22.59a10.73,10.73,0,0,1-9.4-4.7,18.59,18.59,0,0,1-3.24-10.79,16.58,16.58,0,0,1,3.58-10.9,11.68,11.68,0,0,1,9.47-4.36,11.52,11.52,0,0,1,9.17,4.25c2.38,2.81,3.57,6.5,3.57,11s-1.23,8.4-3.72,11.23a12,12,0,0,1-9.43,4.25Zm.21-5.5q6.31,0,6.32-10a14.24,14.24,0,0,0-1.51-7.15,5,5,0,0,0-4.64-2.61,5.18,5.18,0,0,0-4.81,2.7,14.29,14.29,0,0,0-1.56,7.18c0,3.21.54,5.67,1.65,7.35A5.17,5.17,0,0,0,144,69.62Zm34.7-6,5.39.59c-.7,3.69-2,6.44-4,8.21a10.54,10.54,0,0,1-7.23,2.66,10.08,10.08,0,0,1-8.83-4.46,18.69,18.69,0,0,1-3.09-10.92,17.43,17.43,0,0,1,3.38-11,10.87,10.87,0,0,1,9-4.36q9.07,0,10.8,10.17l-5.39.78c-.47-3.66-2.17-5.48-5.09-5.48a4.81,4.81,0,0,0-4.62,3A16.11,16.11,0,0,0,167.5,60a13.09,13.09,0,0,0,1.5,6.9,4.68,4.68,0,0,0,4.18,2.43c2.75,0,4.58-1.88,5.47-5.65Zm26.21,0,5.39.59c-.7,3.69-2.05,6.44-4,8.21A10.52,10.52,0,0,1,199,75.12a10.05,10.05,0,0,1-8.82-4.46,18.7,18.7,0,0,1-3.1-10.92,17.43,17.43,0,0,1,3.38-11,10.88,10.88,0,0,1,9-4.36q9.08,0,10.8,10.17l-5.39.78c-.47-3.66-2.17-5.48-5.08-5.48a4.79,4.79,0,0,0-4.62,3A16.25,16.25,0,0,0,193.71,60a13.19,13.19,0,0,0,1.5,6.9,4.68,4.68,0,0,0,4.18,2.43q4.14,0,5.47-5.65ZM232.7,65.1l5.66.81a12.77,12.77,0,0,1-4.28,6.61,12.27,12.27,0,0,1-8,2.6A11.63,11.63,0,0,1,216.79,71q-3.53-4.12-3.52-11.17a17,17,0,0,1,3.55-11.07,11.7,11.7,0,0,1,9.6-4.39,10.79,10.79,0,0,1,9.18,4.34q3.24,4.32,3.23,11.1v.75h-19a18,18,0,0,0,.53,4.83,6.55,6.55,0,0,0,2.14,3.15,6,6,0,0,0,4,1.34c3.11,0,5.2-1.59,6.28-4.78Zm-.39-8.83a7.69,7.69,0,0,0-1.8-5.2,5.8,5.8,0,0,0-8.68-.13,8.77,8.77,0,0,0-2,5.34h12.52Zm8,18.23L249.19,45h7.39l8.63,29.51h-6.54L252.4,50.17l-7,24.33Zm28.41,0V45H275V55.77h7.31q4.75,0,7,2.72a10.22,10.22,0,0,1,2.25,6.75q0,4.44-2.44,6.84a9.19,9.19,0,0,1-6.8,2.42ZM275,69.33h6.08a4.58,4.58,0,0,0,3.31-1,4.28,4.28,0,0,0,1-3.17c0-3-1.45-4.56-4.31-4.56H275v8.71Zm42.34,5.17h-7.14l-5.87-10.75L297.87,74.5h-5.38l9.23-15.18-8-14.33h7.17l4.56,8.68L310.65,45h5.25l-7.83,12.8,9.25,16.71Zm13.89.62a10.72,10.72,0,0,1-9.4-4.7,18.45,18.45,0,0,1-3.25-10.79,16.58,16.58,0,0,1,3.59-10.9,11.67,11.67,0,0,1,9.46-4.36,11.48,11.48,0,0,1,9.17,4.25c2.38,2.81,3.58,6.5,3.58,11s-1.24,8.4-3.71,11.23a12.06,12.06,0,0,1-9.44,4.25Zm.21-5.5q6.33,0,6.33-10a14.34,14.34,0,0,0-1.51-7.15,5,5,0,0,0-4.65-2.61,5.19,5.19,0,0,0-4.81,2.7,14.29,14.29,0,0,0-1.57,7.18c0,3.21.55,5.67,1.66,7.35a5.15,5.15,0,0,0,4.55,2.55Zm24.67-8V57c3,0,4.9-.38,5.67-1.18a3.88,3.88,0,0,0,1.15-2.76,3.62,3.62,0,0,0-1.1-2.73,4.36,4.36,0,0,0-3.11-1q-4.29,0-5.12,4.38l-5.73-1.08q1.84-8.22,11.32-8.22c3.39,0,6,.77,7.75,2.29a7.31,7.31,0,0,1,2.64,5.75c0,3-1.72,5.1-5.14,6.4q6,1.69,6,7.1a8.55,8.55,0,0,1-2.88,6.58c-1.9,1.76-4.65,2.63-8.25,2.63q-9.88,0-12.06-9L353,65c.75,3.5,2.68,5.26,5.74,5.26A5.15,5.15,0,0,0,362.38,69a4.32,4.32,0,0,0,1.34-3.35,3.77,3.77,0,0,0-3.23-3.88,32.82,32.82,0,0,0-4.4-.21Zm20,12.91V34.62h25.12v7.16H384.75v8.71h6.32a24,24,0,0,1,7.79,1,9.09,9.09,0,0,1,4.68,3.83,12.78,12.78,0,0,1,1.82,7q0,5.76-3.31,9c-2.21,2.15-5.29,3.21-9.25,3.21ZM384.74,67h6.76a4.87,4.87,0,0,0,3.68-1.33,4.8,4.8,0,0,0,1.3-3.48c0-3.1-1.91-4.65-5.69-4.65h-6.05V67Zm50,7.54h-7.93a22.06,22.06,0,0,1-.38-4.61,12,12,0,0,1-4.17,4.2,10.46,10.46,0,0,1-4.72,1,8.94,8.94,0,0,1-6.31-2.25,7.9,7.9,0,0,1-2.39-6.06,9.66,9.66,0,0,1,1.39-5.1A9.29,9.29,0,0,1,414.74,58q3.11-1.34,11.32-2V54.37c0-2.87-1.35-4.29-4-4.29-2.88,0-4.49,1.42-4.82,4.29l-7.54-.75c.48-3.36,2-5.73,4.48-7.14a17,17,0,0,1,8.46-2.11,19.18,19.18,0,0,1,5.33.72,8.77,8.77,0,0,1,3.9,2.11,7.13,7.13,0,0,1,1.89,3,20,20,0,0,1,.5,5.44V69a21.24,21.24,0,0,0,.52,5.52Zm-8.67-14.14q-8.6.91-8.6,5.52a4.17,4.17,0,0,0,.9,2.68A3.16,3.16,0,0,0,421,69.68a4.4,4.4,0,0,0,3.63-1.91,7.46,7.46,0,0,0,1.48-4.71v-2.7ZM441,74.5V45h8.19V55.62h8.52V45h8.19V74.5h-8.19V62h-8.52V74.5Zm49.46-19.37L500,74.5h-8.57L485,61.33,480.78,66V74.5h-8.17V45h8.17v7.35c0,1.2,0,2.93-.1,5.21a24.84,24.84,0,0,1,2.34-3L491.39,45H499l-8.54,10.15Z" style="fill: #008a52"/>
        <g>
          <path d="M40.39,95.9c21.9,0,39.78-18.17,39.78-40.42S62.29,15.05,40.39,15.05.61,33.2.61,55.48,18.49,95.9,40.39,95.9Z" style="fill: #008a52"/>
          <path d="M40.39,14.43C18.14,14.43,0,32.87,0,55.47s18.14,41,40.39,41,40.39-18.46,40.39-41-18.14-41-40.39-41ZM33,82.78v11.8a39.48,39.48,0,0,1-4.09-1V57.87h5.85a4.54,4.54,0,0,1,3.19.9,4.27,4.27,0,0,1,.9,3.16V78.72a4.24,4.24,0,0,1-.9,3.15c-.92.93-2.63.93-4,.93-.31,0-.62,0-.9,0Zm7.4,12.52a38.9,38.9,0,0,1-5.64-.42V84.5c2.7,0,4.47-.92,5.3-2.78V92.09a7.67,7.67,0,0,0,.59,3.19l-.25,0ZM51.54,70.84h-4v-9.2H45.78v31h1.74V72.57h4V92.09a8.45,8.45,0,0,1-.13,1.59,38.24,38.24,0,0,1-8.85,1.55,4.9,4.9,0,0,1-.8-3.14V62.24a4.71,4.71,0,0,1,.9-3.26,4.23,4.23,0,0,1,3.13-.92c1.52,0,3.75-.22,4.89.92a4.77,4.77,0,0,1,.86,3.26v8.6Zm12.89,16a40.11,40.11,0,0,1-4.3,3V72.77H58.3v18.1A41.53,41.53,0,0,1,54,92.81V73.26c0-1.8.43-3.15,2.25-3.77l-2-11.07h4L59,70.51h.49l.68-12.09h4.28l-2.3,11.07c1.92.68,2.3,1.85,2.3,3.77V86.87ZM53.28,69.44V62.57l1.21,6.17a3.51,3.51,0,0,0-1.21.7Zm12.58,1.12a3.12,3.12,0,0,0-1.93-1.82l1.93-9.94V70.56ZM79.18,61c0,.18-.05.37-.07.56H72.52v1.6h1c1.9,0,4-.08,5,1.3A39.91,39.91,0,0,1,74.5,75V66.39h-2V78.2a42.13,42.13,0,0,1-4.46,5.42l-.22.21V58.34H79.17V61ZM52.13,56.71l.4,2c-.88-1.62-2.56-2.43-5-2.43H45.78c-2.94,0-4.74,1.18-5.42,3.52-.64-2.46-2.5-3.68-5.61-3.68H27.13V92.93A39.49,39.49,0,0,1,12.72,83.6a40.17,40.17,0,0,1,0-56.27,38.6,38.6,0,0,1,55.33,0,40.05,40.05,0,0,1,11.5,28.14c0,.42,0,.83,0,1.24ZM33,79.3h1.76v-18H33v18Z" style="fill: #fff"/>
          <polygon points="6.66 33.85 6.72 35.16 6.9 36.4 7.21 37.57 7.56 38.72 8.01 39.8 8.54 40.85 9.1 41.88 9.75 42.84 10.43 43.77 11.21 44.7 12.82 46.49 14.52 48.17 16.29 49.88 18.02 51.54 19.76 53.25 21.34 55.01 22.11 55.94 22.83 56.88 23.48 57.84 24.04 58.85 24.6 59.91 25.02 61.02 25.36 62.14 25.67 63.35 25.83 64.56 25.92 65.86 25.86 76.73 25.8 75.43 25.61 74.19 25.3 73.01 24.97 71.87 24.53 70.79 23.98 69.69 23.42 68.71 22.76 67.72 22.08 66.78 21.3 65.86 19.7 64.08 17.99 62.35 16.25 60.72 14.49 59.04 12.75 57.3 11.18 55.51 10.4 54.64 9.69 53.65 9.07 52.69 8.52 51.67 7.99 50.61 7.49 49.53 7.15 48.39 6.87 47.21 6.69 45.97 6.59 44.66 6.66 33.85" style="fill: #fff"/>
          <polygon points="4.85 47.6 4.95 48.99 5.13 50.28 5.48 51.55 5.85 52.75 6.38 53.92 6.94 55.03 7.56 56.11 8.26 57.14 9.01 58.13 9.85 59.12 11.61 60.98 13.47 62.79 15.42 64.59 17.32 66.36 19.17 68.16 20.93 70.02 21.77 71.02 22.52 72.01 23.23 73.04 23.85 74.12 24.47 75.23 24.93 76.4 25.3 77.6 25.64 78.86 25.83 80.16 25.92 81.54 25.86 93.06 25.77 91.67 25.58 90.38 25.27 89.11 24.87 87.91 24.41 86.74 23.79 85.62 23.2 84.55 22.48 83.52 21.71 82.54 20.88 81.54 19.14 79.68 17.25 77.85 15.36 76.07 13.44 74.3 11.55 72.47 9.81 70.57 8.94 69.64 8.21 68.62 7.49 67.57 6.87 66.51 6.31 65.37 5.79 64.24 5.42 63 5.11 61.76 4.92 60.47 4.82 59.05 4.85 47.6" style="fill: #fff"/>
          <path d="M79.06,41.32H53.6c-.25-.63-.64-1-1.08-1s-.84.42-1.1,1H50.5c-.24-.63-.64-1-1.09-1s-.84.42-1.1,1H47.6a4.33,4.33,0,0,0,.87-2.6,4.49,4.49,0,0,0-4.62-4.65,4.86,4.86,0,0,0-5.05,4.65c0,1.17.89,2.25,1.18,3.05a1,1,0,0,0,.09,2c-.28,1-1.26,1.73-1.26,3.3a4.86,4.86,0,0,0,5,4.65,4.49,4.49,0,0,0,4.62-4.65,4.34,4.34,0,0,0-.87-2.59h.71c.25.63.65,1,1.1,1s.84-.41,1.09-1h.91c.26.63.65,1,1.1,1s.84-.41,1.08-1H72.3v1h-.88v2.09h.88l.82,1.15-1.7-.25v2.81h1.7V50.08h2.52v1.28h1.7V48.55l-1.7.25.83-1.15h.87V45.56h-.87v-1h2.59a1.22,1.22,0,0,0,1.2-1.23v-.74a1.22,1.22,0,0,0-1.2-1.23ZM44.69,41a2,2,0,0,1,0,3.76l-.43,1c1.11,0,2.38.14,2.38,1.44a2.68,2.68,0,0,1-2.79,2.84,3,3,0,0,1-3.21-2.84c0-1.23.45-1.41,1.68-1.81L42,44.68l.79-.71A1.26,1.26,0,0,1,42,42.83a1.24,1.24,0,0,1,.76-1.14l-.69-.52.26-.75c-1.23-.4-1.68-.57-1.68-1.81a3,3,0,0,1,3.21-2.84,2.68,2.68,0,0,1,2.79,2.84c0,1.3-1.09,1.44-2.38,1.44l.43.94Z" style="fill: #ffca38"/>
          <path d="M38.59,47.09c0-1.53.88-2.33,1.21-3.13a1.25,1.25,0,0,1-.1-2.32,7.4,7.4,0,0,1-1.11-2.92,5.07,5.07,0,0,1,5.27-4.86,4.73,4.73,0,0,1,4.84,4.86A4.59,4.59,0,0,1,48,41.11h.16a1.25,1.25,0,0,1,2.47,0h.63a1.5,1.5,0,0,1,1.24-1,1.52,1.52,0,0,1,1.23,1H79.06v.42H53.46l-.05-.14c-.24-.6-.59-.92-.89-.9s-.67.3-.89.9l-.06.14H50.36l-.06-.14c-.23-.6-.59-.92-.88-.9s-.66.3-.89.9l-.06.14H47.18l.26-.35a4.13,4.13,0,0,0,.82-2.46,4.26,4.26,0,0,0-4.4-4.44A4.64,4.64,0,0,0,39,38.72c0,1.06.84,2.11,1.16,3l.08.23L40,42a.82.82,0,0,0,.07,1.61l.25,0-.07.23C40,44.94,39,45.61,39,47.09a4.63,4.63,0,0,0,4.83,4.43,4.26,4.26,0,0,0,4.4-4.43,4.12,4.12,0,0,0-.82-2.47l-.26-.34h1.29l.06.13c.23.6.59.92.89.91s.65-.31.89-.91l0-.13h1.21l.06.13c.22.6.59.92.89.91s.65-.31.89-.91l.05-.13H72.51v1.47h-.87v1.66h.76l1.19,1.65-2-.28v2.33h1.27V49.84h3v1.27h1.27V48.78l-1.95.28,1.18-1.65h.77V45.75h-.88V44.28h2.81a1,1,0,0,0,1-1v-.73a1,1,0,0,0-1-1v-.42a1.42,1.42,0,0,1,1.41,1.44v.73a1.43,1.43,0,0,1-1.42,1.44H76.69v.62h.87v2.52h-1l-.47.65,1.45-.22v3.28H75.44V50.27h-2.1v1.28H71.22V48.27l1.44.22-.46-.65h-1V45.32h.87V44.7H53.76a1.25,1.25,0,0,1-2.47,0h-.63a1.25,1.25,0,0,1-2.46,0H48a4.55,4.55,0,0,1,.68,2.38,4.71,4.71,0,0,1-4.84,4.86,5,5,0,0,1-5.28-4.85Zm5.27,3.17a3.24,3.24,0,0,1-3.42-3.06,1.75,1.75,0,0,1,.44-1.37A3.28,3.28,0,0,1,42,45.27l-.31-.64.68-.63a1.47,1.47,0,0,1-.59-1.18,1.41,1.41,0,0,1,.58-1.16l-.55-.43.23-.7A2.84,2.84,0,0,1,40.89,40a1.7,1.7,0,0,1-.45-1.37,3.26,3.26,0,0,1,3.42-3.05,2.92,2.92,0,0,1,2.21.9,3.17,3.17,0,0,1,.78,2.15A1.41,1.41,0,0,1,46,40a3.75,3.75,0,0,1-1.42.24l.23.54a2,2,0,0,1,1.51,2.08,2,2,0,0,1-1.51,2.08l-.25.61a3.61,3.61,0,0,1,1.36.24,1.44,1.44,0,0,1,.9,1.41,3.14,3.14,0,0,1-.78,2.15,2.82,2.82,0,0,1-2.2.91Zm-3-11.66c0,.6.1.87.3,1.06a3.64,3.64,0,0,0,1.22.54l.21.07-.27.82.85.64-.34.15a1,1,0,0,0-.62.95,1,1,0,0,0,.62.94l.31.13-.91.83.39.81-.24.07a3.42,3.42,0,0,0-1.22.55c-.21.19-.3.46-.31,1.05a2.82,2.82,0,0,0,3,2.63,2.47,2.47,0,0,0,2.57-2.63,1,1,0,0,0-.64-1A4.23,4.23,0,0,0,44.26,46h-.33l.61-1.44h.14a1.74,1.74,0,0,0,0-3.32V41l.2-.09-.2.09v.21h-.13l-.63-1.36h.34a3.76,3.76,0,0,0,1.58-.22,1,1,0,0,0,.58-1A2.45,2.45,0,0,0,43.85,36a2.81,2.81,0,0,0-3,2.61Z" style="fill: #fff"/>
          <polygon points="26.57 48.75 26.57 55.13 36.06 45.81 36.06 39.49 26.57 48.75" style="fill: #ffca38"/>
          <path d="M26.35,48.75v-.09L36.26,39v6.91l-9.91,9.74V48.75Zm.43,5.87,9.06-8.9V40l-9.06,8.84v5.78Z" style="fill: #fff"/>
          <polygon points="26.57 25.48 26.57 31.85 36.06 22.54 36.06 16.21 26.57 25.48" style="fill: #ffca38"/>
          <path d="M26.35,25.48v-.1l9.91-9.67v6.91l-9.91,9.74V25.48Zm.43,5.86,9.06-8.89V16.72l-9.06,8.85v5.77Z" style="fill: #fff"/>
          <polygon points="18.96 13.41 18.96 0 19.98 0 19.98 0.34 19.98 0 20.41 0 20.41 13.41 18.96 13.41" style="fill: #fff"/>
          <polygon points="26.57 33.24 26.57 39.61 36.06 30.29 36.06 23.98 26.57 33.24" style="fill: #ffca38"/>
          <path d="M26.35,33.23v-.09l9.91-9.68v6.91l-9.91,9.75V33.23Zm.43,5.86,9.06-8.89V24.47l-9.06,8.85v5.77Z" style="fill: #fff"/>
          <polygon points="22.16 15.92 22.16 0 23.19 0 23.19 0.34 23.19 0 23.62 0 23.62 15.92 22.16 15.92" style="fill: #fff"/>
          <polygon points="19.98 0.34 19.39 0.34 19.39 13.07 19.98 13.07 19.98 0.34" style="fill: #ffca38"/>
          <polygon points="23.19 0.34 22.6 0.34 22.6 15.57 23.19 15.57 23.19 0.34" style="fill: #ffca38"/>
          <polygon points="25.38 17.58 25.38 0 26.4 0 26.4 0.34 26.4 0 26.82 0 26.82 17.58 25.38 17.58" style="fill: #fff"/>
          <polygon points="26.57 41 26.57 47.36 36.06 38.05 36.06 31.73 26.57 41" style="fill: #ffca38"/>
          <path d="M26.35,41v-.1l9.91-9.68v6.92l-9.91,9.74V41Zm.43,5.86L35.84,38V32.24l-9.06,8.85v5.77Z" style="fill: #fff"/>
          <polygon points="26.4 0.34 25.81 0.34 25.81 17.23 26.4 17.23 26.4 0.34" style="fill: #ffca38"/>
          <polygon points="28.59 16.23 28.59 0 29.61 0 29.61 0.34 29.61 0 30.03 0 30.03 16.23 28.59 16.23" style="fill: #fff"/>
          <polygon points="25.64 48.75 25.64 55.13 16.16 45.81 16.16 39.49 25.64 48.75" style="fill: #ffca38"/>
          <path d="M15.94,45.9V39l9.85,9.62-.15.15.15-.15.06.06v7L15.94,45.9Zm.43-.18,9.05,8.9V48.85l-9-8.85v5.72Z" style="fill: #fff"/>
          <polygon points="31.79 13.74 31.79 0 32.84 0 32.84 0.34 32.84 0 33.27 0 33.27 13.74 31.79 13.74" style="fill: #fff"/>
          <polygon points="29.61 0.34 29.02 0.34 29.02 15.88 29.61 15.88 29.61 0.34" style="fill: #ffca38"/>
          <polygon points="34.82 11.41 34.82 0 35.84 0 35.84 0.34 35.84 0 36.26 0 36.26 11.41 34.82 11.41" style="fill: #fff"/>
          <polygon points="32.84 0.34 32.23 0.34 32.23 13.4 32.84 13.4 32.84 0.34" style="fill: #ffca38"/>
          <polygon points="35.84 0.34 35.25 0.34 35.25 11.07 35.84 11.07 35.84 0.34" style="fill: #ffca38"/>
          <polygon points="25.64 25.48 25.64 31.85 16.16 22.54 16.16 16.21 25.64 25.48" style="fill: #ffca38"/>
          <path d="M15.94,22.62V15.71l9.85,9.61-.15.15.15-.15.06.06v7l-9.91-9.74Zm.43-.17,9.05,8.89V25.58l-9-8.85v5.72Z" style="fill: #fff"/>
          <polygon points="25.64 33.24 25.64 39.61 16.16 30.29 16.16 23.98 25.64 33.24" style="fill: #ffca38"/>
          <path d="M15.94,30.39V23.47l9.85,9.62-.15.14.15-.14.06.06v7l-9.91-9.74Zm.43-.18,9.05,8.89V33.34l-9-8.85v5.72Z" style="fill: #fff"/>
          <polygon points="25.64 41 25.64 47.36 16.16 38.05 16.16 31.73 25.64 41" style="fill: #ffca38"/>
          <path d="M15.94,38.14V31.23l9.85,9.61-.15.16.15-.16.06.07v7l-9.91-9.75Zm.43-.18,9.05,8.9V41.09l-9-8.84V38Z" style="fill: #fff"/>
          <polygon points="15.94 11.33 15.94 0 16.99 0 16.99 0.34 16.99 0 17.42 0 17.42 11.33 15.94 11.33" style="fill: #fff"/>
          <polygon points="16.99 0.34 16.37 0.34 16.37 10.99 16.99 10.99 16.99 0.34" style="fill: #ffca38"/>
          <polygon points="26.57 17.71 26.57 24.09 36.06 14.77 36.06 8.46 26.57 17.71" style="fill: #ffca38"/>
          <path d="M26.35,17.71v-.09l9.91-9.68v6.92L26.35,24.6V17.71Zm.43,5.87,9.06-8.9V9L26.78,17.8v5.78Z" style="fill: #fff"/>
          <polygon points="25.64 17.71 25.64 24.09 16.16 14.77 16.16 8.46 25.64 17.71" style="fill: #ffca38"/>
          <path d="M15.94,14.87V8l9.85,9.62-.15.14.15-.14.06.06v7l-9.91-9.74Zm.43-.19,9.05,8.9V17.82L16.37,9v5.71Z" style="fill: #fff"/>
        </g>
      </g>
    </g>
  </g>
</svg>
