<svg width="24" height="24" viewBox="0 0 24 24" fill="none" xmlns="http://www.w3.org/2000/svg">
<path fill-rule="evenodd" clip-rule="evenodd" d="M9.00956 12.093C8.73622 11.8978 8.59955 11.8001 8.46389 11.7881C8.34492 11.7776 8.2261 11.81 8.12894 11.8794C8.01815 11.9586 7.94994 12.1121 7.81352 12.4191L4.77496 19.2558L4.77496 19.2558C4.53142 19.8038 4.40964 20.0778 4.4615 20.2541C4.50651 20.407 4.62178 20.5294 4.77181 20.5834C4.94469 20.6456 5.22543 20.5404 5.78691 20.3298L11.7189 18.1053C11.8228 18.0663 11.8748 18.0468 11.9283 18.0391C11.9757 18.0323 12.0239 18.0323 12.0713 18.0391C12.1248 18.0468 12.1767 18.0663 12.2807 18.1053L18.2127 20.3298C18.7741 20.5404 19.0549 20.6456 19.2278 20.5834C19.3778 20.5294 19.4931 20.407 19.5381 20.2541C19.5899 20.0778 19.4682 19.8038 19.2246 19.2558L16.1861 12.4191C16.0496 12.1121 15.9814 11.9586 15.8706 11.8794C15.7735 11.81 15.6547 11.7776 15.5357 11.7881C15.4 11.8001 15.2634 11.8978 14.99 12.093L12.581 13.8137C12.2333 14.0621 11.7662 14.0621 11.4185 13.8137L9.00956 12.093ZM9.06091 9.61245C9.04924 9.6387 9.05765 9.66954 9.08102 9.68624V9.68624L11.5348 11.4389C11.7021 11.5584 11.7858 11.6182 11.877 11.6413C11.9576 11.6617 12.042 11.6617 12.1226 11.6413C12.2138 11.6182 12.2975 11.5584 12.4648 11.4389L14.9185 9.68624V9.68624C14.9419 9.66954 14.9503 9.6387 14.9387 9.61245L12.7308 4.64483C12.4993 4.12389 12.3835 3.86341 12.2222 3.78328C12.0821 3.71368 11.9175 3.71368 11.7773 3.78328C11.616 3.86341 11.5003 4.12389 11.2687 4.64483L9.06091 9.61245Z" fill="#222222"/>
</svg>
