<?xml version="1.0" encoding="UTF-8"?>
<!DOCTYPE svg PUBLIC "-//W3C//DTD SVG 1.1//EN" "http://www.w3.org/Graphics/SVG/1.1/DTD/svg11.dtd">
<!-- Creator: CorelDRAW 2019 (64-Bit) -->
<svg xmlns="http://www.w3.org/2000/svg" xml:space="preserve" width="1920px" height="1080px" version="1.1" style="shape-rendering:geometricPrecision; text-rendering:geometricPrecision; image-rendering:optimizeQuality; fill-rule:evenodd; clip-rule:evenodd"
viewBox="0 0 1920 1080"
 xmlns:xlink="http://www.w3.org/1999/xlink">
 <defs>
  <style type="text/css">
   <![CDATA[
    .str1 {stroke:#2B2A29;stroke-miterlimit:22.9256}
    .str2 {stroke:#2B2A29;stroke-width:2;stroke-miterlimit:22.9256}
    .str0 {stroke:#2B2A29;stroke-width:3;stroke-miterlimit:22.9256}
    .fil0 {fill:none}
   ]]>
  </style>
 </defs>
 <g id="Слой_x0020_1">
  <metadata id="CorelCorpID_0Corel-Layer"/>
  <g id="контуры_x0020_секции">
   <line class="fil0 str0" x1="662.27" y1="346.11" x2="904.58" y2= "346.11" />
   <line class="fil0 str0" x1="662.27" y1="733.8" x2="1292.27" y2= "733.8" />
   <line class="fil0 str0" x1="662.27" y1="346.11" x2="662.27" y2= "733.8" />
   <line class="fil0 str0" x1="1292.27" y1="346.11" x2="1292.27" y2= "733.8" />
   <line class="fil0 str1" x1="1195.35" y1="782.26" x2="1098.43" y2= "782.26" />
   <line class="fil0 str0" x1="1195.35" y1="733.8" x2="1195.35" y2= "782.26" />
   <line class="fil0 str1" x1="1098.43" y1="782.26" x2="1001.5" y2= "782.26" />
   <line class="fil0 str0" x1="1001.5" y1="733.8" x2="1001.5" y2= "782.26" />
   <line class="fil0 str1" x1="1001.5" y1="782.26" x2="856.12" y2= "782.26" />
   <line class="fil0 str0" x1="856.12" y1="733.8" x2="856.12" y2= "782.26" />
   <line class="fil0 str1" x1="856.12" y1="782.26" x2="759.19" y2= "782.26" />
   <line class="fil0 str0" x1="759.19" y1="733.8" x2="759.19" y2= "782.26" />
   <line class="fil0 str0" x1="759.19" y1="346.11" x2="759.19" y2= "297.64" />
   <line class="fil0 str1" x1="904.58" y1="297.64" x2="759.19" y2= "297.64" />
   <line class="fil0 str0" x1="904.58" y1="346.11" x2="904.58" y2= "297.64" />
   <line class="fil0 str0" x1="1049.96" y1="297.64" x2="904.58" y2= "297.64" />
   <line class="fil0 str0" x1="1049.96" y1="346.11" x2="1049.96" y2= "297.64" />
   <line class="fil0 str1" x1="1195.35" y1="297.64" x2="1049.96" y2= "297.64" />
   <line class="fil0 str0" x1="1195.35" y1="346.11" x2="1195.35" y2= "297.64" />
   <line class="fil0 str0" x1="1049.96" y1="346.11" x2="1292.27" y2= "346.11" />
   <line class="fil0 str0" x1="1049.96" y1="539.97" x2="1195.35" y2= "539.97" />
   <line class="fil0 str0" x1="856.12" y1="733.8" x2="856.12" y2= "539.95" />
   <line class="fil0 str0" x1="1001.5" y1="733.8" x2="1001.5" y2= "539.95" />
   <line class="fil0 str0" x1="1195.35" y1="733.8" x2="1195.35" y2= "539.95" />
   <line class="fil0 str0" x1="1049.96" y1="346.11" x2="1049.96" y2= "491.49" />
   <line class="fil0 str0" x1="904.58" y1="346.11" x2="904.58" y2= "491.49" />
   <line class="fil0 str0" x1="904.58" y1="491.49" x2="904.58" y2= "499.57" />
   <line class="fil0 str0" x1="904.58" y1="491.49" x2="821.42" y2= "491.49" />
   <line class="fil0 str0" x1="851.27" y1="539.95" x2="856.12" y2= "539.95" />
   <line class="fil0 str0" x1="821.42" y1="539.95" x2="662.27" y2= "539.95" />
   <line class="fil0 str0" x1="821.42" y1="539.95" x2="821.42" y2= "535.11" />
   <line class="fil0 str0" x1="821.42" y1="539.95" x2="826.26" y2= "539.95" />
   <line class="fil0 str0" x1="821.42" y1="499.57" x2="821.42" y2= "491.49" />
   <line class="fil0 str0" x1="904.58" y1="535.12" x2="904.58" y2= "539.97" />
   <line class="fil0 str0" x1="904.58" y1="539.97" x2="856.12" y2= "539.97" />
   <line class="fil0 str0" x1="1001.5" y1="539.97" x2="938.5" y2= "539.97" />
   <line class="fil0 str0" x1="904.58" y1="539.97" x2="909.43" y2= "539.97" />
   <line class="fil0 str0" x1="1049.96" y1="532.12" x2="1049.96" y2= "539.97" />
   <line class="fil0 str0" x1="1049.96" y1="491.15" x2="1049.96" y2= "499.57" />
   <line class="fil0 str0" x1="1001.5" y1="539.95" x2="1009.58" y2= "539.97" />
   <line class="fil0 str0" x1="1041.89" y1="539.95" x2="1049.96" y2= "539.97" />
  </g>
  <g id="планировка_x0020_квартир">
   <line class="fil0 str2" x1="759.19" y1="346.11" x2="759.19" y2= "446.26" />
   <line class="fil0 str2" x1="759.19" y1="491.49" x2="662.27" y2= "491.49" />
   <line class="fil0 str2" x1="759.19" y1="531.87" x2="759.19" y2= "539.95" />
   <line class="fil0 str2" x1="759.19" y1="491.49" x2="759.19" y2= "499.57" />
   <line class="fil0 str2" x1="759.19" y1="491.49" x2="759.19" y2= "475.34" />
   <line class="fil0 str2" x1="759.19" y1="573.87" x2="759.19" y2= "604.57" />
   <line class="fil0 str2" x1="759.19" y1="604.57" x2="662.27" y2= "604.57" />
   <line class="fil0 str2" x1="759.19" y1="604.57" x2="759.19" y2= "620.72" />
   <line class="fil0 str2" x1="759.19" y1="649.8" x2="759.19" y2= "733.8" />
   <line class="fil0 str2" x1="759.19" y1="539.95" x2="759.19" y2= "544.8" />
   <line class="fil0 str2" x1="856.12" y1="588.41" x2="821.42" y2= "588.41" />
   <line class="fil0 str2" x1="759.19" y1="588.41" x2="775.35" y2= "588.41" />
   <line class="fil0 str2" x1="904.58" y1="573.89" x2="904.58" y2= "636.87" />
   <line class="fil0 str2" x1="856.12" y1="636.87" x2="904.58" y2= "636.87" />
   <line class="fil0 str2" x1="904.58" y1="539.97" x2="904.58" y2= "544.82" />
   <line class="fil0 str2" x1="934.18" y1="588.43" x2="904.58" y2= "588.43" />
   <line class="fil0 str2" x1="1041.89" y1="588.41" x2="1001.5" y2= "588.41" />
   <line class="fil0 str2" x1="1098.43" y1="782.26" x2="1098.43" y2= "733.8" />
   <line class="fil0 str2" x1="1082.64" y1="588.41" x2="1098.43" y2= "588.41" />
   <line class="fil0 str2" x1="1098.43" y1="604.59" x2="1195.35" y2= "604.59" />
   <line class="fil0 str2" x1="1098.43" y1="604.59" x2="1098.43" y2= "620.74" />
   <line class="fil0 str2" x1="1098.43" y1="649.82" x2="1098.43" y2= "733.82" />
   <line class="fil0 str2" x1="1098.43" y1="573.89" x2="1098.43" y2= "604.59" />
   <line class="fil0 str2" x1="1098.43" y1="539.97" x2="1098.43" y2= "544.82" />
   <line class="fil0 str2" x1="1227.66" y1="604.59" x2="1292.27" y2= "604.59" />
   <line class="fil0 str2" x1="1227.66" y1="539.95" x2="1292.27" y2= "539.95" />
   <line class="fil0 str2" x1="1227.66" y1="588.43" x2="1227.66" y2= "604.59" />
   <line class="fil0 str2" x1="1200.19" y1="604.59" x2="1195.35" y2= "604.59" />
   <line class="fil0 str2" x1="1227.66" y1="604.59" x2="1222.81" y2= "604.59" />
   <line class="fil0 str2" x1="1227.66" y1="539.95" x2="1227.66" y2= "559.35" />
   <line class="fil0 str2" x1="1227.66" y1="491.49" x2="1292.27" y2= "491.49" />
   <line class="fil0 str2" x1="1227.66" y1="491.49" x2="1227.66" y2= "501.18" />
   <line class="fil0 str2" x1="1227.66" y1="539.95" x2="1227.66" y2= "530.26" />
   <line class="fil0 str2" x1="1195.35" y1="539.97" x2="1195.35" y2= "530.26" />
   <line class="fil0 str2" x1="1098.16" y1="491.49" x2="1049.96" y2= "491.49" />
   <line class="fil0 str2" x1="1195.35" y1="501.18" x2="1195.35" y2= "491.49" />
   <line class="fil0 str2" x1="1195.35" y1="346.11" x2="1195.35" y2= "491.49" />
  </g>
  <g id="Лестница">
   <g>
    <rect class="fil0 str2" x="904.58" y="380.03" width="38.77" height="77.54"/>
    <line class="fil0 str2" x1="904.58" y1="389.72" x2="943.35" y2= "389.72" />
    <line class="fil0 str2" x1="904.58" y1="399.41" x2="943.35" y2= "399.41" />
    <line class="fil0 str2" x1="904.58" y1="409.11" x2="943.35" y2= "409.11" />
    <line class="fil0 str2" x1="904.58" y1="418.8" x2="943.35" y2= "418.8" />
    <line class="fil0 str2" x1="904.58" y1="428.49" x2="943.35" y2= "428.49" />
    <line class="fil0 str2" x1="904.58" y1="438.18" x2="943.35" y2= "438.18" />
    <line class="fil0 str2" x1="904.58" y1="447.87" x2="943.35" y2= "447.87" />
    <line class="fil0 str2" x1="923.96" y1="380.03" x2="923.96" y2= "457.57" />
    <line class="fil0 str2" x1="923.96" y1="457.57" x2="928.63" y2= "446.32" />
    <line class="fil0 str2" x1="923.96" y1="457.57" x2="919.29" y2= "446.32" />
   </g>
   <g>
    <rect class="fil0 str2" x="1011.19" y="380.03" width="38.77" height="77.54"/>
    <line class="fil0 str2" x1="1011.19" y1="447.87" x2="1049.96" y2= "447.87" />
    <line class="fil0 str2" x1="1011.19" y1="438.18" x2="1049.96" y2= "438.18" />
    <line class="fil0 str2" x1="1011.19" y1="428.49" x2="1049.96" y2= "428.49" />
    <line class="fil0 str2" x1="1011.19" y1="418.8" x2="1049.96" y2= "418.8" />
    <line class="fil0 str2" x1="1011.19" y1="409.11" x2="1049.96" y2= "409.11" />
    <line class="fil0 str2" x1="1011.19" y1="399.41" x2="1049.96" y2= "399.41" />
    <line class="fil0 str2" x1="1011.19" y1="389.72" x2="1049.96" y2= "389.72" />
    <line class="fil0 str2" x1="1030.58" y1="457.57" x2="1030.58" y2= "380.03" />
    <line class="fil0 str2" x1="1030.58" y1="380.03" x2="1035.25" y2= "391.27" />
    <line class="fil0 str2" x1="1030.58" y1="380.03" x2="1025.91" y2= "391.27" />
   </g>
   <rect class="fil0 str2" x="943.35" y="380.03" width="67.85" height="77.54"/>
   <line class="fil0 str2" x1="1011.19" y1="380.03" x2="943.35" y2= "457.57" />
   <line class="fil0 str2" x1="943.35" y1="380.03" x2="1011.19" y2= "457.57" />
  </g>
  <g id="Засечки">
   <line class="fil0 str1" x1="775.35" y1="585.46" x2="775.35" y2= "591.37" />
   <line class="fil0 str1" x1="821.42" y1="585.46" x2="821.42" y2= "591.37" />
   <line class="fil0 str1" x1="934.18" y1="585.48" x2="934.18" y2= "591.38" />
   <line class="fil0 str1" x1="1041.89" y1="585.46" x2="1041.89" y2= "591.37" />
   <line class="fil0 str1" x1="1082.64" y1="585.46" x2="1082.64" y2= "591.37" />
   <line class="fil0 str1" x1="1200.19" y1="601.63" x2="1200.19" y2= "607.54" />
   <line class="fil0 str1" x1="1222.81" y1="601.63" x2="1222.81" y2= "607.54" />
   <line class="fil0 str1" x1="1098.16" y1="488.54" x2="1098.16" y2= "494.44" />
   <line class="fil0 str1" x1="756.24" y1="446.26" x2="762.15" y2= "446.26" />
   <line class="fil0 str1" x1="756.24" y1="475.34" x2="762.15" y2= "475.34" />
   <line class="fil0 str1" x1="756.24" y1="499.57" x2="762.15" y2= "499.57" />
   <line class="fil0 str1" x1="756.24" y1="531.88" x2="762.15" y2= "531.88" />
   <line class="fil0 str1" x1="818.46" y1="535.11" x2="824.37" y2= "535.11" />
   <line class="fil0 str1" x1="818.46" y1="499.57" x2="824.37" y2= "499.57" />
   <line class="fil0 str1" x1="756.24" y1="544.8" x2="762.15" y2= "544.8" />
   <line class="fil0 str1" x1="756.24" y1="573.88" x2="762.15" y2= "573.88" />
   <line class="fil0 str1" x1="756.24" y1="620.72" x2="762.15" y2= "620.72" />
   <line class="fil0 str1" x1="756.24" y1="649.8" x2="762.15" y2= "649.8" />
   <line class="fil0 str1" x1="901.63" y1="573.89" x2="907.53" y2= "573.89" />
   <line class="fil0 str1" x1="901.63" y1="544.82" x2="907.53" y2= "544.82" />
   <line class="fil0 str1" x1="1095.47" y1="544.82" x2="1101.38" y2= "544.82" />
   <line class="fil0 str1" x1="1095.47" y1="573.89" x2="1101.38" y2= "573.89" />
   <line class="fil0 str1" x1="1095.47" y1="620.74" x2="1101.38" y2= "620.74" />
   <line class="fil0 str1" x1="1095.47" y1="649.82" x2="1101.38" y2= "649.82" />
   <line class="fil0 str1" x1="1224.7" y1="588.43" x2="1230.61" y2= "588.43" />
   <line class="fil0 str1" x1="1224.7" y1="559.35" x2="1230.61" y2= "559.35" />
   <line class="fil0 str1" x1="1224.7" y1="530.26" x2="1230.61" y2= "530.26" />
   <line class="fil0 str1" x1="1224.7" y1="501.18" x2="1230.61" y2= "501.18" />
   <line class="fil0 str1" x1="1192.4" y1="501.18" x2="1198.3" y2= "501.18" />
   <line class="fil0 str1" x1="1192.4" y1="530.26" x2="1198.3" y2= "530.26" />
   <line class="fil0 str1" x1="938.5" y1="537.02" x2="938.5" y2= "542.92" />
   <line class="fil0 str1" x1="909.43" y1="537.02" x2="909.43" y2= "542.92" />
   <line class="fil0 str1" x1="826.26" y1="537" x2="826.26" y2= "542.9" />
   <line class="fil0 str1" x1="851.27" y1="537" x2="851.27" y2= "542.9" />
   <line class="fil0 str1" x1="1009.58" y1="537.02" x2="1009.58" y2= "542.92" />
   <line class="fil0 str1" x1="1041.89" y1="537" x2="1041.89" y2= "542.9" />
   <line class="fil0 str1" x1="1047.01" y1="499.57" x2="1052.92" y2= "499.57" />
   <line class="fil0 str1" x1="1047.01" y1="532.12" x2="1052.92" y2= "532.12" />
  </g>
 </g>
</svg>
