<?xml version="1.0" encoding="UTF-8"?>
<!DOCTYPE svg PUBLIC "-//W3C//DTD SVG 1.1//EN" "http://www.w3.org/Graphics/SVG/1.1/DTD/svg11.dtd">
<!-- Creator: CorelDRAW 2019 (64-Bit) -->
<svg xmlns="http://www.w3.org/2000/svg" xml:space="preserve" width="1920px" height="1080px" version="1.1" style="shape-rendering:geometricPrecision; text-rendering:geometricPrecision; image-rendering:optimizeQuality; fill-rule:evenodd; clip-rule:evenodd"
viewBox="0 0 1920 1080"
 xmlns:xlink="http://www.w3.org/1999/xlink">
 <defs>
  <style type="text/css">
   <![CDATA[
    .str0 {stroke:#2B2A29;stroke-miterlimit:22.9256}
    .str1 {stroke:#2B2A29;stroke-width:2;stroke-miterlimit:22.9256}
    .str2 {stroke:#2B2A29;stroke-width:3;stroke-miterlimit:22.9256}
    .fil0 {fill:none}
   ]]>
  </style>
 </defs>
 <g id="Слой_x0020_1">
  <metadata id="CorelCorpID_0Corel-Layer"/>
  <g id="Секция_x0020_1">
   <g id="Лестница_x0020_и_x0020_лифт">
    <rect class="fil0 str0" x="870.93" y="369.99" width="38.08" height="76.15"/>
    <line class="fil0 str0" x1="909" y1="408.06" x2="870.92" y2= "408.06" />
    <line class="fil0 str0" x1="909" y1="398.54" x2="870.92" y2= "398.54" />
    <line class="fil0 str0" x1="909" y1="389.02" x2="870.92" y2= "389.02" />
    <line class="fil0 str0" x1="909" y1="379.51" x2="870.92" y2= "379.51" />
    <line class="fil0 str0" x1="909" y1="427.11" x2="870.92" y2= "427.11" />
    <line class="fil0 str0" x1="909" y1="436.63" x2="870.92" y2= "436.63" />
    <line class="fil0 str0" x1="909" y1="417.59" x2="870.92" y2= "417.59" />
    <rect class="fil0 str0" x="975.64" y="369.99" width="38.08" height="76.15"/>
    <line class="fil0 str0" x1="1013.71" y1="408.06" x2="975.64" y2= "408.06" />
    <line class="fil0 str0" x1="1013.71" y1="398.54" x2="975.64" y2= "398.54" />
    <line class="fil0 str0" x1="1013.71" y1="389.02" x2="975.64" y2= "389.02" />
    <line class="fil0 str0" x1="1013.71" y1="379.51" x2="975.64" y2= "379.51" />
    <line class="fil0 str0" x1="1013.71" y1="427.11" x2="975.64" y2= "427.11" />
    <line class="fil0 str0" x1="1013.71" y1="436.63" x2="975.64" y2= "436.63" />
    <line class="fil0 str0" x1="1013.71" y1="417.59" x2="975.64" y2= "417.59" />
    <line class="fil0 str0" x1="889.97" y1="369.99" x2="889.97" y2= "446.15" />
    <line class="fil0 str0" x1="889.97" y1="446.27" x2="887.48" y2= "436.75" />
    <line class="fil0 str0" x1="889.97" y1="446.18" x2="892.5" y2= "436.66" />
    <line class="fil0 str0" x1="994.67" y1="446.15" x2="994.67" y2= "369.99" />
    <line class="fil0 str0" x1="994.67" y1="369.86" x2="997.16" y2= "379.38" />
    <line class="fil0 str0" x1="994.67" y1="369.96" x2="992.14" y2= "379.48" />
    <rect class="fil0 str0" x="909" y="369.99" width="66.63" height="76.15"/>
    <line class="fil0 str0" x1="975.64" y1="369.99" x2="909" y2= "446.15" />
    <line class="fil0 str0" x1="909" y1="369.99" x2="975.64" y2= "446.15" />
   </g>
   <g id="Перегородки_x0020_квартир">
    <line class="fil0 str1" x1="632.94" y1="337.16" x2="728.14" y2= "337.16" />
    <line class="fil0 str1" x1="728.14" y1="289.56" x2="870.92" y2= "289.56" />
    <line class="fil0 str1" x1="728.14" y1="337.16" x2="728.14" y2= "403.8" />
    <line class="fil0 str1" x1="728.14" y1="431.96" x2="728.14" y2= "480.45" />
    <line class="fil0 str1" x1="728.14" y1="521.25" x2="728.14" y2= "526.57" />
    <line class="fil0 str1" x1="728.14" y1="479.95" x2="728.14" y2= "485.27" />
    <line class="fil0 str1" x1="680.54" y1="432.36" x2="632.95" y2= "432.36" />
    <line class="fil0 str1" x1="680.54" y1="512.79" x2="680.54" y2= "526.57" />
    <line class="fil0 str1" x1="679.62" y1="432.36" x2="684.38" y2= "432.36" />
    <line class="fil0 str1" x1="728.95" y1="432.36" x2="723.41" y2= "432.36" />
    <line class="fil0 str1" x1="680.53" y1="464.08" x2="632.94" y2= "464.08" />
    <line class="fil0 str1" x1="680.6" y1="432.36" x2="680.6" y2= "437.12" />
    <line class="fil0 str1" x1="680.53" y1="464.08" x2="680.53" y2= "459.32" />
    <line class="fil0 str1" x1="680.53" y1="464.08" x2="680.53" y2= "489.25" />
    <line class="fil0 str1" x1="728.14" y1="526.57" x2="728.14" y2= "531.9" />
    <line class="fil0 str1" x1="728.14" y1="561.44" x2="728.14" y2= "646.58" />
    <line class="fil0 str1" x1="823.33" y1="575.15" x2="779.68" y2= "575.15" />
    <line class="fil0 str1" x1="823.33" y1="621.79" x2="728.14" y2= "621.79" />
    <line class="fil0 str1" x1="728.14" y1="675.14" x2="728.14" y2= "717.94" />
    <line class="fil0 str1" x1="747.95" y1="575.15" x2="728.14" y2= "575.15" />
    <line class="fil0 str1" x1="728.14" y1="765.54" x2="847.12" y2= "765.54" />
    <line class="fil0 str1" x1="823.33" y1="621.79" x2="861.4" y2= "621.79" />
    <line class="fil0 str1" x1="861.4" y1="572.75" x2="861.4" y2= "621.79" />
    <line class="fil0 str1" x1="861.42" y1="545.26" x2="861.42" y2= "526.57" />
    <line class="fil0 str1" x1="847.12" y1="765.54" x2="970.88" y2= "765.54" />
    <line class="fil0 str1" x1="970.88" y1="765.54" x2="1089.87" y2= "765.54" />
    <line class="fil0 str1" x1="1113.67" y1="621.79" x2="1075.6" y2= "621.79" />
    <line class="fil0 str1" x1="1075.6" y1="572.92" x2="1075.6" y2= "621.79" />
    <line class="fil0 str1" x1="1089.83" y1="765.54" x2="1208.87" y2= "765.54" />
    <line class="fil0 str1" x1="1208.87" y1="675.14" x2="1208.87" y2= "717.94" />
    <line class="fil0 str1" x1="1208.87" y1="621.79" x2="1113.67" y2= "621.79" />
    <line class="fil0 str1" x1="1208.87" y1="646.58" x2="1208.87" y2= "559.93" />
    <line class="fil0 str1" x1="1208.87" y1="531.37" x2="1208.87" y2= "526.61" />
    <line class="fil0 str1" x1="1113.67" y1="574.19" x2="1157.32" y2= "574.19" />
    <line class="fil0 str1" x1="1189.05" y1="574.19" x2="1208.87" y2= "574.19" />
    <line class="fil0 str1" x1="1013.71" y1="289.56" x2="1156.51" y2= "289.56" />
    <line class="fil0 str1" x1="1156.51" y1="432.36" x2="1156.51" y2= "479.95" />
    <line class="fil0 str1" x1="1251.71" y1="431.37" x2="1299.3" y2= "431.37" />
    <line class="fil0 str1" x1="1251.71" y1="512.79" x2="1251.71" y2= "526.57" />
    <line class="fil0 str1" x1="1251.71" y1="458.35" x2="1251.71" y2= "463.11" />
    <line class="fil0 str1" x1="1251.71" y1="463.11" x2="1299.3" y2= "463.11" />
    <line class="fil0 str1" x1="1251.71" y1="463.11" x2="1251.71" y2= "484.23" />
    <line class="fil0 str1" x1="1251.71" y1="430.51" x2="1251.71" y2= "436.13" />
    <line class="fil0 str1" x1="1156.51" y1="403.8" x2="1156.51" y2= "337.16" />
    <line class="fil0 str1" x1="1075.6" y1="544.93" x2="1075.6" y2= "526.57" />
    <line class="fil0 str1" x1="775.73" y1="479.95" x2="728.14" y2= "479.95" />
   </g>
   <g id="Контуры_x0020_квартир">
    <line class="fil0 str2" x1="632.94" y1="717.94" x2="1299.3" y2= "717.94" />
    <line class="fil0 str2" x1="632.94" y1="337.16" x2="870.92" y2= "337.16" />
    <line class="fil0 str2" x1="1299.3" y1="336.8" x2="1299.3" y2= "718.32" />
    <line class="fil0 str2" x1="632.94" y1="336.71" x2="632.94" y2= "718.47" />
    <line class="fil0 str2" x1="728.14" y1="289.56" x2="728.14" y2= "337.16" />
    <line class="fil0 str2" x1="870.92" y1="289.18" x2="870.92" y2= "337.16" />
    <line class="fil0 str2" x1="870.92" y1="337.16" x2="870.92" y2= "479.95" />
    <line class="fil0 str2" x1="632.84" y1="526.57" x2="780.6" y2= "526.57" />
    <line class="fil0 str2" x1="870.92" y1="479.95" x2="775.73" y2= "479.95" />
    <line class="fil0 str2" x1="775.73" y1="520.92" x2="775.73" y2= "526.25" />
    <line class="fil0 str2" x1="775.73" y1="478.56" x2="775.73" y2= "486.26" />
    <line class="fil0 str2" x1="822.71" y1="526.57" x2="866.42" y2= "526.57" />
    <line class="fil0 str2" x1="870.92" y1="479.95" x2="870.92" y2= "485.27" />
    <line class="fil0 str2" x1="870.68" y1="521.24" x2="870.68" y2= "526.57" />
    <line class="fil0 str2" x1="818.57" y1="526.57" x2="823.33" y2= "526.57" />
    <line class="fil0 str2" x1="823.33" y1="526.25" x2="823.33" y2= "717.62" />
    <line class="fil0 str2" x1="728.14" y1="717.94" x2="728.14" y2= "765.54" />
    <line class="fil0 str2" x1="847.12" y1="765.54" x2="847.12" y2= "717.94" />
    <line class="fil0 str2" x1="970.88" y1="526.57" x2="970.88" y2= "717.94" />
    <line class="fil0 str2" x1="915.38" y1="526.57" x2="972.08" y2= "526.57" />
    <line class="fil0 str2" x1="866.16" y1="526.57" x2="877.22" y2= "526.57" />
    <line class="fil0 str2" x1="970.88" y1="526.57" x2="1030.32" y2= "526.57" />
    <line class="fil0 str2" x1="970.88" y1="717.94" x2="970.88" y2= "765.54" />
    <line class="fil0 str2" x1="1113.67" y1="526.57" x2="1113.67" y2= "717.94" />
    <line class="fil0 str2" x1="1113.67" y1="526.57" x2="1066.08" y2= "526.57" />
    <line class="fil0 str2" x1="1089.87" y1="765.54" x2="1089.87" y2= "717.94" />
    <line class="fil0 str2" x1="1150.16" y1="526.57" x2="1299.3" y2= "526.57" />
    <line class="fil0 str2" x1="1208.87" y1="717.94" x2="1208.87" y2= "765.54" />
    <line class="fil0 str2" x1="1113.24" y1="526.57" x2="1118.43" y2= "526.57" />
    <line class="fil0 str2" x1="869.67" y1="289.56" x2="1015.04" y2= "289.56" />
    <line class="fil0 str2" x1="1013.71" y1="289.1" x2="1013.71" y2= "337.16" />
    <line class="fil0 str2" x1="1013.71" y1="337.16" x2="1299.3" y2= "337.16" />
    <line class="fil0 str2" x1="1156.51" y1="289.56" x2="1156.51" y2= "337.16" />
    <line class="fil0 str2" x1="1013.71" y1="337.16" x2="1013.71" y2= "479.95" />
    <line class="fil0 str2" x1="1013.71" y1="479.95" x2="1156.51" y2= "479.95" />
    <line class="fil0 str2" x1="1156.51" y1="478.61" x2="1156.51" y2= "484.71" />
    <line class="fil0 str2" x1="1156.54" y1="521.81" x2="1156.54" y2= "526.57" />
    <line class="fil0 str2" x1="1013.71" y1="479.23" x2="1013.71" y2= "484.71" />
    <line class="fil0 str2" x1="1013.74" y1="521.81" x2="1013.74" y2= "526.57" />
   </g>
   <g id="Засечки">
    <line class="fil0 str0" x1="725.31" y1="403.8" x2="730.95" y2= "403.8" />
    <line class="fil0 str0" x1="677.78" y1="437.12" x2="683.42" y2= "437.12" />
    <line class="fil0 str0" x1="677.71" y1="489.25" x2="683.36" y2= "489.25" />
    <line class="fil0 str0" x1="677.71" y1="459.32" x2="683.36" y2= "459.32" />
    <line class="fil0 str0" x1="677.72" y1="512.79" x2="683.36" y2= "512.79" />
    <line class="fil0 str0" x1="684.38" y1="429.53" x2="684.38" y2= "435.18" />
    <line class="fil0 str0" x1="723.41" y1="429.53" x2="723.41" y2= "435.18" />
    <line class="fil0 str0" x1="725.31" y1="521.25" x2="730.95" y2= "521.25" />
    <line class="fil0 str0" x1="725.31" y1="485.27" x2="730.95" y2= "485.27" />
    <line class="fil0 str0" x1="725.31" y1="531.9" x2="730.95" y2= "531.9" />
    <line class="fil0 str0" x1="725.31" y1="561.44" x2="730.95" y2= "561.44" />
    <line class="fil0 str0" x1="725.31" y1="646.58" x2="730.95" y2= "646.58" />
    <line class="fil0 str0" x1="725.31" y1="675.14" x2="730.95" y2= "675.14" />
    <line class="fil0 str0" x1="858.6" y1="545.26" x2="864.25" y2= "545.26" />
    <line class="fil0 str0" x1="858.58" y1="572.75" x2="864.23" y2= "572.75" />
    <line class="fil0 str0" x1="1072.77" y1="572.92" x2="1078.41" y2= "572.92" />
    <line class="fil0 str0" x1="1072.77" y1="544.93" x2="1078.41" y2= "544.93" />
    <line class="fil0 str0" x1="1206.04" y1="675.14" x2="1211.69" y2= "675.14" />
    <line class="fil0 str0" x1="1206.04" y1="646.58" x2="1211.69" y2= "646.58" />
    <line class="fil0 str0" x1="1206.04" y1="559.93" x2="1211.69" y2= "559.93" />
    <line class="fil0 str0" x1="1206.04" y1="531.37" x2="1211.69" y2= "531.37" />
    <line class="fil0 str0" x1="1248.89" y1="512.79" x2="1254.52" y2= "512.79" />
    <line class="fil0 str0" x1="1248.89" y1="484.23" x2="1254.52" y2= "484.23" />
    <line class="fil0 str0" x1="1248.89" y1="458.35" x2="1254.52" y2= "458.35" />
    <line class="fil0 str0" x1="1248.89" y1="436.13" x2="1254.52" y2= "436.13" />
    <line class="fil0 str0" x1="1153.69" y1="403.8" x2="1159.33" y2= "403.8" />
    <line class="fil0 str0" x1="1153.69" y1="432.36" x2="1159.33" y2= "432.36" />
    <line class="fil0 str0" x1="747.95" y1="572.32" x2="747.95" y2= "577.97" />
    <line class="fil0 str0" x1="779.68" y1="572.32" x2="779.68" y2= "577.97" />
    <line class="fil0 str0" x1="1157.32" y1="571.37" x2="1157.32" y2= "577.01" />
    <line class="fil0 str0" x1="1189.05" y1="571.37" x2="1189.05" y2= "577.01" />
    <line class="fil0 str0" x1="772.91" y1="486.26" x2="778.55" y2= "486.26" />
    <line class="fil0 str0" x1="772.91" y1="520.92" x2="778.55" y2= "520.92" />
    <line class="fil0 str0" x1="818.57" y1="523.75" x2="818.57" y2= "529.39" />
    <line class="fil0 str0" x1="780.6" y1="523.75" x2="780.6" y2= "529.39" />
    <line class="fil0 str0" x1="877.22" y1="523.75" x2="877.22" y2= "529.39" />
    <line class="fil0 str0" x1="915.38" y1="523.75" x2="915.38" y2= "529.39" />
    <line class="fil0 str0" x1="1030.32" y1="523.75" x2="1030.32" y2= "529.39" />
    <line class="fil0 str0" x1="1066.08" y1="523.75" x2="1066.08" y2= "529.39" />
    <line class="fil0 str0" x1="1118.43" y1="523.75" x2="1118.43" y2= "529.39" />
    <line class="fil0 str0" x1="1150.16" y1="523.75" x2="1150.16" y2= "529.39" />
    <line class="fil0 str0" x1="1153.69" y1="484.71" x2="1159.33" y2= "484.71" />
    <line class="fil0 str0" x1="1153.72" y1="521.81" x2="1159.35" y2= "521.81" />
   </g>
  </g>
 </g>
</svg>
