<?xml version="1.0" encoding="UTF-8"?>
<!DOCTYPE svg PUBLIC "-//W3C//DTD SVG 1.1//EN" "http://www.w3.org/Graphics/SVG/1.1/DTD/svg11.dtd">
<!-- Creator: CorelDRAW 2019 (64-Bit) -->
<svg xmlns="http://www.w3.org/2000/svg" xml:space="preserve" width="1920px" height="1080px" version="1.1" style="shape-rendering:geometricPrecision; text-rendering:geometricPrecision; image-rendering:optimizeQuality; fill-rule:evenodd; clip-rule:evenodd"
viewBox="0 0 1920 1080"
 xmlns:xlink="http://www.w3.org/1999/xlink">
 <defs>
  <style type="text/css">
   <![CDATA[
    .str1 {stroke:#2B2A29;stroke-miterlimit:22.9256}
    .str2 {stroke:#2B2A29;stroke-width:2;stroke-miterlimit:22.9256}
    .str0 {stroke:#2B2A29;stroke-width:3;stroke-miterlimit:22.9256}
    .fil0 {fill:none}
   ]]>
  </style>
 </defs>
 <g id="Слой_x0020_1">
  <metadata id="CorelCorpID_0Corel-Layer"/>
  <g id="_3079107563504">
   <g id="Контур_x0020_квартир">
    <line class="fil0 str0" x1="658.04" y1="336.4" x2="895.75" y2= "336.4" />
    <line class="fil0 str0" x1="658.04" y1="716.74" x2="1276.09" y2= "716.74" />
    <line class="fil0 str0" x1="658.04" y1="336.4" x2="658.04" y2= "716.74" />
    <line class="fil0 str0" x1="1276.09" y1="336.4" x2="1276.09" y2= "716.74" />
    <line class="fil0 str0" x1="1181" y1="716.74" x2="1181" y2= "764.28" />
    <line class="fil0 str0" x1="990.83" y1="716.74" x2="990.83" y2= "764.28" />
    <line class="fil0 str0" x1="848.21" y1="716.74" x2="848.21" y2= "764.28" />
    <line class="fil0 str0" x1="1038.38" y1="526.57" x2="1181" y2= "526.57" />
    <line class="fil0 str0" x1="848.21" y1="716.74" x2="848.21" y2= "526.57" />
    <line class="fil0 str0" x1="1181" y1="288.86" x2="1181" y2= "336.4" />
    <line class="fil0 str0" x1="895.75" y1="288.86" x2="1038.38" y2= "288.86" />
    <line class="fil0 str0" x1="895.75" y1="288.86" x2="895.75" y2= "336.4" />
    <line class="fil0 str0" x1="753.12" y1="288.86" x2="753.12" y2= "336.4" />
    <line class="fil0 str0" x1="1038.38" y1="336.4" x2="1276.09" y2= "336.4" />
    <line class="fil0 str0" x1="895.75" y1="336.4" x2="895.75" y2= "493.29" />
    <line class="fil0 str0" x1="1038.38" y1="288.86" x2="1038.38" y2= "493.29" />
    <line class="fil0 str0" x1="1181" y1="716.74" x2="1181" y2= "526.57" />
    <line class="fil0 str0" x1="990.83" y1="716.74" x2="990.83" y2= "526.57" />
    <line class="fil0 str0" x1="895.75" y1="521.82" x2="895.75" y2= "526.57" />
    <line class="fil0 str0" x1="848.21" y1="526.57" x2="895.75" y2= "526.57" />
    <line class="fil0 str0" x1="895.75" y1="526.57" x2="900.5" y2= "526.57" />
    <line class="fil0 str0" x1="929.03" y1="526.57" x2="990.83" y2= "526.57" />
    <line class="fil0 str0" x1="1038.38" y1="521.82" x2="1038.38" y2= "526.57" />
    <line class="fil0 str0" x1="1038.38" y1="526.57" x2="1033.62" y2= "526.57" />
    <line class="fil0 str0" x1="990.83" y1="526.57" x2="1005.1" y2= "526.57" />
   </g>
   <g id="Лестница">
    <g>
     <rect class="fil0 str1" x="895.75" y="369.68" width="38.03" height="76.07"/>
     <line class="fil0 str1" x1="895.75" y1="379.19" x2="933.78" y2= "379.19" />
     <line class="fil0 str1" x1="895.75" y1="388.7" x2="933.78" y2= "388.7" />
     <line class="fil0 str1" x1="895.75" y1="398.21" x2="933.78" y2= "398.21" />
     <line class="fil0 str1" x1="895.75" y1="407.71" x2="933.78" y2= "407.71" />
     <line class="fil0 str1" x1="895.75" y1="417.22" x2="933.78" y2= "417.22" />
     <line class="fil0 str1" x1="895.75" y1="426.73" x2="933.78" y2= "426.73" />
     <line class="fil0 str1" x1="895.75" y1="436.24" x2="933.78" y2= "436.24" />
     <line class="fil0 str1" x1="914.77" y1="369.68" x2="914.77" y2= "445.75" />
     <line class="fil0 str1" x1="914.77" y1="445.75" x2="917.73" y2= "435.86" />
     <line class="fil0 str1" x1="914.77" y1="445.75" x2="911.81" y2= "435.86" />
    </g>
    <g>
     <rect class="fil0 str1" x="1000.34" y="369.68" width="38.03" height="76.07"/>
     <line class="fil0 str1" x1="1038.38" y1="436.24" x2="1000.34" y2= "436.24" />
     <line class="fil0 str1" x1="1038.38" y1="426.73" x2="1000.34" y2= "426.73" />
     <line class="fil0 str1" x1="1038.38" y1="417.22" x2="1000.34" y2= "417.22" />
     <line class="fil0 str1" x1="1038.38" y1="407.71" x2="1000.34" y2= "407.71" />
     <line class="fil0 str1" x1="1038.38" y1="398.21" x2="1000.34" y2= "398.21" />
     <line class="fil0 str1" x1="1038.38" y1="388.7" x2="1000.34" y2= "388.7" />
     <line class="fil0 str1" x1="1038.38" y1="379.19" x2="1000.34" y2= "379.19" />
     <line class="fil0 str1" x1="1019.36" y1="445.75" x2="1019.36" y2= "369.68" />
     <line class="fil0 str1" x1="1019.36" y1="369.68" x2="1016.4" y2= "379.57" />
     <line class="fil0 str1" x1="1019.36" y1="369.68" x2="1022.32" y2= "379.57" />
    </g>
    <line class="fil0 str1" x1="933.78" y1="369.68" x2="1000.34" y2= "445.75" />
    <line class="fil0 str1" x1="1000.34" y1="369.68" x2="933.78" y2= "445.75" />
    <rect class="fil0 str1" x="933.78" y="369.68" width="66.56" height="76.07"/>
   </g>
   <g id="планировки">
    <line class="fil0 str2" x1="815.23" y1="526.57" x2="753.12" y2= "526.57" />
    <line class="fil0 str2" x1="753.12" y1="526.57" x2="753.12" y2= "716.74" />
    <line class="fil0 str2" x1="848.21" y1="526.57" x2="843.45" y2= "526.57" />
    <line class="fil0 str2" x1="810.17" y1="526.57" x2="810.17" y2= "556.68" />
    <line class="fil0 str2" x1="810.17" y1="589.96" x2="753.12" y2= "589.96" />
    <line class="fil0 str2" x1="810.17" y1="589.96" x2="810.17" y2= "585.21" />
    <line class="fil0 str2" x1="715.09" y1="526.44" x2="715.09" y2= "556.55" />
    <line class="fil0 str2" x1="715.09" y1="589.83" x2="658.04" y2= "589.83" />
    <line class="fil0 str2" x1="715.09" y1="589.83" x2="715.09" y2= "585.08" />
    <line class="fil0 str2" x1="715.09" y1="526.44" x2="658.04" y2= "526.57" />
    <line class="fil0 str2" x1="753.12" y1="526.57" x2="748.37" y2= "526.57" />
    <line class="fil0 str2" x1="719.84" y1="526.44" x2="715.09" y2= "526.44" />
    <line class="fil0 str2" x1="715.09" y1="478.9" x2="658.04" y2= "478.9" />
    <line class="fil0 str2" x1="848.21" y1="478.9" x2="895.75" y2= "478.9" />
    <line class="fil0 str2" x1="753.12" y1="336.4" x2="753.12" y2= "478.9" />
    <line class="fil0 str2" x1="715.09" y1="478.9" x2="715.09" y2= "488.41" />
    <line class="fil0 str2" x1="715.09" y1="516.93" x2="715.09" y2= "526.44" />
    <line class="fil0 str2" x1="719.84" y1="478.9" x2="715.09" y2= "478.9" />
    <line class="fil0 str2" x1="753.12" y1="478.9" x2="748.37" y2= "478.9" />
    <line class="fil0 str2" x1="753.12" y1="526.57" x2="753.12" y2= "521.82" />
    <line class="fil0 str2" x1="753.12" y1="483.65" x2="753.12" y2= "478.9" />
    <line class="fil0 str2" x1="753.12" y1="288.86" x2="895.75" y2= "288.86" />
    <line class="fil0 str2" x1="848.21" y1="764.28" x2="990.83" y2= "764.28" />
    <line class="fil0 str2" x1="990.83" y1="764.28" x2="1181" y2= "764.28" />
    <line class="fil0 str2" x1="1085.92" y1="764.28" x2="1085.92" y2= "716.74" />
    <line class="fil0 str2" x1="895.75" y1="574.11" x2="895.75" y2= "621.66" />
    <line class="fil0 str2" x1="895.75" y1="621.66" x2="848.21" y2= "621.66" />
    <line class="fil0 str2" x1="895.75" y1="545.59" x2="895.75" y2= "526.57" />
    <line class="fil0 str2" x1="1085.92" y1="531.32" x2="1085.92" y2= "526.57" />
    <line class="fil0 str2" x1="1085.92" y1="589.96" x2="1181" y2= "589.96" />
    <line class="fil0 str2" x1="1085.92" y1="589.96" x2="1085.92" y2= "605.81" />
    <line class="fil0 str2" x1="1085.92" y1="634.33" x2="1085.92" y2= "716.74" />
    <line class="fil0 str2" x1="1085.92" y1="589.96" x2="1085.92" y2= "559.85" />
    <line class="fil0 str2" x1="1064.22" y1="574.11" x2="1085.92" y2= "574.11" />
    <line class="fil0 str2" x1="1035.69" y1="574.11" x2="990.83" y2= "574.11" />
    <line class="fil0 str2" x1="1214.28" y1="526.57" x2="1276.09" y2= "526.57" />
    <line class="fil0 str2" x1="1219.04" y1="589.95" x2="1276.09" y2= "589.95" />
    <line class="fil0 str2" x1="1214.28" y1="545.57" x2="1214.28" y2= "526.5" />
    <line class="fil0 str2" x1="1214.28" y1="483.71" x2="1214.28" y2= "478.95" />
    <line class="fil0 str2" x1="1214.28" y1="574.1" x2="1214.28" y2= "589.95" />
    <line class="fil0 str2" x1="1219.04" y1="589.95" x2="1214.28" y2= "589.95" />
    <line class="fil0 str2" x1="1185.76" y1="589.96" x2="1181" y2= "589.96" />
    <line class="fil0 str2" x1="1214.28" y1="589.95" x2="1209.53" y2= "589.95" />
    <line class="fil0 str2" x1="1185.76" y1="526.57" x2="1181" y2= "526.57" />
    <line class="fil0 str2" x1="1214.28" y1="526.57" x2="1209.53" y2= "526.57" />
    <line class="fil0 str2" x1="1214.28" y1="478.95" x2="1276.09" y2= "478.95" />
    <line class="fil0 str2" x1="1214.28" y1="526.5" x2="1214.28" y2= "512.23" />
    <line class="fil0 str2" x1="1085.92" y1="478.95" x2="1038.38" y2= "478.95" />
    <line class="fil0 str2" x1="1181" y1="336.4" x2="1181" y2= "478.95" />
    <line class="fil0 str2" x1="1181" y1="483.71" x2="1181" y2= "478.95" />
    <line class="fil0 str2" x1="1181" y1="526.57" x2="1181" y2= "521.82" />
    <line class="fil0 str2" x1="1185.76" y1="478.95" x2="1181" y2= "478.95" />
    <line class="fil0 str2" x1="1214.28" y1="478.95" x2="1209.53" y2= "478.95" />
    <line class="fil0 str2" x1="1181" y1="288.86" x2="1038.38" y2= "288.86" />
   </g>
   <g id="засечки">
    <line class="fil0 str1" x1="719.84" y1="523.49" x2="719.84" y2= "529.39" />
    <line class="fil0 str1" x1="748.37" y1="523.62" x2="748.37" y2= "529.52" />
    <line class="fil0 str1" x1="719.84" y1="475.95" x2="719.84" y2= "481.85" />
    <line class="fil0 str1" x1="748.37" y1="475.95" x2="748.37" y2= "481.85" />
    <line class="fil0 str1" x1="848.21" y1="475.95" x2="848.21" y2= "481.85" />
    <line class="fil0 str1" x1="815.23" y1="523.62" x2="815.23" y2= "529.52" />
    <line class="fil0 str1" x1="843.45" y1="523.62" x2="843.45" y2= "529.52" />
    <line class="fil0 str1" x1="900.5" y1="523.62" x2="900.5" y2= "529.52" />
    <line class="fil0 str1" x1="929.03" y1="523.62" x2="929.03" y2= "529.52" />
    <line class="fil0 str1" x1="1005.1" y1="523.62" x2="1005.1" y2= "529.52" />
    <line class="fil0 str1" x1="1033.62" y1="523.62" x2="1033.62" y2= "529.52" />
    <line class="fil0 str1" x1="1035.69" y1="571.16" x2="1035.69" y2= "577.07" />
    <line class="fil0 str1" x1="1064.22" y1="571.16" x2="1064.22" y2= "577.07" />
    <line class="fil0 str1" x1="1085.92" y1="476" x2="1085.92" y2= "481.91" />
    <line class="fil0 str1" x1="1185.76" y1="476" x2="1185.76" y2= "481.91" />
    <line class="fil0 str1" x1="1209.53" y1="476" x2="1209.53" y2= "481.91" />
    <line class="fil0 str1" x1="1185.76" y1="523.62" x2="1185.76" y2= "529.52" />
    <line class="fil0 str1" x1="1209.53" y1="523.62" x2="1209.53" y2= "529.52" />
    <line class="fil0 str1" x1="1185.76" y1="587.01" x2="1185.76" y2= "592.91" />
    <line class="fil0 str1" x1="1209.53" y1="586.99" x2="1209.53" y2= "592.9" />
    <line class="fil0 str1" x1="1211.33" y1="574.1" x2="1217.24" y2= "574.1" />
    <line class="fil0 str1" x1="1211.33" y1="545.57" x2="1217.24" y2= "545.57" />
    <line class="fil0 str1" x1="1211.33" y1="512.23" x2="1217.24" y2= "512.23" />
    <line class="fil0 str1" x1="1211.33" y1="483.71" x2="1217.24" y2= "483.71" />
    <line class="fil0 str1" x1="1178.05" y1="483.71" x2="1183.96" y2= "483.71" />
    <line class="fil0 str1" x1="1178.05" y1="521.82" x2="1183.96" y2= "521.82" />
    <line class="fil0 str1" x1="1035.42" y1="493.29" x2="1041.33" y2= "493.29" />
    <line class="fil0 str1" x1="1035.42" y1="521.82" x2="1041.33" y2= "521.82" />
    <line class="fil0 str1" x1="1082.97" y1="531.32" x2="1088.87" y2= "531.32" />
    <line class="fil0 str1" x1="1082.97" y1="559.85" x2="1088.87" y2= "559.85" />
    <line class="fil0 str1" x1="1082.97" y1="634.33" x2="1088.87" y2= "634.33" />
    <line class="fil0 str1" x1="1082.97" y1="605.81" x2="1088.87" y2= "605.81" />
    <line class="fil0 str1" x1="892.8" y1="545.59" x2="898.7" y2= "545.59" />
    <line class="fil0 str1" x1="892.8" y1="574.11" x2="898.7" y2= "574.11" />
    <line class="fil0 str1" x1="807.22" y1="585.21" x2="813.13" y2= "585.21" />
    <line class="fil0 str1" x1="807.22" y1="556.68" x2="813.13" y2= "556.68" />
    <line class="fil0 str1" x1="712.14" y1="556.55" x2="718.04" y2= "556.55" />
    <line class="fil0 str1" x1="712.14" y1="585.08" x2="718.04" y2= "585.08" />
    <line class="fil0 str1" x1="712.14" y1="516.93" x2="718.04" y2= "516.93" />
    <line class="fil0 str1" x1="712.14" y1="488.41" x2="718.04" y2= "488.41" />
    <line class="fil0 str1" x1="750.17" y1="521.82" x2="756.07" y2= "521.82" />
    <line class="fil0 str1" x1="750.17" y1="483.65" x2="756.07" y2= "483.65" />
    <line class="fil0 str1" x1="892.8" y1="493.29" x2="898.7" y2= "493.29" />
    <line class="fil0 str1" x1="892.8" y1="521.82" x2="898.7" y2= "521.82" />
   </g>
  </g>
 </g>
</svg>
