<?xml version="1.0" encoding="UTF-8"?>
<!DOCTYPE svg PUBLIC "-//W3C//DTD SVG 1.1//EN" "http://www.w3.org/Graphics/SVG/1.1/DTD/svg11.dtd">
<!-- Creator: CorelDRAW 2019 (64-Bit) -->
<svg xmlns="http://www.w3.org/2000/svg" xml:space="preserve" width="1920px" height="1080px" version="1.1" style="shape-rendering:geometricPrecision; text-rendering:geometricPrecision; image-rendering:optimizeQuality; fill-rule:evenodd; clip-rule:evenodd"
viewBox="0 0 1920 1080"
 xmlns:xlink="http://www.w3.org/1999/xlink">
 <defs>
  <style type="text/css">
   <![CDATA[
    .str2 {stroke:#2B2A29;stroke-miterlimit:22.9256}
    .str1 {stroke:#2B2A29;stroke-width:2;stroke-miterlimit:22.9256}
    .str0 {stroke:#2B2A29;stroke-width:3;stroke-miterlimit:22.9256}
    .fil0 {fill:none}
   ]]>
  </style>
 </defs>
 <g id="Слой_x0020_1">
  <metadata id="CorelCorpID_0Corel-Layer"/>
  <g id="Секция_x0020_2">
   <g id="контур_x0020_квартир">
    <line class="fil0 str0" x1="657.72" y1="342.97" x2="903.97" y2= "342.97" />
    <line class="fil0 str0" x1="1002.47" y1="736.97" x2="1002.47" y2= "786.21" />
    <line class="fil0 str0" x1="1199.46" y1="736.97" x2="1199.46" y2= "786.21" />
    <line class="fil0 str0" x1="903.97" y1="293.72" x2="1051.71" y2= "293.72" />
    <line class="fil0 str0" x1="854.72" y1="539.97" x2="903.97" y2= "539.97" />
    <line class="fil0 str0" x1="1051.71" y1="342.97" x2="1051.71" y2= "505.5" />
    <line class="fil0 str0" x1="908.89" y1="539.97" x2="903.97" y2= "539.97" />
    <line class="fil0 str0" x1="657.72" y1="736.97" x2="1297.96" y2= "736.97" />
    <line class="fil0 str0" x1="657.72" y1="342.97" x2="657.72" y2= "736.97" />
    <line class="fil0 str0" x1="1297.96" y1="342.97" x2="1297.96" y2= "736.97" />
    <line class="fil0 str0" x1="854.72" y1="736.97" x2="854.72" y2= "786.21" />
    <line class="fil0 str0" x1="756.22" y1="342.97" x2="756.22" y2= "293.72" />
    <line class="fil0 str0" x1="903.97" y1="342.97" x2="903.97" y2= "293.72" />
    <line class="fil0 str0" x1="1051.71" y1="342.97" x2="1051.71" y2= "293.72" />
    <line class="fil0 str0" x1="1199.46" y1="342.97" x2="1199.46" y2= "293.72" />
    <line class="fil0 str0" x1="854.72" y1="539.97" x2="756.22" y2= "539.97" />
    <line class="fil0 str0" x1="756.22" y1="539.97" x2="756.22" y2= "736.97" />
    <line class="fil0 str0" x1="903.97" y1="342.97" x2="903.97" y2= "505.5" />
    <line class="fil0 str0" x1="1297.96" y1="342.97" x2="1051.71" y2= "342.97" />
    <line class="fil0 str0" x1="1002.47" y1="736.97" x2="1002.47" y2= "539.97" />
    <line class="fil0 str0" x1="1051.71" y1="539.97" x2="1199.46" y2= "539.97" />
    <line class="fil0 str0" x1="1199.46" y1="539.97" x2="1199.46" y2= "736.97" />
    <line class="fil0 str0" x1="903.97" y1="535.05" x2="903.97" y2= "539.97" />
    <line class="fil0 str0" x1="937.54" y1="539.97" x2="1002.47" y2= "539.97" />
    <line class="fil0 str0" x1="1002.12" y1="539.97" x2="1011.97" y2= "539.97" />
    <line class="fil0 str0" x1="1051.71" y1="539.97" x2="1041.87" y2= "539.97" />
    <line class="fil0 str0" x1="1051.71" y1="535.05" x2="1051.71" y2= "539.97" />
    <line class="fil0 str0" x1="908.89" y1="537.02" x2="908.89" y2= "542.92" />
    <line class="fil0 str0" x1="937.54" y1="537.02" x2="937.54" y2= "542.92" />
    <line class="fil0 str0" x1="1011.97" y1="537.02" x2="1011.97" y2= "542.92" />
    <line class="fil0 str0" x1="1041.87" y1="537.02" x2="1041.87" y2= "542.92" />
    <line class="fil0 str0" x1="901.02" y1="535.05" x2="906.92" y2= "535.05" />
    <line class="fil0 str0" x1="901.02" y1="505.5" x2="906.92" y2= "505.5" />
    <line class="fil0 str0" x1="1048.76" y1="505.5" x2="1054.67" y2= "505.5" />
    <line class="fil0 str0" x1="1048.76" y1="535.05" x2="1054.67" y2= "535.05" />
   </g>
   <g id="Лестничная_x0020_группа">
    <g>
     <rect class="fil0 str1" x="903.97" y="377.45" width="39.4" height="78.8"/>
     <line class="fil0 str1" x1="903.97" y1="387.3" x2="943.37" y2= "387.3" />
     <line class="fil0 str1" x1="903.97" y1="397.15" x2="943.37" y2= "397.15" />
     <line class="fil0 str1" x1="903.97" y1="407" x2="943.37" y2= "407" />
     <line class="fil0 str1" x1="903.97" y1="416.85" x2="943.37" y2= "416.85" />
     <line class="fil0 str1" x1="903.97" y1="426.7" x2="943.37" y2= "426.7" />
     <line class="fil0 str1" x1="903.97" y1="436.55" x2="943.37" y2= "436.55" />
     <line class="fil0 str1" x1="903.97" y1="446.4" x2="943.37" y2= "446.4" />
     <line class="fil0 str1" x1="923.67" y1="377.45" x2="923.67" y2= "456.25" />
     <line class="fil0 str1" x1="923.67" y1="456.25" x2="927.12" y2= "447.31" />
     <line class="fil0 str1" x1="923.67" y1="456.25" x2="920.21" y2= "447.31" />
    </g>
    <g>
     <rect class="fil0 str1" x="1012.32" y="377.45" width="39.4" height="78.8"/>
     <line class="fil0 str1" x1="1012.32" y1="446.4" x2="1051.71" y2= "446.4" />
     <line class="fil0 str1" x1="1012.32" y1="436.55" x2="1051.71" y2= "436.55" />
     <line class="fil0 str1" x1="1012.32" y1="426.7" x2="1051.71" y2= "426.7" />
     <line class="fil0 str1" x1="1012.32" y1="416.85" x2="1051.71" y2= "416.85" />
     <line class="fil0 str1" x1="1012.32" y1="407" x2="1051.71" y2= "407" />
     <line class="fil0 str1" x1="1012.32" y1="397.15" x2="1051.71" y2= "397.15" />
     <line class="fil0 str1" x1="1012.32" y1="387.3" x2="1051.71" y2= "387.3" />
     <line class="fil0 str1" x1="1032.02" y1="456.25" x2="1032.02" y2= "377.45" />
     <line class="fil0 str1" x1="1032.02" y1="377.45" x2="1035.47" y2= "386.38" />
     <line class="fil0 str1" x1="1032.02" y1="377.45" x2="1028.56" y2= "386.38" />
    </g>
    <rect class="fil0 str1" x="943.37" y="377.45" width="68.95" height="78.8"/>
    <line class="fil0 str1" x1="1012.32" y1="377.45" x2="943.37" y2= "456.25" />
    <line class="fil0 str1" x1="943.37" y1="377.45" x2="1012.32" y2= "456.25" />
   </g>
   <g id="планировки_x0020_стен_x0020_внутренние">
    <line class="fil0 str2" x1="854.72" y1="786.21" x2="1002.47" y2= "786.21" />
    <line class="fil0 str2" x1="1002.47" y1="786.21" x2="1199.46" y2= "786.21" />
    <line class="fil0 str2" x1="756.22" y1="293.72" x2="903.97" y2= "293.72" />
    <line class="fil0 str2" x1="1199.46" y1="293.72" x2="1051.71" y2= "293.72" />
    <line class="fil0 str2" x1="756.22" y1="342.97" x2="756.22" y2= "497.24" />
    <line class="fil0 str2" x1="723.39" y1="490.72" x2="723.39" y2= "497.24" />
    <line class="fil0 str2" x1="868.48" y1="490.72" x2="903.97" y2= "490.72" />
    <line class="fil0 str2" x1="756.22" y1="539.97" x2="756.22" y2= "533.4" />
    <line class="fil0 str2" x1="723.39" y1="539.97" x2="657.72" y2= "539.97" />
    <line class="fil0 str2" x1="723.39" y1="490.72" x2="657.72" y2= "490.72" />
    <line class="fil0 str2" x1="723.39" y1="605.64" x2="657.72" y2= "605.64" />
    <line class="fil0 str2" x1="723.39" y1="523.55" x2="723.39" y2= "539.97" />
    <line class="fil0 str2" x1="723.39" y1="490.72" x2="726.67" y2= "490.72" />
    <line class="fil0 str2" x1="723.39" y1="539.97" x2="723.39" y2= "556.39" />
    <line class="fil0 str2" x1="723.39" y1="585.94" x2="723.39" y2= "605.64" />
    <line class="fil0 str2" x1="756.22" y1="605.64" x2="854.72" y2= "605.64" />
    <line class="fil0 str2" x1="854.72" y1="626.12" x2="854.72" y2= "589.22" />
    <line class="fil0 str2" x1="892.88" y1="589.22" x2="854.72" y2= "589.22" />
    <line class="fil0 str2" x1="854.72" y1="544.88" x2="854.72" y2= "539.96" />
    <line class="fil0 str2" x1="854.72" y1="574.43" x2="854.72" y2= "589.22" />
    <line class="fil0 str2" x1="954.73" y1="589.22" x2="1002.47" y2= "589.22" />
    <line class="fil0 str2" x1="854.72" y1="655.67" x2="854.72" y2= "736.97" />
    <line class="fil0 str2" x1="1199.46" y1="342.97" x2="1199.46" y2= "497.24" />
    <line class="fil0 str2" x1="1232.3" y1="490.72" x2="1232.3" y2= "497.24" />
    <line class="fil0 str2" x1="1087.2" y1="490.72" x2="1051.71" y2= "490.72" />
    <line class="fil0 str2" x1="1199.46" y1="539.97" x2="1199.46" y2= "533.4" />
    <line class="fil0 str2" x1="1232.3" y1="539.97" x2="1297.96" y2= "539.97" />
    <line class="fil0 str2" x1="1232.3" y1="490.72" x2="1297.96" y2= "490.72" />
    <line class="fil0 str2" x1="1232.3" y1="605.64" x2="1297.96" y2= "605.64" />
    <line class="fil0 str2" x1="1232.3" y1="523.55" x2="1232.3" y2= "539.97" />
    <line class="fil0 str2" x1="1232.3" y1="490.72" x2="1229.01" y2= "490.72" />
    <line class="fil0 str2" x1="1232.3" y1="539.97" x2="1232.3" y2= "556.39" />
    <line class="fil0 str2" x1="1232.3" y1="585.94" x2="1232.3" y2= "605.64" />
    <line class="fil0 str2" x1="1199.46" y1="605.64" x2="1100.96" y2= "605.64" />
    <line class="fil0 str2" x1="1100.96" y1="626.12" x2="1100.96" y2= "589.22" />
    <line class="fil0 str2" x1="1076.35" y1="589.22" x2="1100.96" y2= "589.22" />
    <line class="fil0 str2" x1="1100.96" y1="544.88" x2="1100.96" y2= "539.96" />
    <line class="fil0 str2" x1="1100.96" y1="574.43" x2="1100.96" y2= "589.22" />
    <line class="fil0 str2" x1="1000.95" y1="589.22" x2="953.22" y2= "589.22" />
    <line class="fil0 str2" x1="1100.96" y1="655.67" x2="1100.96" y2= "736.97" />
    <line class="fil0 str2" x1="1024.58" y1="589.22" x2="1002.47" y2= "589.22" />
    <line class="fil0 str2" x1="726.67" y1="487.77" x2="726.67" y2= "493.67" />
    <line class="fil0 str2" x1="752.37" y1="490.72" x2="756.22" y2= "490.72" />
    <line class="fil0 str2" x1="752.37" y1="487.77" x2="752.37" y2= "493.67" />
    <line class="fil0 str2" x1="1229.01" y1="487.77" x2="1229.01" y2= "493.67" />
    <line class="fil0 str2" x1="1202.19" y1="490.72" x2="1199.46" y2= "490.72" />
    <line class="fil0 str2" x1="1202.19" y1="487.77" x2="1202.19" y2= "493.67" />
    <line class="fil0 str2" x1="1229.34" y1="497.24" x2="1235.25" y2= "497.24" />
    <line class="fil0 str2" x1="1229.34" y1="523.55" x2="1235.25" y2= "523.55" />
    <line class="fil0 str2" x1="1229.34" y1="556.39" x2="1235.25" y2= "556.39" />
    <line class="fil0 str2" x1="1229.34" y1="585.94" x2="1235.25" y2= "585.94" />
    <line class="fil0 str2" x1="1098.01" y1="574.43" x2="1103.92" y2= "574.43" />
    <line class="fil0 str2" x1="1098.01" y1="544.88" x2="1103.92" y2= "544.88" />
    <line class="fil0 str2" x1="1098.01" y1="626.12" x2="1103.92" y2= "626.12" />
    <line class="fil0 str2" x1="1098.01" y1="655.67" x2="1103.92" y2= "655.67" />
    <line class="fil0 str2" x1="1196.51" y1="533.4" x2="1202.41" y2= "533.4" />
    <line class="fil0 str2" x1="1196.51" y1="497.24" x2="1202.41" y2= "497.24" />
    <line class="fil0 str2" x1="851.77" y1="574.43" x2="857.67" y2= "574.43" />
    <line class="fil0 str2" x1="851.77" y1="544.88" x2="857.67" y2= "544.88" />
    <line class="fil0 str2" x1="851.77" y1="626.12" x2="857.67" y2= "626.12" />
    <line class="fil0 str2" x1="851.77" y1="655.67" x2="857.67" y2= "655.67" />
    <line class="fil0 str2" x1="720.44" y1="585.94" x2="726.34" y2= "585.94" />
    <line class="fil0 str2" x1="720.44" y1="556.39" x2="726.34" y2= "556.39" />
    <line class="fil0 str2" x1="720.44" y1="523.55" x2="726.34" y2= "523.55" />
    <line class="fil0 str2" x1="720.44" y1="497.24" x2="726.34" y2= "497.24" />
    <line class="fil0 str2" x1="753.27" y1="497.24" x2="759.17" y2= "497.24" />
    <line class="fil0 str2" x1="753.27" y1="533.4" x2="759.17" y2= "533.4" />
    <line class="fil0 str2" x1="868.48" y1="487.77" x2="868.48" y2= "493.67" />
    <line class="fil0 str2" x1="1087.2" y1="487.77" x2="1087.2" y2= "493.67" />
    <line class="fil0 str2" x1="1100.96" y1="736.97" x2="1100.96" y2= "741.89" />
    <line class="fil0 str2" x1="1100.96" y1="781.32" x2="1100.96" y2= "786.24" />
    <line class="fil0 str2" x1="1024.58" y1="586.26" x2="1024.58" y2= "592.17" />
    <line class="fil0 str2" x1="1076.35" y1="586.26" x2="1076.35" y2= "592.17" />
    <line class="fil0 str2" x1="953.22" y1="586.26" x2="953.22" y2= "592.17" />
    <line class="fil0 str2" x1="892.88" y1="586.26" x2="892.88" y2= "592.17" />
   </g>
  </g>
 </g>
</svg>
