<svg width="40" height="40" viewBox="0 0 40 40" fill="none" xmlns="http://www.w3.org/2000/svg">
<rect x="0.368644" y="0.368644" width="39.2627" height="39.2627" stroke="#DCDFE1" stroke-width="0.737288"/>
<path d="M25.8782 15.4687C23.6344 11.9999 19.0533 10.9686 15.5006 13.1249C12.0413 15.2812 10.9194 19.9687 13.1632 23.4375L13.3502 23.7187L12.6023 26.5312L15.4071 25.7812L15.6875 25.9687C16.9029 26.625 18.2118 27 19.5207 27C20.9231 27 22.3255 26.625 23.5409 25.875C27.0001 23.625 28.0285 19.0312 25.8782 15.4687V15.4687ZM23.9149 22.6875C23.5409 23.25 23.0734 23.625 22.419 23.7187C22.045 23.7187 21.5776 23.9062 19.7077 23.1562C18.1183 22.4062 16.8094 21.1875 15.8745 19.7812C15.3136 19.1249 15.0331 18.2812 14.9396 17.4374C14.9396 16.6874 15.2201 16.0312 15.6875 15.5624C15.8745 15.3749 16.0615 15.2812 16.2485 15.2812H16.716C16.9029 15.2812 17.0899 15.2812 17.1834 15.6562C17.3704 16.1249 17.8379 17.2499 17.8379 17.3437C17.9314 17.4374 17.9314 17.6249 17.8379 17.7187C17.9314 17.9062 17.8379 18.0937 17.7444 18.1874C17.6509 18.2812 17.5574 18.4687 17.4639 18.5624C17.2769 18.6562 17.1834 18.8437 17.2769 19.0312C17.6509 19.5937 18.1183 20.1562 18.5858 20.625C19.1468 21.0937 19.7077 21.4687 20.3622 21.75C20.5491 21.8437 20.7361 21.8437 20.8296 21.6562C20.9231 21.4687 21.3906 21 21.5776 20.8125C21.7645 20.625 21.858 20.625 22.045 20.7187L23.5409 21.4687C23.7279 21.5625 23.9149 21.6562 24.0084 21.75C24.1019 22.0312 24.1019 22.4062 23.9149 22.6875V22.6875Z" fill="#232930"/>
</svg>
