<svg width="40" height="40" viewBox="0 0 40 40" fill="none" xmlns="http://www.w3.org/2000/svg">
<rect x="0.368644" y="0.368644" width="39.2627" height="39.2627" stroke="#DCDFE1" stroke-width="0.737288"/>
<path d="M19.9072 20.4902C22.6175 20.4894 24.8128 18.4086 24.8119 15.8437C24.811 13.2779 22.6131 11.1996 19.9037 11.2004C17.1943 11.2013 14.9981 13.282 14.999 15.847C15.0025 18.4111 17.1987 20.4886 19.9072 20.4902ZM19.9072 13.9235C21.0298 13.9235 21.9399 14.7851 21.9399 15.8478C21.9399 16.9105 21.0298 17.7713 19.9072 17.7713C18.7846 17.7713 17.8745 16.9097 17.8745 15.847C17.8763 14.7851 18.7855 13.9243 19.9072 13.9235ZM21.8909 24.2801C22.9007 24.0633 23.8642 23.685 24.7411 23.1628C25.409 22.7547 25.6014 21.9122 25.1704 21.2798C24.7463 20.6574 23.8738 20.4695 23.2076 20.8577C21.1871 22.0537 18.622 22.0537 16.6016 20.8577C15.931 20.4596 15.0453 20.65 14.6231 21.284C14.199 21.9188 14.3984 22.7597 15.0698 23.1611C15.0707 23.1611 15.0716 23.162 15.0716 23.162C15.9476 23.6834 16.9111 24.0616 17.92 24.2793L15.1765 26.8765C14.6301 27.4228 14.6554 28.2852 15.2333 28.8025C15.7885 29.2991 16.6558 29.2991 17.2109 28.8025L19.9055 26.25L22.6017 28.8025C23.163 29.3331 24.0714 29.3331 24.6327 28.8025C25.1931 28.2712 25.1931 27.4112 24.6327 26.8799L21.8909 24.2801Z" fill="#232930"/>
</svg>
