<svg width="40" height="40" viewBox="0 0 40 40" fill="none" xmlns="http://www.w3.org/2000/svg">
<rect x="0.368644" y="0.368644" width="39.2627" height="39.2627" stroke="#DCDFE1" stroke-width="0.737288"/>
<path fill-rule="evenodd" clip-rule="evenodd" d="M30.1118 16.0199C30.1118 16.0199 29.9064 14.6482 29.277 14.0443C28.4784 13.2512 27.5832 13.2475 27.1731 13.2015C24.2344 13 19.8264 13 19.8264 13H19.8172C19.8172 13 15.4092 13 12.4705 13.2015C12.0597 13.2475 11.1652 13.2512 10.3659 14.0443C9.73653 14.6484 9.53178 16.0199 9.53178 16.0199C9.53178 16.0199 9.32178 17.631 9.32178 19.2414V20.7517C9.32178 22.3627 9.53178 23.9732 9.53178 23.9732C9.53178 23.9732 9.73653 25.3448 10.3659 25.9488C11.1652 26.7418 12.2145 26.717 12.6818 26.7997C14.3618 26.9527 19.8218 27 19.8218 27C19.8218 27 24.2344 26.9938 27.1731 26.7923C27.5832 26.7457 28.4784 26.742 29.277 25.9489C29.9064 25.3448 30.1118 23.9734 30.1118 23.9734C30.1118 23.9734 30.3218 22.3628 30.3218 20.7517V19.2414C30.3218 17.631 30.1118 16.0199 30.1118 16.0199ZM17.6535 22.5818L17.6529 16.9891L23.3268 19.7951L17.6535 22.5818Z" fill="#232930"/>
</svg>
