<svg width="40" height="40" viewBox="0 0 40 40" fill="none" xmlns="http://www.w3.org/2000/svg">
<rect x="0.368644" y="0.368644" width="39.2627" height="39.2627" stroke="#DCDFE1" stroke-width="0.737288"/>
<path fill-rule="evenodd" clip-rule="evenodd" d="M19.9303 11.2001C19.8846 14.8485 19.6356 16.8992 18.2673 18.2676C16.899 19.636 14.8486 19.885 11.2002 19.9304V20.4698C14.8486 20.5151 16.899 20.7642 18.2673 22.1326C19.6356 23.501 19.8846 25.5516 19.9303 29.2001H20.4695C20.5152 25.5516 20.7642 23.501 22.1325 22.1326C23.5008 20.7642 25.5512 20.5151 29.2002 20.4698V19.9304C25.5512 19.885 23.5008 19.636 22.1325 18.2676C20.7642 16.8992 20.5152 14.8485 20.4695 11.2001H19.9303Z" fill="#232930"/>
</svg>
