<svg width="40" height="40" viewBox="0 0 40 40" fill="none" xmlns="http://www.w3.org/2000/svg">
<rect x="0.368644" y="0.368644" width="39.2627" height="39.2627" stroke="#DCDFE1" stroke-width="0.737288"/>
<g clip-path="url(#clip0_90_1931)">
<path d="M28.0487 23.5027C28.003 23.4262 27.7203 22.812 26.3602 21.5497C24.9364 20.2278 25.1276 20.4425 26.8426 18.1568C27.8871 16.7649 28.3047 15.9148 28.174 15.5514C28.0497 15.205 27.2815 15.2964 27.2815 15.2964L24.727 15.3113C24.727 15.3113 24.5379 15.2858 24.3966 15.3697C24.2595 15.4526 24.1713 15.6438 24.1713 15.6438C24.1713 15.6438 23.7665 16.7213 23.2267 17.6372C22.0887 19.5701 21.6328 19.6721 21.4469 19.552C21.0144 19.2726 21.1228 18.4278 21.1228 17.8285C21.1228 15.9552 21.4065 15.1742 20.5692 14.9723C20.2908 14.9054 20.0868 14.8607 19.3759 14.8533C18.4642 14.8437 17.6917 14.8565 17.255 15.0701C16.9638 15.2124 16.7396 15.5302 16.8767 15.5482C17.0457 15.5705 17.4282 15.6513 17.6311 15.9276C17.8936 16.2835 17.884 17.0847 17.884 17.0847C17.884 17.0847 18.0349 19.2896 17.5323 19.5637C17.187 19.7518 16.7141 19.3682 15.6994 17.6139C15.1798 16.716 14.7866 15.7225 14.7866 15.7225C14.7866 15.7225 14.7112 15.5376 14.5762 15.4388C14.4126 15.3187 14.1831 15.2804 14.1831 15.2804L11.754 15.2953C11.754 15.2953 11.3896 15.3059 11.2557 15.4643C11.1367 15.6056 11.2461 15.8967 11.2461 15.8967C11.2461 15.8967 13.1481 20.3458 15.3009 22.5889C17.2762 24.645 19.5183 24.51 19.5183 24.51H20.5341C20.5341 24.51 20.8412 24.476 20.9974 24.3071C21.1419 24.1519 21.1366 23.8608 21.1366 23.8608C21.1366 23.8608 21.1164 22.4975 21.7497 22.2967C22.3734 22.099 23.1746 23.6143 24.0236 24.1976C24.6654 24.6386 25.1531 24.5419 25.1531 24.5419L27.4239 24.51C27.4239 24.51 28.6118 24.4367 28.0487 23.5027Z" fill="#232930"/>
</g>
<defs>
<clipPath id="clip0_90_1931">
<rect width="17" height="17" fill="white" transform="translate(11.2002 11.2002)"/>
</clipPath>
</defs>
</svg>
